<?xml version="1.0" encoding="utf-8"?>
<svg xmlns="http://www.w3.org/2000/svg" viewBox="0 238.925 500 261.075">
  <path fill="#545454" d="M 603.677 207.915 C 590.758 207.915 577.74 214.241 574.365 227.948 C 571.871 238.138 576.565 250.11 588.76 264.57 C 595.544 272.602 628.136 303.192 633.742 308.436 C 642.725 303.654 653.25 297.458 663.774 289.888 C 655.944 289.652 649.255 289.585 648.237 289.619 C 647.643 289.72 647.055 289.526 646.661 288.996 C 646.299 288.502 646.267 287.846 646.561 287.293 C 646.761 286.966 646.896 286.74 647.314 286.604 C 650.27 284.734 685.908 262.043 692.139 241.42 C 695.513 230.343 693.909 220.436 687.547 213.588 C 681.186 206.697 670.86 204.043 659.907 206.434 C 645.285 209.685 637.577 221.653 636.73 223.03 C 636.303 223.751 635.354 224.013 634.633 223.583 C 634.431 223.483 634.303 223.356 634.137 223.19 C 632.56 221.418 620.306 210.047 609.814 208.375 C 607.806 208.047 605.741 207.915 603.677 207.915 Z M 82.021 498.705 C 81.528 498.705 81.368 498.547 81.097 498.253 C 80.544 497.658 80.544 496.708 81.097 496.121 C 90.542 486.089 113.95 460.572 127.793 439.623 C 148.122 408.803 160.612 381.824 165.959 357.094 C 173.304 323.261 166.615 294.435 146.116 271.388 C 132.35 255.884 111.297 251.034 96.055 249.656 C 81.492 248.371 60.507 249.16 43.134 260.376 C 23.818 272.865 12.21 288.769 8.633 307.689 C 4.64 328.673 10.046 353.426 25.195 383.426 C 38.249 409.16 56.345 434.442 70.899 454.775 C 73.752 458.742 76.473 462.578 79.068 466.182 C 84.312 459.987 104.802 435.231 116.445 415.659 C 129.237 394.145 137.303 372.934 139.762 354.376 C 142.641 332.636 137.956 315.16 125.82 302.409 C 115.236 291.229 94.184 285.296 76.868 288.57 C 60.836 291.625 47.07 304.577 43.426 320.114 C 39.658 336.018 46.767 353.756 60.316 362.282 C 73.956 370.869 93.596 369.031 105.003 358.085 C 105.624 357.456 106.606 357.491 107.235 358.112 C 107.823 358.741 107.792 359.756 107.17 360.344 C 94.579 372.44 73.687 374.446 58.636 364.936 C 43.981 355.717 36.311 336.571 40.346 319.39 C 44.281 302.67 59.066 288.738 76.279 285.49 C 94.579 282.048 116.839 288.376 128.12 300.244 C 140.935 313.715 145.889 332.082 142.877 354.771 C 140.351 373.79 132.149 395.394 119.14 417.262 C 112.18 429.039 101.955 442.679 94.613 452.054 C 90.381 457.424 86.704 461.957 84.348 464.77 C 83.035 466.35 81.988 467.59 81.265 468.446 C 79.823 470.149 79.295 470.806 78.153 470.118 C 77.918 469.991 77.724 469.79 77.589 469.596 C 74.734 465.493 71.623 461.169 68.349 456.613 C 53.727 436.181 35.528 410.809 22.41 384.837 C 6.93 354.217 1.425 328.8 5.522 307.094 C 9.298 287.293 21.359 270.7 41.428 257.745 C 59.56 246.048 81.301 245.188 96.316 246.533 C 112.147 247.942 133.989 253.031 148.484 269.323 C 169.659 293.126 176.578 322.899 169.039 357.75 C 163.591 382.873 150.97 410.211 130.412 441.362 C 118.021 460.119 98.088 482.481 87.1 494.317 C 96.316 491.857 116.804 486.316 139.627 480.148 C 168.056 472.45 200.221 463.755 222.288 457.855 L 226.354 456.772 C 258.224 448.286 294.384 438.641 318.783 414.804 C 325.272 408.45 330.52 401.128 335.606 394.019 C 347.204 377.787 358.157 362.477 382.131 359.95 C 411.869 356.867 441.905 361.459 470.978 365.883 C 481.638 367.528 492.686 369.233 503.446 370.476 C 505.872 370.768 508.626 371.13 511.57 371.525 C 531.776 374.278 562.261 378.407 575.38 366.639 C 578.63 363.718 580.166 360.932 580.099 358.085 C 579.971 352.143 572.822 346.375 565.938 340.769 C 558.728 334.904 551.905 329.397 551.972 323.034 C 552.004 319.752 553.81 316.772 557.511 313.852 C 567.315 306.244 585.287 308.345 597.188 309.722 C 598.239 309.848 599.218 309.948 600.133 310.048 C 600.169 310.048 600.2 310.084 600.236 310.084 L 602.989 310.569 C 600.821 309.033 597.415 306.606 593.479 303.786 C 586.041 298.442 576.236 291.322 571.838 287.619 C 556.663 274.894 546.263 263.849 539.053 252.894 C 530.458 239.852 526.295 226.54 526.261 212.271 C 526.236 195.877 533.185 181.152 545.778 170.831 C 559.249 159.783 577.707 155.317 595.123 158.826 C 609.904 161.848 621.084 170.536 624.829 173.776 C 627.651 170.569 635.707 162.176 645.94 158.206 C 664.169 151.156 683.879 152.791 698.661 162.594 C 712.141 171.552 719.912 186.367 720.465 204.405 C 721.584 239.164 698.307 267.064 672.826 287.033 C 678.103 287.193 684.138 287.451 688.11 287.754 C 706.825 289.223 726.075 289.223 742.635 289.131 C 768.664 288.996 802.895 288.307 836.703 284.508 L 838.013 284.34 C 846.766 283.357 870.078 280.771 874.181 275.289 C 875.423 273.653 875.785 272.209 875.358 270.868 C 873.819 266.141 862.9 262.799 858.771 261.526 C 848.767 258.434 841.028 256.866 829.359 254.475 C 826.338 253.878 823.064 253.189 819.388 252.442 C 811.454 250.798 793.032 246.206 793.065 239.223 C 793.065 235.62 797.52 232.993 807.124 231.028 C 848.472 222.601 891.162 221.916 932.408 221.26 C 976.804 220.571 1022.71 219.851 1066.78 209.391 C 1083.43 205.42 1089.21 200.501 1091.1 197.061 C 1092.22 195.095 1092.39 193.021 1091.67 190.765 C 1087.9 179.382 1054.81 172.761 1038.94 169.577 L 1037.17 169.251 C 1029.4 167.68 1024.67 164.569 1024.64 160.891 C 1024.55 156.535 1030.61 152.958 1043.14 149.947 C 1052.25 147.746 1099.46 143.257 1104.98 142.728 C 1106.55 141.452 1114.29 134.604 1129.7 112.593 C 1144.55 91.382 1165.6 51.478 1139.67 22.301 C 1132.35 14.068 1121.14 11.482 1113.01 10.761 C 1105.2 10.073 1094.02 10.491 1084.77 16.459 C 1074.48 23.116 1068.29 31.579 1066.38 41.642 C 1061.53 67.118 1083.76 98.174 1100.03 120.829 C 1101.37 122.699 1102.65 124.497 1103.9 126.233 C 1115.04 112.829 1120.68 104.401 1123.5 99.677 C 1130.75 87.482 1145.76 57.119 1128.68 39.123 C 1122.55 32.662 1110.71 30.37 1102.81 31.837 C 1094.35 33.45 1087.14 40.265 1085.2 48.398 C 1083.27 56.725 1086.97 66.041 1094.06 70.501 C 1101.21 74.989 1111.47 74.042 1117.4 68.299 C 1118.02 67.712 1119.05 67.712 1119.63 68.367 C 1120.22 68.956 1120.22 69.971 1119.6 70.568 C 1112.52 77.349 1100.85 78.466 1092.39 73.15 C 1084.19 68.005 1079.89 57.287 1082.15 47.677 C 1084.35 38.368 1092.58 30.561 1102.22 28.757 C 1112.36 26.861 1124.71 30.37 1130.97 36.958 C 1138.09 44.427 1140.81 54.592 1139.17 67.118 C 1137.76 77.515 1133.31 89.351 1126.19 101.288 C 1121.96 108.399 1115.07 117.713 1105.7 128.962 C 1105.37 129.356 1105.14 129.65 1105.07 129.742 C 1104.78 130.136 1104.36 130.371 1103.9 130.407 C 1103.33 130.43 1102.81 130.171 1102.49 129.742 C 1100.94 127.518 1099.24 125.159 1097.46 122.667 C 1080.88 99.551 1058.19 67.873 1063.27 41.053 C 1065.37 30.098 1072.02 20.95 1083.07 13.81 C 1093.04 7.344 1105.01 6.891 1113.27 7.647 C 1121.96 8.393 1134.03 11.215 1142.03 20.237 C 1153.73 33.381 1157.63 49.809 1153.6 68.956 C 1149.89 86.666 1139.96 103.453 1132.26 114.399 C 1114.51 139.749 1106.78 145.322 1106.48 145.549 C 1106.25 145.681 1106 145.781 1105.73 145.807 C 1105.2 145.84 1053.14 150.761 1043.86 152.994 C 1028.48 156.694 1027.76 160.171 1027.76 160.832 C 1027.79 162.436 1031.33 164.863 1037.79 166.171 L 1039.53 166.499 C 1064.09 171.417 1090.65 177.679 1094.65 189.783 C 1095.66 192.862 1095.4 195.843 1093.86 198.604 C 1090.62 204.405 1081.76 209.065 1067.5 212.438 C 1023.1 222.997 977.006 223.718 932.443 224.407 C 891.33 225.064 848.831 225.751 807.754 234.111 C 796.541 236.403 796.211 238.962 796.211 239.256 C 796.211 241.229 802.668 245.754 820.017 249.354 C 823.685 250.11 826.968 250.798 829.979 251.393 C 841.748 253.819 849.52 255.39 859.685 258.502 C 867.919 261.029 876.54 264.37 878.346 269.886 C 879.126 272.245 878.573 274.703 876.699 277.194 C 872.379 282.962 854.899 285.622 838.339 287.487 L 837.065 287.619 C 803.13 291.454 768.796 292.111 742.667 292.279 C 726.039 292.369 706.702 292.338 687.841 290.902 C 683.318 290.54 676.005 290.24 668.896 290.014 C 656.759 299.093 644.438 306.339 634.238 311.719 C 633.643 312.045 632.922 311.945 632.434 311.493 C 630.857 310.015 593.874 275.491 586.334 266.603 C 573.451 251.325 568.533 238.441 571.318 227.193 C 575.709 209.45 594.233 202.734 610.299 205.252 C 615.579 206.108 621.58 209.029 628.167 213.915 C 630.109 215.358 633.222 217.91 635.153 219.748 C 638.008 215.779 646.004 206.302 659.218 203.39 C 671.255 200.728 682.729 203.749 689.88 211.456 C 696.899 219.027 698.829 230.308 695.16 242.335 C 689.645 260.534 663.843 279.396 653.25 286.505 C 656.271 286.536 660.042 286.637 663.942 286.74 C 664.993 286.763 666.337 286.799 667.88 286.867 C 693.875 267.223 718.468 239.355 717.353 204.504 C 716.798 187.517 709.546 173.585 696.922 165.222 C 682.988 155.973 664.371 154.47 647.087 161.16 C 635.321 165.719 626.565 176.537 626.206 176.991 C 625.676 177.647 624.73 177.779 624.074 177.285 C 624.006 177.258 623.939 177.226 623.87 177.157 C 623.384 176.663 611.189 165.29 594.494 161.907 C 578.001 158.568 560.523 162.83 547.774 173.29 C 535.906 182.991 529.384 196.834 529.408 212.271 C 529.476 243.653 550.786 265.882 573.871 285.195 C 582.004 292.043 609.09 311.03 610.524 311.978 C 610.987 312.248 611.281 312.702 611.313 313.263 C 611.38 313.984 610.886 314.64 610.198 314.866 C 609.937 314.934 609.778 314.966 609.478 314.866 L 609.478 314.901 L 599.738 313.196 C 598.823 313.063 597.841 312.969 596.826 312.837 C 585.446 311.524 568.202 309.518 559.475 316.343 C 556.563 318.602 555.12 320.802 555.084 323.034 C 555.051 327.918 561.609 333.198 567.935 338.346 C 575.38 344.378 583.051 350.608 583.245 357.986 C 583.345 361.821 581.449 365.43 577.48 368.998 C 563.284 381.723 531.903 377.458 511.154 374.673 C 508.232 374.243 505.479 373.884 503.084 373.59 C 492.266 372.345 481.212 370.642 470.526 368.998 C 441.634 364.607 411.77 360.018 382.46 363.098 C 359.896 365.43 349.336 380.211 338.156 395.857 C 333.012 403.069 327.664 410.514 320.974 417.068 C 295.995 441.461 259.398 451.198 227.173 459.825 L 223.103 460.911 C 201.036 466.811 168.871 475.497 140.45 483.169 C 124.678 487.433 110.25 491.338 99.758 494.149 C 94.478 495.558 90.213 496.708 87.268 497.496 C 84.053 498.379 82.709 498.705 82.021 498.705" fill-opacity="1" fill-rule="nonzero" style="stroke-width: 1;"/>
</svg>