<svg xmlns="http://www.w3.org/2000/svg" xmlns:xlink="http://www.w3.org/1999/xlink" width="742" zoomAndPan="magnify" viewBox="0 0 556.5 174.749997" height="233" preserveAspectRatio="xMidYMid meet" version="1.0"><defs><clipPath id="6ad974b4fa"><path d="M 0.148438 115.152344 L 138 115.152344 L 138 173.566406 L 0.148438 173.566406 Z M 0.148438 115.152344 " clip-rule="nonzero"/></clipPath><clipPath id="9afe37d914"><path d="M 416.460938 0 L 554 0 L 554 58.417969 L 416.460938 58.417969 Z M 416.460938 0 " clip-rule="nonzero"/></clipPath></defs><g clip-path="url(#6ad974b4fa)"><path fill="#545454" d="M 71.898438 139.089844 C 70.359375 139.089844 68.808594 139.84375 68.40625 141.476562 C 68.109375 142.691406 68.667969 144.117188 70.121094 145.839844 C 70.929688 146.796875 74.8125 150.441406 75.480469 151.066406 C 76.550781 150.496094 77.804688 149.757812 79.058594 148.855469 C 78.125 148.828125 77.328125 148.820312 77.207031 148.824219 C 77.136719 148.835938 77.066406 148.8125 77.019531 148.75 C 76.976562 148.691406 76.972656 148.613281 77.007812 148.546875 C 77.03125 148.507812 77.046875 148.480469 77.097656 148.464844 C 77.449219 148.242188 81.695312 145.539062 82.4375 143.082031 C 82.839844 141.761719 82.648438 140.582031 81.890625 139.765625 C 81.132812 138.945312 79.902344 138.628906 78.597656 138.914062 C 76.855469 139.300781 75.9375 140.726562 75.835938 140.890625 C 75.785156 140.976562 75.671875 141.007812 75.585938 140.957031 C 75.5625 140.945312 75.546875 140.929688 75.527344 140.910156 C 75.339844 140.699219 73.878906 139.34375 72.628906 139.144531 C 72.390625 139.105469 72.144531 139.089844 71.898438 139.089844 Z M 9.75 173.734375 C 9.691406 173.734375 9.671875 173.714844 9.640625 173.679688 C 9.574219 173.609375 9.574219 173.496094 9.640625 173.425781 C 10.765625 172.230469 13.554688 169.191406 15.203125 166.695312 C 17.625 163.023438 19.113281 159.808594 19.75 156.863281 C 20.625 152.832031 19.828125 149.398438 17.386719 146.652344 C 15.746094 144.804688 13.238281 144.226562 11.421875 144.0625 C 9.6875 143.910156 7.1875 144.003906 5.117188 145.339844 C 2.816406 146.828125 1.433594 148.722656 1.007812 150.976562 C 0.53125 153.476562 1.175781 156.425781 2.980469 160 C 4.535156 163.066406 6.691406 166.078125 8.425781 168.5 C 8.765625 168.972656 9.089844 169.429688 9.398438 169.859375 C 10.023438 169.121094 12.464844 166.171875 13.851562 163.839844 C 15.375 161.277344 16.335938 158.75 16.628906 156.539062 C 16.972656 153.949219 16.414062 151.867188 14.96875 150.347656 C 13.707031 149.015625 11.199219 148.308594 9.136719 148.699219 C 7.226562 149.0625 5.585938 150.605469 5.152344 152.457031 C 4.703125 154.351562 5.550781 156.464844 7.164062 157.480469 C 8.789062 158.503906 11.128906 158.285156 12.488281 156.980469 C 12.5625 156.90625 12.679688 156.910156 12.753906 156.984375 C 12.824219 157.058594 12.820312 157.179688 12.746094 157.25 C 11.246094 158.691406 8.757812 158.929688 6.964844 157.796875 C 5.21875 156.699219 4.304688 154.417969 4.785156 152.371094 C 5.253906 150.378906 7.015625 148.71875 9.066406 148.332031 C 11.246094 147.921875 13.898438 148.675781 15.242188 150.089844 C 16.769531 151.695312 17.359375 153.882812 17 156.585938 C 16.699219 158.851562 15.722656 161.425781 14.171875 164.03125 C 13.34375 165.433594 12.125 167.058594 11.25 168.175781 C 10.746094 168.816406 10.308594 169.355469 10.027344 169.691406 C 9.871094 169.878906 9.746094 170.027344 9.660156 170.128906 C 9.488281 170.332031 9.425781 170.410156 9.289062 170.328125 C 9.261719 170.3125 9.238281 170.289062 9.222656 170.265625 C 8.882812 169.777344 8.511719 169.261719 8.121094 168.71875 C 6.378906 166.285156 4.210938 163.261719 2.648438 160.167969 C 0.804688 156.519531 0.148438 153.492188 0.636719 150.90625 C 1.085938 148.546875 2.523438 146.570312 4.914062 145.027344 C 7.074219 143.632812 9.664062 143.53125 11.453125 143.691406 C 13.339844 143.859375 15.941406 144.464844 17.667969 146.40625 C 20.191406 149.242188 21.015625 152.789062 20.117188 156.941406 C 19.46875 159.933594 17.964844 163.191406 15.515625 166.902344 C 14.039062 169.136719 11.664062 171.800781 10.355469 173.210938 C 11.453125 172.917969 13.894531 172.257812 16.613281 171.523438 C 20 170.605469 23.832031 169.570312 26.460938 168.867188 L 26.945312 168.738281 C 30.742188 167.726562 35.050781 166.578125 37.957031 163.738281 C 38.730469 162.980469 39.355469 162.109375 39.960938 161.261719 C 41.34375 159.328125 42.648438 157.503906 45.503906 157.203125 C 49.046875 156.835938 52.625 157.382812 56.089844 157.910156 C 57.359375 158.105469 58.675781 158.308594 59.957031 158.457031 C 60.246094 158.492188 60.574219 158.535156 60.925781 158.582031 C 63.332031 158.910156 66.964844 159.402344 68.527344 158 C 68.914062 157.652344 69.097656 157.320312 69.089844 156.980469 C 69.074219 156.273438 68.222656 155.585938 67.402344 154.917969 C 66.542969 154.21875 65.730469 153.5625 65.738281 152.804688 C 65.742188 152.414062 65.957031 152.058594 66.398438 151.710938 C 67.566406 150.804688 69.707031 151.054688 71.125 151.21875 C 71.25 151.234375 71.367188 151.246094 71.476562 151.257812 C 71.480469 151.257812 71.484375 151.261719 71.488281 151.261719 L 71.816406 151.320312 C 71.558594 151.136719 71.152344 150.847656 70.683594 150.511719 C 69.796875 149.875 68.628906 149.027344 68.105469 148.585938 C 66.296875 147.070312 65.058594 145.753906 64.199219 144.449219 C 63.175781 142.894531 62.679688 141.308594 62.675781 139.609375 C 62.671875 137.65625 63.5 135.902344 65 134.671875 C 66.605469 133.355469 68.804688 132.824219 70.878906 133.242188 C 72.640625 133.601562 73.972656 134.636719 74.417969 135.023438 C 74.753906 134.640625 75.714844 133.640625 76.933594 133.167969 C 79.105469 132.328125 81.453125 132.523438 83.214844 133.691406 C 84.820312 134.757812 85.746094 136.523438 85.8125 138.671875 C 85.945312 142.8125 83.171875 146.136719 80.136719 148.515625 C 80.765625 148.535156 81.484375 148.566406 81.957031 148.601562 C 84.1875 148.777344 86.480469 148.777344 88.453125 148.765625 C 91.554688 148.75 95.632812 148.667969 99.660156 148.214844 L 99.816406 148.195312 C 100.859375 148.078125 103.636719 147.769531 104.125 147.117188 C 104.273438 146.921875 104.316406 146.75 104.265625 146.589844 C 104.082031 146.027344 102.78125 145.628906 102.289062 145.476562 C 101.097656 145.109375 100.175781 144.921875 98.785156 144.636719 C 98.425781 144.566406 98.035156 144.484375 97.597656 144.394531 C 96.652344 144.199219 94.457031 143.652344 94.460938 142.820312 C 94.460938 142.390625 94.992188 142.078125 96.136719 141.84375 C 101.0625 140.839844 106.148438 140.757812 111.0625 140.679688 C 116.351562 140.597656 121.820312 140.511719 127.070312 139.265625 C 129.054688 138.792969 129.742188 138.207031 129.96875 137.796875 C 130.101562 137.5625 130.121094 137.316406 130.035156 137.046875 C 129.585938 135.691406 125.644531 134.902344 123.753906 134.523438 L 123.542969 134.484375 C 122.617188 134.296875 122.054688 133.925781 122.050781 133.488281 C 122.039062 132.96875 122.761719 132.542969 124.253906 132.183594 C 125.339844 131.921875 130.964844 131.386719 131.621094 131.324219 C 131.808594 131.171875 132.730469 130.355469 134.566406 127.734375 C 136.335938 125.207031 138.84375 120.453125 135.753906 116.976562 C 134.882812 115.996094 133.546875 115.6875 132.578125 115.601562 C 131.648438 115.519531 130.316406 115.570312 129.214844 116.28125 C 127.988281 117.074219 127.25 118.082031 127.023438 119.28125 C 126.445312 122.316406 129.09375 126.015625 131.03125 128.714844 C 131.191406 128.9375 131.34375 129.152344 131.492188 129.359375 C 132.820312 127.761719 133.492188 126.757812 133.828125 126.195312 C 134.691406 124.742188 136.480469 121.125 134.445312 118.980469 C 133.714844 118.210938 132.304688 117.9375 131.363281 118.113281 C 130.355469 118.304688 129.496094 119.117188 129.265625 120.085938 C 129.035156 121.078125 129.476562 122.1875 130.320312 122.71875 C 131.171875 123.253906 132.394531 123.140625 133.101562 122.457031 C 133.175781 122.386719 133.296875 122.386719 133.367188 122.464844 C 133.4375 122.535156 133.4375 122.65625 133.363281 122.726562 C 132.519531 123.535156 131.128906 123.667969 130.121094 123.035156 C 129.144531 122.421875 128.632812 121.144531 128.902344 120 C 129.164062 118.890625 130.144531 117.960938 131.292969 117.746094 C 132.5 117.519531 133.972656 117.9375 134.71875 118.722656 C 135.566406 119.613281 135.890625 120.824219 135.695312 122.316406 C 135.527344 123.554688 134.996094 124.964844 134.148438 126.386719 C 133.644531 127.234375 132.824219 128.34375 131.707031 129.683594 C 131.667969 129.730469 131.640625 129.765625 131.632812 129.777344 C 131.597656 129.824219 131.546875 129.851562 131.492188 129.855469 C 131.425781 129.859375 131.363281 129.828125 131.324219 129.777344 C 131.140625 129.511719 130.9375 129.230469 130.726562 128.933594 C 128.75 126.179688 126.046875 122.40625 126.652344 119.210938 C 126.902344 117.90625 127.695312 116.816406 129.011719 115.964844 C 130.199219 115.195312 131.625 115.140625 132.609375 115.230469 C 133.644531 115.320312 135.082031 115.65625 136.035156 116.730469 C 137.429688 118.296875 137.894531 120.253906 137.414062 122.535156 C 136.972656 124.644531 135.789062 126.644531 134.871094 127.949219 C 132.757812 130.96875 131.835938 131.632812 131.800781 131.660156 C 131.773438 131.675781 131.742188 131.6875 131.710938 131.691406 C 131.648438 131.695312 125.445312 132.28125 124.339844 132.546875 C 122.507812 132.988281 122.421875 133.402344 122.421875 133.480469 C 122.425781 133.671875 122.847656 133.960938 123.617188 134.117188 L 123.824219 134.15625 C 126.75 134.742188 129.914062 135.488281 130.390625 136.929688 C 130.511719 137.296875 130.480469 137.652344 130.296875 137.980469 C 129.910156 138.671875 128.855469 139.226562 127.15625 139.628906 C 121.867188 140.886719 116.375 140.972656 111.066406 141.054688 C 106.167969 141.132812 101.105469 141.214844 96.210938 142.210938 C 94.875 142.484375 94.835938 142.789062 94.835938 142.824219 C 94.835938 143.058594 95.605469 143.597656 97.671875 144.027344 C 98.109375 144.117188 98.5 144.199219 98.859375 144.269531 C 100.261719 144.558594 101.1875 144.746094 102.398438 145.117188 C 103.378906 145.417969 104.40625 145.816406 104.621094 146.472656 C 104.714844 146.753906 104.648438 147.046875 104.425781 147.34375 C 103.910156 148.03125 101.828125 148.347656 99.855469 148.570312 L 99.703125 148.585938 C 95.660156 149.042969 91.570312 149.121094 88.457031 149.140625 C 86.476562 149.152344 84.171875 149.148438 81.925781 148.976562 C 81.386719 148.933594 80.515625 148.898438 79.667969 148.871094 C 78.222656 149.953125 76.753906 150.816406 75.539062 151.457031 C 75.46875 151.496094 75.382812 151.484375 75.324219 151.429688 C 75.136719 151.253906 70.730469 147.140625 69.832031 146.082031 C 68.296875 144.261719 67.710938 142.726562 68.042969 141.386719 C 68.566406 139.273438 70.773438 138.472656 72.6875 138.773438 C 73.316406 138.875 74.03125 139.222656 74.816406 139.804688 C 75.046875 139.976562 75.417969 140.28125 75.648438 140.5 C 75.988281 140.027344 76.941406 138.898438 78.515625 138.550781 C 79.949219 138.234375 81.316406 138.59375 82.167969 139.511719 C 83.003906 140.414062 83.234375 141.757812 82.796875 143.191406 C 82.140625 145.359375 79.066406 147.605469 77.804688 148.453125 C 78.164062 148.457031 78.613281 148.46875 79.078125 148.480469 C 79.203125 148.484375 79.363281 148.488281 79.546875 148.496094 C 82.644531 146.15625 85.574219 142.835938 85.441406 138.683594 C 85.375 136.660156 84.511719 135 83.007812 134.003906 C 81.347656 132.902344 79.128906 132.722656 77.070312 133.519531 C 75.667969 134.0625 74.625 135.351562 74.582031 135.40625 C 74.519531 135.484375 74.40625 135.5 74.328125 135.441406 C 74.320312 135.4375 74.3125 135.433594 74.304688 135.425781 C 74.246094 135.367188 72.792969 134.011719 70.804688 133.609375 C 68.839844 133.210938 66.757812 133.71875 65.238281 134.964844 C 63.824219 136.121094 63.046875 137.769531 63.050781 139.609375 C 63.058594 143.347656 65.597656 145.996094 68.347656 148.296875 C 69.316406 149.113281 72.542969 151.375 72.714844 151.488281 C 72.769531 151.519531 72.804688 151.574219 72.808594 151.640625 C 72.816406 151.726562 72.757812 151.804688 72.675781 151.832031 C 72.644531 151.839844 72.625 151.84375 72.589844 151.832031 L 72.589844 151.835938 L 71.429688 151.632812 C 71.320312 151.617188 71.203125 151.605469 71.082031 151.589844 C 69.726562 151.433594 67.671875 151.195312 66.632812 152.007812 C 66.285156 152.277344 66.113281 152.539062 66.109375 152.804688 C 66.105469 153.386719 66.886719 154.015625 67.640625 154.628906 C 68.527344 155.347656 69.441406 156.089844 69.464844 156.96875 C 69.476562 157.425781 69.25 157.855469 68.777344 158.28125 C 67.085938 159.796875 63.347656 159.289062 60.875 158.957031 C 60.527344 158.90625 60.199219 158.863281 59.914062 158.828125 C 58.625 158.679688 57.308594 158.476562 56.035156 158.28125 C 52.59375 157.757812 49.035156 157.210938 45.542969 157.578125 C 42.855469 157.855469 41.597656 159.617188 40.265625 161.480469 C 39.652344 162.339844 39.015625 163.226562 38.21875 164.007812 C 35.242188 166.914062 30.882812 168.074219 27.042969 169.101562 L 26.558594 169.230469 C 23.929688 169.933594 20.097656 170.96875 16.710938 171.882812 C 14.832031 172.390625 13.113281 172.855469 11.863281 173.191406 C 11.234375 173.359375 10.726562 173.496094 10.375 173.589844 C 9.992188 173.695312 9.832031 173.734375 9.75 173.734375 " fill-opacity="1" fill-rule="nonzero"/></g><g clip-path="url(#9afe37d914)"><path fill="#566348" d="M 488.210938 23.9375 C 486.671875 23.9375 485.121094 24.691406 484.71875 26.324219 C 484.421875 27.539062 484.980469 28.96875 486.433594 30.6875 C 487.242188 31.644531 491.125 35.289062 491.792969 35.914062 C 492.863281 35.34375 494.117188 34.605469 495.371094 33.703125 C 494.4375 33.679688 493.640625 33.667969 493.519531 33.671875 C 493.449219 33.6875 493.378906 33.660156 493.332031 33.597656 C 493.289062 33.539062 493.285156 33.460938 493.320312 33.398438 C 493.34375 33.355469 493.359375 33.328125 493.410156 33.3125 C 493.761719 33.09375 498.007812 30.386719 498.75 27.929688 C 499.152344 26.609375 498.960938 25.429688 498.203125 24.613281 C 497.445312 23.792969 496.214844 23.476562 494.910156 23.765625 C 493.167969 24.148438 492.25 25.574219 492.148438 25.738281 C 492.097656 25.824219 491.984375 25.855469 491.898438 25.804688 C 491.875 25.792969 491.859375 25.777344 491.839844 25.757812 C 491.652344 25.546875 490.191406 24.191406 488.941406 23.992188 C 488.703125 23.957031 488.457031 23.9375 488.210938 23.9375 Z M 426.0625 58.585938 C 426.003906 58.585938 425.984375 58.5625 425.953125 58.527344 C 425.886719 58.457031 425.886719 58.34375 425.953125 58.273438 C 427.078125 57.082031 429.867188 54.039062 431.515625 51.542969 C 433.9375 47.871094 435.425781 44.65625 436.0625 41.710938 C 436.9375 37.679688 436.140625 34.246094 433.699219 31.5 C 432.058594 29.65625 429.550781 29.074219 427.734375 28.910156 C 426 28.757812 423.5 28.851562 421.429688 30.191406 C 419.128906 31.675781 417.746094 33.570312 417.320312 35.824219 C 416.84375 38.324219 417.488281 41.277344 419.292969 44.847656 C 420.847656 47.917969 423.003906 50.925781 424.738281 53.347656 C 425.078125 53.824219 425.402344 54.277344 425.710938 54.707031 C 426.335938 53.96875 428.777344 51.023438 430.164062 48.691406 C 431.6875 46.125 432.648438 43.601562 432.941406 41.386719 C 433.285156 38.796875 432.726562 36.714844 431.28125 35.195312 C 430.019531 33.867188 427.511719 33.15625 425.449219 33.550781 C 423.539062 33.910156 421.898438 35.453125 421.464844 37.304688 C 421.015625 39.199219 421.863281 41.3125 423.476562 42.328125 C 425.101562 43.355469 427.441406 43.132812 428.800781 41.828125 C 428.875 41.757812 428.992188 41.761719 429.066406 41.832031 C 429.136719 41.910156 429.132812 42.027344 429.058594 42.097656 C 427.558594 43.542969 425.070312 43.777344 423.277344 42.648438 C 421.53125 41.550781 420.617188 39.265625 421.097656 37.21875 C 421.566406 35.230469 423.328125 33.566406 425.378906 33.179688 C 427.558594 32.769531 430.210938 33.523438 431.554688 34.9375 C 433.082031 36.542969 433.671875 38.730469 433.3125 41.433594 C 433.011719 43.699219 432.035156 46.273438 430.484375 48.882812 C 429.65625 50.28125 428.4375 51.90625 427.5625 53.023438 C 427.058594 53.667969 426.621094 54.203125 426.339844 54.539062 C 426.183594 54.726562 426.058594 54.878906 425.972656 54.980469 C 425.800781 55.179688 425.738281 55.257812 425.601562 55.175781 C 425.574219 55.160156 425.550781 55.140625 425.535156 55.113281 C 425.195312 54.628906 424.824219 54.109375 424.433594 53.566406 C 422.691406 51.136719 420.523438 48.109375 418.960938 45.015625 C 417.117188 41.367188 416.460938 38.339844 416.949219 35.753906 C 417.398438 33.398438 418.835938 31.417969 421.226562 29.875 C 423.386719 28.480469 425.976562 28.378906 427.765625 28.539062 C 429.652344 28.707031 432.253906 29.316406 433.980469 31.253906 C 436.503906 34.09375 437.328125 37.636719 436.429688 41.789062 C 435.78125 44.78125 434.277344 48.039062 431.828125 51.75 C 430.351562 53.984375 427.976562 56.648438 426.667969 58.058594 C 427.765625 57.765625 430.207031 57.105469 432.925781 56.371094 C 436.3125 55.457031 440.144531 54.417969 442.773438 53.714844 L 443.257812 53.585938 C 447.054688 52.574219 451.363281 51.425781 454.269531 48.589844 C 455.042969 47.832031 455.667969 46.957031 456.273438 46.109375 C 457.65625 44.175781 458.960938 42.351562 461.816406 42.054688 C 465.359375 41.683594 468.9375 42.230469 472.402344 42.761719 C 473.671875 42.957031 474.988281 43.15625 476.269531 43.308594 C 476.558594 43.339844 476.886719 43.386719 477.238281 43.433594 C 479.644531 43.757812 483.277344 44.25 484.839844 42.847656 C 485.226562 42.5 485.410156 42.167969 485.402344 41.828125 C 485.386719 41.121094 484.535156 40.433594 483.714844 39.765625 C 482.855469 39.070312 482.042969 38.410156 482.050781 37.652344 C 482.054688 37.261719 482.269531 36.90625 482.710938 36.5625 C 483.878906 35.652344 486.019531 35.902344 487.4375 36.066406 C 487.5625 36.082031 487.679688 36.09375 487.789062 36.109375 C 487.792969 36.109375 487.796875 36.109375 487.800781 36.109375 L 488.128906 36.167969 C 487.871094 35.984375 487.464844 35.699219 486.992188 35.359375 C 486.109375 34.722656 484.941406 33.875 484.417969 33.433594 C 482.609375 31.917969 481.367188 30.605469 480.511719 29.296875 C 479.488281 27.742188 478.992188 26.160156 478.988281 24.457031 C 478.984375 22.503906 479.8125 20.753906 481.3125 19.519531 C 482.917969 18.207031 485.117188 17.671875 487.191406 18.089844 C 488.953125 18.449219 490.285156 19.488281 490.730469 19.871094 C 491.066406 19.488281 492.027344 18.488281 493.246094 18.015625 C 495.417969 17.175781 497.765625 17.375 499.527344 18.542969 C 501.132812 19.605469 502.058594 21.371094 502.125 23.519531 C 502.257812 27.660156 499.484375 30.984375 496.449219 33.363281 C 497.078125 33.386719 497.796875 33.414062 498.269531 33.453125 C 500.5 33.625 502.792969 33.625 504.765625 33.617188 C 507.867188 33.597656 511.945312 33.519531 515.972656 33.0625 L 516.128906 33.042969 C 517.171875 32.925781 519.949219 32.617188 520.4375 31.96875 C 520.585938 31.769531 520.628906 31.597656 520.578125 31.4375 C 520.394531 30.875 519.09375 30.476562 518.601562 30.324219 C 517.410156 29.957031 516.488281 29.769531 515.097656 29.488281 C 514.738281 29.414062 514.34375 29.332031 513.910156 29.242188 C 512.964844 29.046875 510.769531 28.5 510.773438 27.671875 C 510.773438 27.238281 511.304688 26.925781 512.449219 26.691406 C 517.375 25.6875 522.460938 25.609375 527.375 25.53125 C 532.664062 25.445312 538.132812 25.359375 543.382812 24.113281 C 545.367188 23.640625 546.054688 23.054688 546.28125 22.644531 C 546.414062 22.410156 546.433594 22.164062 546.347656 21.894531 C 545.898438 20.539062 541.957031 19.753906 540.066406 19.375 L 539.855469 19.332031 C 538.929688 19.144531 538.367188 18.773438 538.363281 18.335938 C 538.351562 17.816406 539.074219 17.390625 540.566406 17.03125 C 541.652344 16.769531 547.277344 16.234375 547.933594 16.171875 C 548.121094 16.019531 549.042969 15.203125 550.878906 12.585938 C 552.648438 10.058594 555.15625 5.300781 552.066406 1.824219 C 551.195312 0.84375 549.859375 0.539062 548.890625 0.449219 C 547.960938 0.367188 546.628906 0.417969 545.527344 1.128906 C 544.300781 1.921875 543.5625 2.929688 543.335938 4.128906 C 542.757812 7.164062 545.40625 10.863281 547.34375 13.5625 C 547.503906 13.785156 547.65625 14.003906 547.804688 14.207031 C 549.132812 12.609375 549.804688 11.605469 550.140625 11.042969 C 551.003906 9.589844 552.792969 5.972656 550.757812 3.828125 C 550.027344 3.0625 548.617188 2.785156 547.675781 2.960938 C 546.667969 3.152344 545.808594 3.964844 545.578125 4.933594 C 545.347656 5.929688 545.789062 7.035156 546.632812 7.566406 C 547.484375 8.101562 548.707031 7.988281 549.414062 7.304688 C 549.488281 7.234375 549.609375 7.238281 549.679688 7.3125 C 549.75 7.386719 549.75 7.503906 549.675781 7.574219 C 548.832031 8.386719 547.441406 8.519531 546.433594 7.882812 C 545.457031 7.269531 544.945312 5.992188 545.214844 4.847656 C 545.476562 3.738281 546.457031 2.8125 547.605469 2.59375 C 548.8125 2.367188 550.285156 2.785156 551.03125 3.570312 C 551.878906 4.464844 552.203125 5.671875 552.007812 7.164062 C 551.839844 8.402344 551.308594 9.8125 550.460938 11.234375 C 549.957031 12.082031 549.136719 13.195312 548.019531 14.53125 C 547.980469 14.582031 547.953125 14.613281 547.945312 14.625 C 547.910156 14.671875 547.859375 14.699219 547.804688 14.703125 C 547.738281 14.707031 547.675781 14.679688 547.636719 14.625 C 547.453125 14.359375 547.25 14.078125 547.039062 13.78125 C 545.0625 11.027344 542.359375 7.253906 542.964844 4.058594 C 543.214844 2.757812 544.007812 1.664062 545.320312 0.816406 C 546.511719 0.046875 547.9375 -0.0117188 548.921875 0.078125 C 549.957031 0.167969 551.394531 0.503906 552.347656 1.578125 C 553.742188 3.148438 554.207031 5.101562 553.726562 7.386719 C 553.285156 9.492188 552.101562 11.492188 551.183594 12.800781 C 549.070312 15.820312 548.148438 16.480469 548.113281 16.507812 C 548.085938 16.523438 548.054688 16.535156 548.023438 16.539062 C 547.960938 16.546875 541.757812 17.128906 540.652344 17.394531 C 538.820312 17.835938 538.734375 18.25 538.734375 18.328125 C 538.738281 18.523438 539.160156 18.808594 539.929688 18.964844 L 540.136719 19.007812 C 543.0625 19.589844 546.226562 20.335938 546.703125 21.777344 C 546.824219 22.148438 546.792969 22.5 546.609375 22.828125 C 546.222656 23.519531 545.167969 24.074219 543.46875 24.476562 C 538.179688 25.734375 532.6875 25.820312 527.378906 25.90625 C 522.480469 25.980469 517.417969 26.0625 512.523438 27.0625 C 511.1875 27.332031 511.148438 27.636719 511.148438 27.671875 C 511.148438 27.90625 511.917969 28.445312 513.984375 28.875 C 514.421875 28.96875 514.8125 29.046875 515.171875 29.121094 C 516.574219 29.40625 517.5 29.59375 518.710938 29.964844 C 519.691406 30.265625 520.71875 30.664062 520.933594 31.320312 C 521.027344 31.601562 520.960938 31.894531 520.738281 32.191406 C 520.222656 32.878906 518.140625 33.195312 516.167969 33.417969 L 516.015625 33.433594 C 511.972656 33.890625 507.878906 33.972656 504.769531 33.988281 C 502.789062 34 500.484375 34 498.238281 33.824219 C 497.699219 33.785156 496.828125 33.746094 495.980469 33.722656 C 494.535156 34.800781 493.066406 35.664062 491.851562 36.308594 C 491.78125 36.34375 491.695312 36.332031 491.636719 36.277344 C 491.449219 36.105469 487.042969 31.992188 486.144531 30.929688 C 484.609375 29.109375 484.023438 27.574219 484.355469 26.234375 C 484.878906 24.121094 487.085938 23.320312 489 23.625 C 489.628906 23.722656 490.34375 24.070312 491.128906 24.65625 C 491.359375 24.824219 491.730469 25.128906 491.960938 25.347656 C 492.300781 24.875 493.253906 23.746094 494.828125 23.398438 C 496.261719 23.082031 497.628906 23.441406 498.480469 24.359375 C 499.316406 25.265625 499.546875 26.605469 499.109375 28.039062 C 498.453125 30.207031 495.378906 32.457031 494.117188 33.300781 C 494.476562 33.308594 494.925781 33.316406 495.390625 33.328125 C 495.515625 33.332031 495.675781 33.339844 495.859375 33.34375 C 498.957031 31.003906 501.886719 27.683594 501.753906 23.53125 C 501.6875 21.507812 500.824219 19.847656 499.320312 18.851562 C 497.660156 17.753906 495.441406 17.570312 493.382812 18.367188 C 491.980469 18.910156 490.9375 20.203125 490.894531 20.257812 C 490.832031 20.332031 490.71875 20.347656 490.640625 20.292969 C 490.632812 20.285156 490.625 20.28125 490.617188 20.273438 C 490.558594 20.214844 489.105469 18.863281 487.117188 18.457031 C 485.152344 18.0625 483.070312 18.566406 481.550781 19.8125 C 480.136719 20.96875 479.359375 22.617188 479.363281 24.457031 C 479.371094 28.195312 481.910156 30.84375 484.660156 33.148438 C 485.628906 33.960938 488.855469 36.226562 489.027344 36.335938 C 489.082031 36.367188 489.117188 36.421875 489.121094 36.488281 C 489.125 36.574219 489.070312 36.652344 488.988281 36.679688 C 488.957031 36.6875 488.9375 36.691406 488.902344 36.683594 L 487.742188 36.480469 C 487.632812 36.46875 487.515625 36.453125 487.394531 36.441406 C 486.039062 36.28125 483.984375 36.042969 482.945312 36.855469 C 482.59375 37.125 482.425781 37.386719 482.421875 37.65625 C 482.417969 38.234375 483.199219 38.867188 483.953125 39.476562 C 484.839844 40.195312 485.753906 40.9375 485.777344 41.816406 C 485.789062 42.273438 485.5625 42.703125 485.089844 43.128906 C 483.398438 44.644531 479.660156 44.136719 477.1875 43.804688 C 476.839844 43.753906 476.511719 43.710938 476.226562 43.679688 C 474.9375 43.527344 473.621094 43.324219 472.347656 43.132812 C 468.90625 42.605469 465.347656 42.0625 461.855469 42.425781 C 459.167969 42.707031 457.910156 44.464844 456.578125 46.328125 C 455.964844 47.1875 455.328125 48.074219 454.53125 48.855469 C 451.554688 51.761719 447.195312 52.925781 443.355469 53.949219 L 442.871094 54.078125 C 440.242188 54.78125 436.410156 55.816406 433.023438 56.730469 C 431.144531 57.238281 429.425781 57.707031 428.175781 58.042969 C 427.546875 58.210938 427.039062 58.347656 426.6875 58.441406 C 426.304688 58.542969 426.144531 58.585938 426.0625 58.585938 " fill-opacity="1" fill-rule="nonzero"/></g></svg>