<?xml version="1.0" encoding="utf-8"?>
<svg xmlns="http://www.w3.org/2000/svg" width="443" zoomAndPan="magnify" viewBox="0 0 332.25 325.95" height="614" preserveAspectRatio="xMidYMid meet" version="1.0">
  <path fill="#545454" d="M 14.464 184.405 C 16.836 181.658 20.249 183.16 23.116 184.064 C 23.508 182.375 23.628 180.668 25.488 180.071 C 27.194 179.388 28.901 179.218 30.744 179.525 C 32.467 176.846 35.965 175.754 38.559 177.989 C 43.235 174.218 43.61 177.307 45.829 175.685 C 49.685 171.385 55.863 173.706 58.03 178.484 C 58.286 179.013 58.354 179.679 59.02 180.156 C 59.481 176.317 59.651 172.716 60.863 169.098 C 61.068 168.535 61.016 168.006 60.778 167.46 C 58.644 162.819 59.139 161.351 64.464 161.692 C 65.675 160.651 63.969 157.989 67.143 157.802 C 73.132 157.665 76.477 163.825 79.276 168.262 C 80.249 169.679 80.078 174.047 79.498 175.651 C 79.259 176.214 78.661 177.034 79.395 177.511 C 80.504 177.989 80.351 173.296 80.59 172.528 C 80.607 171.146 81.238 169.832 80.3 168.604 C 81.119 167.972 81.187 167.051 81.324 166.146 C 82.706 157.938 82.416 149.798 82.296 141.505 C 70.556 143.006 54.771 158.45 45.402 153.706 C 44.447 153.16 43.679 152.426 43.44 151.351 C 43.047 149.423 42.638 147.511 42.433 145.566 C 42.348 144.696 43.081 144.03 43.883 143.655 C 59.139 137.307 74.993 132.341 90.59 126.846 C 156.596 98.57 224.207 73.365 289.446 43.485 C 287.739 38.382 285.47 33.57 283.575 28.553 C 280.691 21.863 279.19 14.406 274.668 8.553 C 225.862 32.273 175.129 52.273 124.412 71.539 C 91.085 81.761 60.01 99.303 26 107.034 C 28.337 120.771 36.085 133.245 41.904 145.805 C 41.972 145.941 41.819 146.317 41.716 146.334 C 41.068 146.539 40.59 145.959 40.334 145.43 C 36.153 136.488 20.658 110.174 25.948 101.607 C 57.723 59.833 225.419 -10.048 274.855 5.567 C 281.323 16.881 284.889 29.747 290.299 41.642 C 291.22 44.201 292.569 42.751 293.302 44.901 C 294.565 48.587 296.289 54.645 291.425 56.351 C 261.954 68.041 232.279 79.901 203.286 92.478 C 238.763 93.57 290.487 97.785 317.534 122.563 C 318.473 123.45 319.104 124.508 319.531 125.737 C 322.415 130.72 325.486 135.532 326.715 141.283 C 330.026 152.955 329.872 165.156 329.957 177.187 C 330.145 180.037 328.08 180.293 328.302 182.887 C 328.507 193.143 328.678 203.382 328.746 213.637 C 328.712 218.842 331.391 223.723 330.043 228.945 C 330.299 229.303 330.538 229.627 330.828 230.037 C 329.957 231.112 329.957 232.375 329.975 233.637 C 329.992 235.617 329.633 237.545 329.155 239.456 C 324.787 250.02 312.739 257.972 303.626 264.405 C 259.395 295.48 202.074 297.443 151.119 284.917 C 195.811 292.067 245.128 296.555 286.374 273.125 C 298.285 266.589 330.555 248.774 328.746 233.518 C 288.917 279.508 203.763 293.04 147.228 276.538 C 207.603 288.774 288.592 281.709 328.899 229.9 C 329.48 226.829 329.77 223.774 328.626 220.771 C 302.756 276.982 195.794 287.716 144.719 266.129 C 145.214 269.32 146.255 272.34 146.067 275.634 C 146.392 280.48 147.791 285.292 148.883 290.002 C 161.05 293.432 166.784 300.565 173.473 310.548 C 174.037 311.163 175.282 312.545 173.593 312.477 C 168.712 313.023 164.173 314.576 159.975 317.152 C 149.668 322.477 132.586 316.129 129.071 304.832 C 127.637 300.292 126.443 295.617 126.426 290.821 C 126.409 290.429 126.545 289.968 125.931 289.644 C 123.644 306.18 108.269 321.043 91.597 322.545 C 86.631 322.835 81.631 323.142 76.665 322.818 C 76.221 322.767 75.812 322.511 75.214 322.272 C 77.484 319.439 80.027 316.948 82.006 313.876 C 86.358 306.692 84.242 301.163 92.211 294.456 C 91.392 293.518 90.624 292.613 89.839 291.709 C 89.293 291.794 89.31 292.306 89.173 292.63 C 87.638 296.487 84.924 299.712 83.081 303.415 C 81.443 307.084 80.965 312.152 76.767 313.876 C 74.702 320.753 69.395 320.19 63.542 319.115 C 59.805 318.586 56.614 316.777 55.163 313.159 C 51.563 312.613 48.252 309.815 48.627 305.89 C 47.996 305.395 47.296 304.832 46.46 304.2 C 42.621 310.531 32.365 311.453 27.416 306.009 C 26.477 304.422 24.788 303.774 23.184 303.074 C 19.942 301.606 20.368 299.32 19.054 296.606 C 16.682 293.006 21.324 286.026 24.054 283.518 C 23.696 283.194 23.303 282.784 22.808 283.228 C 21.238 284.61 19.31 283.313 17.672 282.818 C 16.58 282.306 15.812 281.538 16.153 280.156 C 16.204 279.985 16.119 279.764 16.085 279.49 C 12.86 279.985 9.276 277.852 8.986 274.49 C 8.884 273.228 9.31 271.589 7.826 270.975 C 3.713 268.45 1.921 263.057 2.979 258.433 C 3.559 256.009 3.918 253.33 5.829 251.538 C 9.088 248.091 4.037 244.61 8.082 237.17 C 3.935 235.412 3.918 232.75 3.372 228.74 C -0.604 227.443 -0.297 225.549 1.392 222.204 C -0.4 219.457 0.948 216.009 3.815 214.457 C 2.024 213.808 -0.69 212.87 0.692 210.566 C 1.068 209.883 1.324 209.235 1.392 208.433 C 1.921 204.849 6.75 205.873 9.447 206.027 C 8.286 203.262 7.245 200.754 7.706 197.75 C 7.791 196.402 8.832 196.283 9.89 195.873 C 12.911 194.969 11.631 193.057 16.034 191.01 C 16.17 190.088 15.641 189.542 15.112 188.979 C 14.191 188.382 13.133 184.593 14.515 184.354 C 14.72 186.829 15.829 188.859 17.57 190.532 C 20.641 190.173 26.204 189.32 28.406 191.692 C 28.61 191.931 28.884 192.238 28.474 192.699 C 27.467 191.999 26.494 191.163 25.215 191.112 C 20.914 190.907 15.351 190.805 12.791 194.952 C 11.938 196.76 9.617 196.248 8.406 197.511 C 8.184 202.716 11.375 208.04 16.085 210.003 C 16.256 210.122 16.358 210.361 16.768 210.958 C 11.239 209.713 12.177 207.784 8.662 206.829 C 6.631 206.351 3.849 205.822 2.382 207.75 C 1.785 208.535 2.501 209.218 2.262 210.037 C 1.733 210.651 0.556 211.607 1.477 212.426 C 2.228 213.126 3.133 213.416 4.157 213.433 C 4.89 213.433 5.658 213.279 6.58 213.808 C 2.911 216.231 -0.297 217.153 2.194 222.238 C 1.239 224.713 -0.297 226.897 3.235 227.801 C 4.617 228.279 4.566 229.781 4.89 230.975 C 5.334 233.143 6.802 236.453 9.549 235.003 C 12.194 228.04 13.406 227.136 19.31 222.938 C 18.15 221.419 17.45 220.173 16.819 218.416 C 14.054 218.535 11.802 217.87 9.003 218.381 C 11.546 216.504 14.088 218.211 16.802 217.545 C 16.887 215.992 17.023 214.747 17.279 213.296 C 14.327 212.597 12.945 212.05 11.324 210.941 C 13.559 211.027 15.351 212.477 17.57 212.46 C 19.122 208.928 21.17 205.651 22.126 201.88 C 22.501 200.515 23.167 199.269 24.122 198.194 C 28.047 193.62 34.72 190.617 40.624 193.211 C 42.16 192.75 43.764 192.665 45.18 191.897 C 44.634 190.941 43.815 190.242 44.037 189.132 C 44.873 190.122 45.641 191.163 46.733 191.914 C 46.938 192.051 46.921 192.511 47.006 192.836 C 42.535 192.989 38.576 194.32 35.419 197.665 C 34.805 198.296 34.276 199.081 33.303 199.269 L 33.303 199.286 C 33.764 198.757 34.378 198.296 34.481 197.358 C 29.634 197.597 27.416 202.119 25.198 205.788 C 23.576 208.535 21.238 210.634 18.986 212.818 C 19.259 211.487 20.232 210.634 21.102 209.764 C 25.761 205.6 27.041 197.255 34.225 196.539 C 35.249 196.436 36.119 196.163 36.887 195.463 C 37.706 194.73 38.525 194.508 39.276 193.569 C 32.177 192.153 24.225 196.146 22.365 203.484 C 21.938 205.105 21.29 206.658 20.505 208.143 C 19.993 209.149 19.583 210.19 19.071 211.18 C 18.798 211.726 18.849 212.255 19.003 212.801 C 17.143 216.3 17.16 219.951 20.283 222.648 C 22.297 219.457 24.634 216.265 28.832 216.743 C 30.163 216.863 31.494 216.931 32.825 216.829 C 34.088 216.641 35.078 217.136 36.341 217.085 C 35.471 215.873 34.071 214.986 34.566 213.399 C 35.232 210.719 37.808 211.214 37.023 207.562 C 36.631 204.542 36.238 200.856 39.054 198.842 C 39.447 198.535 39.907 198.313 40.197 197.921 C 41.511 196.197 43.337 195.225 45.3 194.457 C 43.013 197.016 37.279 199.491 37.314 203.364 C 37.331 205.105 37.569 206.846 37.723 208.603 C 37.86 210.003 37.535 211.231 36.46 212.221 C 35.829 212.801 35.368 213.501 35.385 214.422 C 35.829 215.207 36.221 216.061 37.365 216.283 C 40.59 212.904 43.935 210.361 48.32 213.774 C 48.935 214.388 49.583 214.525 50.436 214.303 C 53.952 213.33 55.846 216.863 58.115 218.859 C 59.856 218.501 61.221 219.047 62.382 220.224 C 62.45 220.31 62.621 220.276 62.842 220.31 C 62.962 219.934 63.081 219.542 63.235 218.996 C 59.958 215.873 51.153 211.419 50.726 207.102 C 50.624 202.87 50.931 194.917 56.341 194.303 C 60.214 194.149 64.464 190.173 68.115 193.296 C 68.286 193.518 68.423 193.757 68.115 193.962 C 63.457 191.539 60.624 195.071 56.204 195.361 C 54.839 195.429 53.866 196.078 53.269 197.375 C 49.993 205.685 49.959 208.433 57.774 213.381 C 57.979 213.518 58.167 213.825 58.559 213.501 C 56.989 211.607 54.583 210.054 54.856 207.289 C 55.061 203.911 54.771 200.566 55.129 197.204 C 65.266 195.822 60.368 192.443 68.969 195.788 C 68.662 197.136 67.945 198.347 67.33 199.593 C 66.545 201.163 66.426 202.767 66.989 204.474 C 67.586 206.248 67.825 208.143 68.44 209.9 C 69.139 209.798 69.737 209.73 70.334 209.644 C 69.617 204.064 67.672 207.545 68.576 199.115 C 69.071 199.32 69.156 199.644 69.173 200.003 C 69.208 201.18 69.225 202.375 69.259 203.569 C 69.259 204.218 69.378 204.815 69.788 205.344 C 70.778 206.675 71.187 208.228 71.443 209.849 C 71.477 210.088 71.409 210.429 71.938 210.429 C 75.829 205.071 72.894 200.822 74.685 198.825 C 79.89 193.638 76.853 188.638 80.266 186.573 C 82.023 185.924 89.122 178.143 85.402 177.341 C 77.911 176.897 71.392 186.095 69.515 192.631 C 69.464 192.836 69.191 192.989 68.849 193.347 C 68.662 189.15 71.938 184.747 74.685 181.795 C 78.081 178.416 78.423 179.303 78.764 174.064 C 78.61 167.75 74.754 161.266 68.866 158.911 C 67.894 158.689 65.999 158.279 65.88 159.73 C 65.914 164.61 64.498 161.863 61.221 162.665 C 59.088 163.006 61.819 166.965 61.767 168.296 C 61.767 168.706 61.341 169.133 61.187 169.576 C 60.283 175.139 59.054 181.897 61.563 187.153 C 62.177 188.552 63.167 189.815 63.337 191.351 C 62.45 191.061 62.45 191.061 61.921 191.795 C 60.334 188.621 57.894 186.334 55.385 183.962 C 56.75 183.962 58.935 186.453 60.351 187.511 C 60.01 186.487 59.72 185.805 59.532 185.088 C 59.242 184.235 59.293 183.279 58.883 182.46 C 58.133 181.044 57.365 179.644 56.614 178.228 C 54.634 174.252 49.6 172.648 46.426 176.266 C 45.419 177.375 44.122 176.846 42.86 176.778 C 41.699 177.016 40.095 177.153 39.464 178.279 C 41.034 180.02 42.518 181.675 44.037 183.365 C 45.249 182.989 46.511 182.716 47.638 181.931 C 50.197 180.293 53.679 181.846 55.453 184.013 C 54.344 183.928 53.559 183.143 52.638 182.682 C 50.197 181.317 47.979 182.597 45.692 183.535 C 44.447 183.911 44.225 184.132 44.378 185.481 C 44.464 186.402 44.515 187.272 44.105 188.143 C 43.986 188.433 44.088 188.842 44.071 189.184 C 42.74 187.17 45.283 185.412 42.245 182.477 C 39.703 179.354 34.6 174.764 31.597 179.9 C 31.938 180.481 32.228 180.958 32.484 181.453 C 32.501 181.504 32.365 181.658 32.279 181.795 C 31.802 181.556 31.307 181.317 30.914 181.112 C 30.3 181.504 29.805 181.829 28.884 182.426 C 29.361 181.59 29.566 181.197 29.788 180.805 C 27.621 180.225 24.583 180.412 24.378 183.057 C 24.361 184.405 23.628 185.446 22.143 184.9 C 18.781 183.416 18.013 183.382 14.464 184.405 Z M 76.443 215.173 C 75.01 214.184 77.74 212.648 76.665 211.368 C 75.573 211.521 75.112 212.341 74.685 213.16 C 75.078 214.03 75.453 214.815 75.948 215.89 C 76.187 215.48 76.289 215.31 76.392 215.122 C 77.433 215.003 77.825 215.105 78.508 216.009 C 78.832 215.293 79.122 214.73 79.344 214.149 C 79.549 212.46 76.46 214.098 76.443 215.173 Z M 56.068 249.064 C 57.569 247.255 58.679 244.968 60.044 242.989 C 60.095 242.904 59.924 242.682 59.839 242.477 C 58.832 243.962 57.484 245.634 56.341 246.76 C 56.17 248.16 56.255 248.945 55.778 250.054 C 54.788 250.77 53.9 251.863 52.569 251.811 C 51.921 251.794 51.58 251.368 51.58 250.719 C 51.597 250.258 52.194 249.866 51.733 249.371 C 51.068 249.422 51.29 249.951 51.204 250.31 C 50.829 251.828 49.617 252.869 48.098 252.972 C 44.72 252.938 47.45 248.381 49.72 248.757 C 50.522 248.876 51.102 248.586 51.887 248.296 C 47.365 247.477 50.453 244.712 52.791 245.549 C 54.293 246.163 55.283 245.446 56.392 244.644 C 56.153 244.252 55.982 243.979 55.795 243.689 C 55.59 243.364 55.999 242.818 55.453 242.648 C 54.361 242.631 54.088 243.74 53.406 244.218 C 53.201 244.013 53.03 243.927 53.03 243.842 C 53.03 243.364 53.252 242.784 53.047 242.426 C 52.689 241.777 52.057 242.34 51.528 242.375 C 50.726 242.375 50.061 242.409 49.481 243.108 C 48.474 244.149 47.194 243.962 45.948 243.654 C 44.583 243.04 46.153 241.743 46.665 240.975 C 45.027 240.412 45.641 238.228 47.126 238.074 C 47.604 237.989 48.098 237.955 48.593 237.904 C 48.696 237.938 48.798 238.279 48.935 237.921 C 48.815 237.921 48.679 237.938 48.542 237.955 C 47.74 237.426 47.723 236.59 47.706 235.822 C 46.733 235.412 46.29 235.02 45.914 234.03 C 44.105 233.791 42.313 233.535 40.505 233.279 C 38.764 233.04 36.955 232.989 35.351 232.067 C 38.645 231.453 45.846 234.166 47.655 232.631 C 48.389 232.05 49.293 231.692 50.061 231.282 C 49.583 231.112 48.986 230.924 48.406 230.668 C 47.331 230.207 47.433 228.381 48.679 228.364 C 49.805 228.262 50.982 228.296 52.092 228.484 C 52.279 227.306 52.279 227.306 51.802 226.692 C 50.47 224.713 53.081 224.832 54.327 224.968 C 54.634 224.815 54.976 225.344 55.334 224.832 C 54.924 224.883 54.6 224.934 54.276 224.986 C 54.378 224.559 54.037 224.388 53.832 224.115 C 53.525 223.757 53.303 223.33 53.064 222.938 C 53.952 223.091 54.515 224.337 55.658 223.74 C 54.976 222.016 54.242 222.136 53.081 222.955 C 52.604 221.112 53.798 221.282 54.993 221.385 C 55.505 220.907 55.829 220.361 56.29 220.242 C 57.211 219.969 58.081 220.19 58.61 221.129 C 58.849 221.317 59.088 221.504 59.395 221.726 C 59.378 220.941 58.952 221.095 58.559 221.18 C 58.542 220.788 58.525 220.395 58.525 220.02 C 59.515 220.412 60.18 221.009 61.324 220.924 C 60.505 219.815 59.703 219.371 58.559 220.02 C 55.505 218.945 54.105 214.235 50.385 215.378 C 49.515 215.685 48.73 215.498 48.047 214.883 C 41.682 209.644 39.464 217.972 34.43 219.149 C 33.218 219.457 32.621 221.061 33.542 221.982 C 34.464 222.904 35.846 222.955 37.058 223.143 C 41.682 223.313 43.269 227.972 48.116 226.658 C 48.252 226.641 48.423 226.726 48.747 226.811 C 46.58 228.467 43.269 227.511 41.409 225.89 C 40.3 224.832 38.969 224.32 37.433 224.235 C 35.522 224.047 33.542 223.842 32.416 222.067 C 32.365 221.999 32.177 222.033 32.006 222.016 C 31.238 223.706 30.129 225.088 28.628 226.197 C 27.979 226.794 26.989 226.914 26.341 227.716 C 29.31 230.753 28.798 231.402 26.836 234.9 C 24.259 238.91 24.771 243.74 23.047 248.125 C 26.17 249.081 27.416 252.238 28.201 255.054 C 29.105 258.245 31.136 256.965 31.443 262.272 C 35.556 261.76 36.307 265.497 39.873 265.531 C 43.627 265.48 47.587 265.924 50.982 263.927 C 51.955 263.364 52.945 262.852 53.935 262.34 C 54.174 262.221 54.447 262.101 54.651 262.596 C 51.648 266.248 40.078 268.023 36.426 265.054 C 35.078 263.979 33.201 262.05 31.546 263.757 C 31.341 263.962 30.982 263.996 30.607 264.149 C 30.095 261.88 30.914 259.32 28.696 257.835 C 26.375 256.265 27.604 253.211 24.839 250.122 C 23.61 248.535 22.757 248.484 21.187 249.747 C 20.283 256.658 25.419 265.583 32.467 267.204 C 34.122 267.426 35.317 268.637 36.887 269.03 C 44.174 270.89 47.501 266.777 53.798 264.798 C 55.334 264.337 56.58 263.518 57.535 262.221 C 59.378 259.764 61.221 257.306 63.115 254.747 C 62.467 254.269 61.887 253.842 61.324 253.415 C 60.675 253.825 60.146 254.166 59.651 254.491 C 60.368 258.074 56.051 261.453 55.266 259.013 C 55.18 257.033 56.853 254.951 58.491 254.218 C 58.969 251.846 58.593 249.9 61.187 248.996 C 60.556 248.108 60.556 248.108 60.641 246.675 C 59.566 247.323 59.566 247.323 58.32 247.221 C 58.013 247.767 57.672 248.364 57.296 249.013 C 57.791 249.286 58.184 249.525 58.627 249.764 C 58.73 250.395 58.832 250.992 58.935 251.607 C 58.115 251.385 57.484 253.262 56.034 253.433 C 55.539 253.535 55.044 253.518 54.72 253.057 C 54.139 251.982 55.419 251.009 55.829 250.088 C 56.358 249.849 56.204 249.456 56.068 249.064 Z M 51.614 232.016 C 50.317 231.692 49.276 232.34 48.201 233.006 C 47.825 233.228 47.962 233.569 48.15 233.876 C 45.027 235.668 51.426 234.405 51.58 231.982 C 51.938 231.811 52.04 231.59 51.682 231.197 C 51.665 231.521 51.648 231.76 51.614 232.016 Z M 311.323 119.201 C 311.476 119.235 311.664 119.44 311.732 119.218 C 311.579 119.235 311.425 119.252 311.272 119.269 C 311.101 117.034 302.313 113.058 300.111 112 C 281.476 102.887 261.101 98.723 240.606 96.556 C 231.255 95.566 202.074 90.293 195.487 95.396 C 235.111 93.74 276.306 99.713 311.323 119.201 Z M 97.433 205.907 C 97.023 205.958 96.545 205.873 96.204 206.044 C 94.293 207.119 92.074 206.539 90.027 206.948 C 88.32 207.306 86.682 207.238 85.044 206.675 C 84.754 206.573 84.412 206.334 84.054 206.794 C 84.344 208.535 85.3 209.849 87.023 210.446 C 93.781 213.911 96.528 216.658 104.788 214.627 C 106.767 214.166 108.61 213.996 110.351 215.412 C 113.064 216.999 114.344 212.221 113.098 210.361 C 111.904 208.194 110.521 206.18 108.354 204.832 C 107.177 204.098 105.999 203.364 105.197 202.136 C 104.907 201.692 104.344 201.436 103.951 201.129 C 102.757 201.351 101.665 201.556 100.539 201.76 C 99.6 202.784 98.661 203.808 97.689 204.832 C 97.399 205.139 97.484 205.446 97.552 205.788 L 97.433 205.907 Z M 133.678 211.3 C 128.371 207.306 118.678 198.416 111.665 200.02 C 109.975 202.272 108.354 201.88 105.914 201.317 C 106.221 202.426 106.835 203.074 107.774 203.535 C 109.498 204.354 111.17 205.31 112.211 206.948 C 113.61 209.115 115.214 211.163 115.999 213.689 C 117.279 217.221 119.037 213.296 121.477 214.713 C 124.276 215.89 127.347 215.992 130.334 216.18 C 134.276 216.385 134.515 214.593 133.627 211.231 C 135.59 212.75 134.719 215.498 133.098 216.948 C 132.603 220.224 131.443 222.409 129.071 224.661 C 132.194 224.747 135.368 223.535 137.893 225.941 C 140.146 227.972 143.269 228.194 145.692 229.9 C 149.344 227.955 149.6 220.003 144.975 219.405 C 144.037 219.32 142.671 219.354 142.023 218.637 C 141.921 217.221 133.405 216.76 135.692 215.19 C 137.723 215.361 139.532 216.351 141.648 216.556 C 142.927 214.252 141.511 212.272 140.521 210.156 C 139.105 209.747 137.637 209.303 136.153 208.876 C 135.231 209.269 134.344 209.644 133.474 210.003 C 133.559 210.515 133.627 210.907 133.678 211.3 Z M 324.787 139.883 C 324.804 139.628 324.821 139.389 324.821 139.133 C 324.753 139.15 324.667 139.15 324.599 139.167 C 325.555 212.238 181.579 208.706 133.644 189.696 C 133.9 190.378 134.173 191.078 134.48 191.829 C 180.726 211.47 330.777 212.75 324.787 139.883 Z M 75.624 262.63 C 75.76 263.74 75.88 264.849 76.068 265.941 C 76.102 266.163 76.426 266.351 76.716 266.675 C 77.177 265.139 77.092 263.347 75.573 262.682 C 75.368 262.426 75.129 262.392 74.924 262.579 C 74.617 263.637 74.549 264.678 73.9 265.566 C 73.15 266.368 72.569 265.122 72.638 264.456 C 72.791 262.648 73.32 260.89 73.61 259.115 C 73.747 257.938 74.105 256.948 75.18 256.299 C 75.266 256.419 75.368 256.538 75.317 256.487 C 74.941 256.197 74.481 255.258 74.173 254.866 C 73.388 255.651 72.621 256.436 71.699 257.375 C 70.078 267.63 64.993 280.258 55.129 285.156 C 53.44 286.077 51.051 285.958 50.027 287.767 C 47.825 290.361 45.061 302.101 48.116 304.234 C 50.095 305.514 49.327 307.494 50.334 309.03 C 51.853 310.668 53.423 312.323 56.085 311.709 C 57.313 315.002 59.225 316.777 62.689 317.494 C 67.109 318.364 74.156 320.105 75.249 313.893 C 70.47 312.101 67.689 307.937 67.467 302.886 C 67.194 299.473 64.037 300.821 63.9 297.135 C 63.73 293.586 65.249 289.985 64.054 286.487 C 62.296 278.45 69.515 271.828 74.805 266.863 C 74.122 269.303 70.675 271.931 69.02 273.927 C 66.238 277.187 63.986 281.692 64.907 286.06 C 66.853 290.651 62.535 297.989 66.631 299.49 C 67.689 299.934 68.218 300.839 68.423 301.931 C 68.73 303.722 69.037 305.531 69.72 307.221 C 72.279 312.937 78.644 315.275 80.419 307.716 C 83.423 295.156 92.945 285.378 86.46 271.914 C 79.395 270.549 83.218 268.45 81.511 263.501 C 80.778 263.091 80.078 262.716 79.378 262.323 C 79.122 263.023 79.771 263.159 80.027 263.501 C 82.894 267.613 78.781 270.787 77.894 264.047 C 77.757 265.514 77.928 268.432 75.88 267.17 C 75.47 266.88 75.129 266.931 74.737 266.931 C 74.958 266.009 75.214 265.088 75.146 264.115 C 75.112 263.586 75.061 262.989 75.624 262.63 Z M 41.938 270.668 C 41.699 270.975 41.494 271.368 41.17 271.589 C 39.498 272.767 38.064 274.217 36.614 275.651 C 34.566 277.665 32.774 279.934 30.385 281.589 C 29.805 281.982 29.6 282.562 29.532 283.211 C 29.02 289.405 39.617 288.893 43.32 286.948 C 44.839 286.129 46.443 285.821 48.167 285.685 C 63.593 284.234 69.89 266.624 71.307 253.228 C 70.027 254.286 69.429 253.211 68.61 252.869 C 67.945 253.706 67.228 254.422 66.17 254.439 C 63.269 254.491 60.129 260.753 58.15 262.938 C 56.836 264.798 54.72 265.531 52.586 266.06 C 49.6 266.726 47.399 269.064 44.412 269.781 C 43.542 269.985 42.723 270.395 41.887 270.719 C 40.402 269.405 36.716 271.351 33.628 268.45 C 33.133 268.023 32.621 267.767 31.955 267.682 C 24.259 265.941 20.385 257.545 20.249 250.224 C 15.18 249.781 17.16 245.805 16.409 242.443 C 15.3 237.665 18.952 229.252 19.839 224.047 C 13.73 225.856 11.904 232.187 9.122 237.153 C 6.904 240.6 7.041 243.996 7.945 247.886 C 8.218 249.593 7.86 251.095 6.529 252.272 C 4.191 254.678 3.542 258.45 3.645 261.692 C 4.413 270.054 9.669 269.166 9.942 272.443 C 9.464 275.412 11.938 278.944 15.488 278.501 C 17.57 277.938 17.331 279.695 17.109 281.112 C 18.03 282.323 21.426 283.74 22.416 282.306 C 22.774 281.914 23.03 281.402 23.662 281.385 C 23.986 282.955 24.873 282.92 25.965 282.647 C 32.535 280.548 35.795 273.45 41.938 270.668 Z M 86.307 139.713 C 85.317 158.006 101.17 171.283 115.658 179.593 C 116.067 179.832 115.76 180.173 115.777 180.378 C 116.921 181.129 118.013 181.846 118.934 182.46 C 121.306 182.307 124.224 181.487 125.675 183.842 C 164.088 203.689 227.108 204.474 268.456 192.648 C 287.517 186.795 308.985 178.416 319.514 160.447 C 321.971 132.802 286.084 121.215 264.446 115.686 C 234.292 107.153 202.654 107.392 171.579 106.044 C 168.9 105.942 166.357 106.3 163.815 107.392 C 138.405 119.218 111.46 127.409 86.307 139.713 Z M 144.156 264.422 C 192.364 287.067 310.009 275.412 327.978 216.265 C 327.62 205.481 327.517 194.661 327.312 183.859 C 327.295 183.603 327.329 183.296 326.818 183.245 C 283.968 231.931 207.091 228.962 148.405 219.934 C 149.446 222.067 149.617 224.218 149.344 226.504 C 149.02 228.279 147.433 229.371 146.375 230.822 C 147.876 233.296 147.979 236.197 148.405 238.962 C 149.207 239.218 149.736 238.774 150.299 238.552 C 162.33 231.658 175.897 238.057 185.555 246.163 C 200.231 263.245 187.432 260.617 173.525 258.398 C 170.095 258.142 166.665 258.398 163.235 258.706 C 158.456 258.996 154.002 261.59 149.173 260.822 C 146.869 260.514 144.651 260.02 142.313 259.815 C 142.979 261.487 143.61 263.04 144.156 264.422 Z M 26.682 102.887 C 61.119 93.092 93.388 76.368 127.194 64.508 C 175.555 45.14 224.463 27.273 271.579 5.055 C 211.425 -0.901 65.351 56.727 26.682 102.887 Z M 327.295 152.614 C 327.176 152.597 327.056 152.597 326.92 152.58 C 299.531 217.426 190.897 210.276 134.583 193.535 C 134.805 194.559 135.726 195.225 136.34 196.044 C 139.327 199.354 139.361 202.887 138.081 206.948 C 180.18 226.573 335.128 220.856 327.295 152.614 Z M 293.319 51.454 C 293.149 49.952 292.466 42.921 290.384 45.02 C 289.975 45.566 289.48 45.857 288.9 46.095 C 241.494 65.481 195.009 86.863 146.75 104.082 C 113.969 120.276 79.634 132.358 45.163 144.337 C 43.935 144.781 43.627 145.703 43.798 146.846 C 44.208 155.873 51.375 153.945 57.416 151.197 C 133.781 115.413 213.866 87.478 291.647 54.679 C 292.961 54.218 293.115 52.546 293.319 51.454 Z M 321.391 156.88 C 327.534 145.054 322.108 129.457 312.432 121.266 C 281.647 102.904 245.35 97.239 210.026 96.044 C 204.344 96.027 198.678 95.959 192.996 96.385 C 185.06 98.416 177.45 102 169.822 105.037 C 170.999 105.413 171.903 105.054 172.757 105.242 C 174.634 105.669 176.528 105.481 178.405 105.481 C 193.115 105.054 207.671 106.419 222.296 107.597 C 252.466 109.815 317.193 119.935 321.391 156.88 Z M 328.712 168.621 C 328.592 168.604 328.473 168.586 328.353 168.569 C 296.579 226.76 198.32 222.255 142.091 210.924 C 143.081 213.091 143.354 214.525 143.047 216.846 C 197.057 229.576 294.19 230.685 327.637 178.211 C 328.285 177.563 328.695 176.709 328.712 175.754 C 328.729 173.382 328.712 170.993 328.712 168.621 Z M 92.945 294.849 C 84.515 301.641 87.262 308.654 81.87 315.548 C 80.3 317.596 78.61 319.422 77.126 321.538 C 101.409 325.804 129.788 305.992 124.071 279.559 C 121.716 282.084 119.566 285.054 116.289 286.726 C 115.846 286.999 115.624 287.409 115.573 287.938 C 115.385 290.958 113.542 293.398 110.521 293.774 C 109.498 293.842 108.474 293.859 108.064 294.968 C 106.221 301.914 98.73 299.388 96.648 293.996 C 94.822 295.139 94.822 295.139 92.945 294.849 Z M 116.989 261.743 C 118.832 261.999 116.341 270.463 115.129 271.436 C 113.235 274.047 111.818 276.965 110.624 279.951 C 107.911 287.46 100.76 286.043 97.603 293.023 C 98.491 294.968 99.668 296.914 101.801 297.545 C 107.876 299.525 105.163 292.391 110.573 292.528 C 112.569 292.477 114.088 291.06 114.19 289.064 C 114.515 283.194 125.914 283.979 124.276 268.979 C 123.917 266.47 123.798 263.962 123.986 261.436 C 124.02 260.805 124.139 260.19 123.422 259.764 C 123.218 259.627 123.166 259.149 123.115 258.825 C 122.893 257.357 122.723 255.907 122.484 254.456 C 122.177 253.211 122.654 252.153 123.047 250.975 C 122.467 250.566 122.313 250.429 121.562 250.361 C 121.477 252.579 121.682 254.695 121.085 256.845 C 120.675 258.33 119.839 259.508 118.559 260.361 C 117.228 261.419 116.75 260.293 115.692 259.32 C 114.958 261.675 114.719 263.979 113.166 265.924 C 111.443 268.023 109.583 271.589 106.306 270.071 C 105.521 269.678 105.504 268.842 105.334 268.091 C 104.788 265.719 104.19 263.364 103.559 260.787 C 102.74 261.624 102.126 262.357 101.409 262.989 C 100.777 263.552 100.504 264.2 100.453 265.02 C 100.248 267.733 100.112 270.48 99.549 273.159 C 99.207 275.173 96.818 278.091 95.01 275.651 C 93.593 273.893 93.542 271.794 93.098 269.627 C 91.375 270.344 89.719 271.026 87.979 271.76 C 91.46 275.429 89.873 280.275 90.624 284.729 C 90.624 286.555 91.306 288.688 90.112 290.275 C 91.272 292.05 92.245 293.876 94.856 293.791 C 95.692 293.125 96.631 292.238 97.262 291.333 C 100.641 285.668 107.911 286.351 109.975 279.405 C 111.033 276.419 112.518 273.654 114.446 271.112 C 115.538 269.695 116.238 268.108 116.46 266.316 C 116.648 264.798 116.801 263.262 116.989 261.743 Z M 179.839 251.299 C 175.965 251.197 166.016 246.334 163.217 248.518 C 165.146 249.832 166.938 251.419 168.764 252.886 C 169.002 253.074 169.344 253.33 168.934 253.859 C 166.562 252.136 164.122 250.497 161.699 248.859 C 160.794 248.262 159.805 248.006 158.695 248.125 C 156.255 248.45 154.156 248.211 151.699 249.013 C 153.183 250.02 156.494 251.555 157.023 253.091 C 153.9 251.931 151.665 248.979 148.183 249.678 C 146.255 250.276 143.559 250.054 141.989 251.334 C 139.992 253.637 137.245 253.177 135.743 254.917 C 140.59 258.398 142.842 258.876 148.627 259.661 C 152.603 260.378 156.357 258.808 160.197 258.006 C 164.207 257.17 168.269 257.101 172.347 257.084 C 175.112 256.555 193.303 262.084 190.555 256.334 C 187.04 243.996 167.398 233.484 155.197 237.631 C 152.927 238.586 150.675 239.525 148.354 240.48 C 148.081 243.586 146.357 246.146 144.753 248.689 C 144.6 248.945 144.224 249.166 144.6 249.661 C 152.262 248.364 156.255 245.617 162.074 240.446 C 162.296 240.276 162.569 239.9 162.927 240.293 C 161.255 242.272 158.115 245.003 155.658 246.607 C 155.368 246.794 154.822 246.846 154.992 247.494 C 160.538 247.511 166.323 246.231 171.682 248.125 C 174.531 249.218 177.347 249.269 179.839 251.299 Z M 274.207 6.966 C 273.319 5.72 272.193 6.71 271.203 7.051 C 253.046 14.662 235.197 23.126 216.835 30.191 C 153.9 55.959 87.638 81.078 25.727 105.583 C 52.399 100.293 77.296 87.017 102.859 77.768 C 153.593 59.935 203.576 39.423 252.705 17.683 C 258.814 14.696 265.009 11.881 271.118 8.894 C 272.176 8.382 273.285 7.922 274.207 6.966 Z M 127.108 255.6 C 129.856 261.692 133.286 266.726 134.941 273.33 C 131.494 268.432 129.805 262.869 127.16 257.562 C 127.023 257.272 126.972 256.863 126.392 256.88 C 125.504 257.835 124.89 258.876 124.89 260.344 C 124.907 262.511 124.907 264.678 125.248 266.845 C 125.3 267.187 125.248 267.63 125.453 267.852 C 126.272 268.825 126.067 269.968 126.153 271.06 C 125.419 286.811 139.31 285.89 147.347 295.019 C 147.586 295.31 147.774 295.753 148.388 295.702 C 148.798 293.944 148.337 292.118 147.91 290.395 C 147.057 287.306 146.443 284.115 145.743 280.992 C 144.753 278.091 145.265 274.985 144.839 272.016 C 144.139 268.944 143.32 265.907 142.45 262.869 C 141.511 259.439 137.859 257.613 135.026 255.992 C 132.194 257.426 129.753 254.9 128.439 252.443 C 127.723 253.467 127.552 254.508 127.108 255.6 Z M 112.381 216.743 C 109.31 217.289 109.037 214.61 106.204 215.361 C 98.849 217.238 94.532 216.521 88.405 212.068 C 85.726 210.839 85.078 212.938 82.825 213.399 C 80.897 213.791 79.805 215.02 79.276 216.863 C 78.406 219.303 80.334 219.422 80.317 221.351 C 80.163 223.279 81.016 224.371 82.894 224.798 C 84.02 225.037 84.361 226.265 84.446 227.306 C 84.532 229.405 88.593 232.204 89.754 229.883 C 90.965 227.153 90.982 224.695 92.245 221.863 C 92.33 222.614 92.416 222.87 92.382 223.108 C 92.04 225.395 91.767 227.682 90.999 229.883 C 90.914 230.224 90.624 230.771 91.051 230.992 C 92.279 231.095 91.989 224.525 93.184 223.399 C 93.44 226.197 92.74 228.654 92.467 230.941 C 93.184 231.931 93.44 233.023 94.429 233.552 C 96.443 234.03 97.467 233.842 98.03 231.88 C 98.627 229.849 98.252 227.869 98.559 225.771 C 99.515 226.624 99.088 228.433 99.173 229.542 C 99.242 230.873 98.747 231.948 98.713 233.262 C 105.044 232.733 104.634 231.897 107.126 226.521 C 107.245 226.265 107.364 226.009 107.825 226.265 C 107.552 227.221 107.262 228.211 106.989 229.166 C 108.115 231.641 110.436 230.037 111.921 231.453 C 113.252 232.904 114.992 232.801 116.87 232.801 C 115.334 227.204 117.245 221.112 112.381 216.743 Z M 85.044 258.979 C 81.307 262.852 83.235 263.842 82.962 268.245 C 82.672 270.002 84.634 270.753 86.119 270.787 C 92.484 270.429 97.194 264.883 101.989 261.231 C 103.491 259.951 103.764 260.241 104.225 257.852 C 105.999 254.03 105.863 249.644 106.562 245.583 C 106.477 244.508 105.897 243.484 105.556 242.426 C 104.617 239.491 103.849 236.129 100.914 234.542 C 99.685 235.429 99.037 236.607 98.44 237.767 C 97.211 240.344 94.463 241.402 92.347 243.074 C 88.747 245.617 91.255 245.873 86.631 248.996 C 86.289 250.003 86.511 250.958 86.767 251.914 C 87.894 256.078 82.808 254.269 85.044 258.979 Z M 120.999 225.259 C 120.658 226.624 121.085 227.426 122.057 228.279 C 128.201 233.16 129.651 241.76 128.695 249.2 C 128.337 251.846 130.044 253.689 131.989 255.054 C 134.122 256.845 134.378 253.45 137.381 252.716 C 142.194 251.026 145.572 246.76 146.938 241.999 C 147.433 240.753 146.426 240.89 146.648 240.122 C 148.013 238.74 146.528 234.542 146.136 232.835 C 144.378 228.74 140.317 229.866 137.535 226.931 C 136.05 225.515 134.31 225.02 132.313 225.242 C 128.542 225.702 124.771 225.19 120.999 225.259 Z M 28.474 282.955 C 23.252 283.501 21.221 288.142 19.566 292.426 C 18.542 294.746 20.471 296.794 20.983 298.996 C 21.494 300.992 23.15 302.016 24.959 302.682 C 27.774 303.586 28.099 305.651 30.334 306.589 C 33.474 307.664 37.16 308.757 40.368 307.391 C 50.112 303.296 42.638 297.903 49.293 286.999 C 45.744 285.941 42.962 289.166 39.532 289.217 C 34.89 289.371 28.201 289.286 28.474 282.955 Z M 149.344 291.095 C 149.634 293.193 149.549 295.054 149.6 297.118 C 149.668 298.125 148.781 298.381 148.098 297.716 C 142.125 288.961 128.388 288.194 125.248 277.153 C 124.907 286.214 128.695 296.675 137.603 300.617 C 141.05 302.135 144.207 304.439 147.944 305.19 C 150.351 305.668 152.757 306.129 155.18 306.504 C 159.054 307.05 163.064 306.76 166.716 308.415 C 167.62 308.757 168.559 309.064 169.497 309.337 C 169.787 309.422 170.163 309.61 170.385 309.149 C 165.845 300.412 158.866 294.507 149.344 291.095 Z M 172.023 311.402 C 171.374 311.077 171.153 310.873 170.897 310.838 C 168.286 310.412 165.948 308.893 163.217 308.893 C 162.108 308.074 160.811 308.313 159.583 308.21 C 155.863 308.006 152.211 307.374 148.576 306.623 C 144.327 305.992 140.863 303.381 137.04 301.692 C 135.624 301.026 134.327 300.224 133.149 299.217 C 131.34 297.647 129.668 295.958 128.388 293.91 C 128.183 293.586 128.081 293.091 127.484 293.074 C 128.542 301.589 131.17 311.504 140.026 314.832 C 147.586 318.21 155.231 319.354 162.398 314.354 C 165.521 312.562 168.405 312.084 172.023 311.402 Z M 106.562 179.559 C 96.818 173.023 88.354 164.354 83.713 153.706 C 82.876 161.317 82.689 168.945 81.614 176.539 C 83.44 176.505 85.129 175.856 86.648 176.931 C 87.842 177.682 87.706 179.457 86.938 180.481 C 85.3 183.04 83.696 185.617 80.982 187.136 C 80.061 187.733 79.617 188.484 79.446 189.508 C 79.173 191.266 78.798 192.614 78.627 194.44 C 80.368 193.16 81.255 191.522 83.423 191.01 C 83.713 190.958 83.986 190.634 84.225 190.378 C 87.04 187.051 90.146 183.808 94.737 183.211 C 98.832 182.665 102.45 180.771 106.562 179.559 Z M 75.3 203.501 C 79.668 201.829 81.733 204.03 85.539 205.6 C 87.825 206.658 90.402 205.634 92.808 205.668 C 96.187 205.788 98.047 202.853 100.351 200.822 C 102.842 200.532 105.163 199.661 107.211 198.143 C 106.238 186.436 84.481 187.545 79.105 195.515 C 78.184 196.658 77.347 197.87 76.102 198.723 C 75.453 199.354 74.668 200.225 75.351 201.18 C 79.054 196.487 84.668 197.221 89.873 198.535 C 85.777 199.371 81.511 196.914 78.013 199.883 C 81.989 199.167 84.429 199.934 86.46 202.494 C 85.283 202.272 84.532 201.692 83.525 201.163 C 81.375 199.559 75.641 200.566 75.3 203.501 Z M 133.252 191.078 C 132.62 189.815 131.818 189.423 130.88 188.569 C 128.695 186.487 127.467 189.252 125.214 189.047 C 125.863 184.542 124.037 182.085 119.378 183.296 C 118.883 183.979 118.439 184.593 117.945 185.293 C 119.668 186.061 121.067 186.931 122.33 188.313 C 124.395 190.378 123.798 193.689 120.538 193.774 C 121.341 198.057 121.818 199.098 116.955 199.201 C 116.938 199.713 117.586 199.764 117.979 199.952 C 123.713 201.419 128.047 205.532 132.552 209.132 C 135.607 208.177 138.269 206.265 138.03 202.801 C 137.996 200.634 137.535 198.364 135.965 196.777 C 134.753 195.566 133.747 194.269 133.32 192.75 C 132.569 192.17 130.47 191.812 131.426 190.719 C 132.091 190.941 132.398 190.975 133.252 191.078 Z M 35.044 217.767 C 19.925 214.9 20.709 225.276 17.672 236.385 C 17.211 238.347 16.631 240.395 17.382 242.375 C 18.064 243.962 17.245 245.719 17.57 247.357 C 17.86 249.03 19.191 249.61 20.727 248.91 C 24.498 247.204 22.808 238.279 26.17 234.132 C 27.535 231.658 28.303 230.839 25.914 228.706 C 25.18 227.75 25.283 226.982 26.341 226.487 C 31.307 224.422 31.085 219.815 35.044 217.767 Z M 62.689 217.102 C 63.32 216.521 63.423 216.044 63.098 215.463 C 61.546 212.767 60.419 210.429 58.679 207.75 C 64.156 210.788 62.279 220.532 67.928 213.262 C 67.757 210.327 67.04 207.494 66.051 204.747 C 65.317 203.006 65.522 201.317 66.324 199.678 C 66.921 198.518 67.484 197.648 68.03 196.419 C 61.068 193.62 65.078 196.368 55.795 198.399 C 55.812 213.057 54.634 206.317 62.689 217.102 Z M 112.16 238.689 C 112.023 238.654 111.87 238.603 111.716 238.569 C 105.214 245.19 108.388 250.549 105.521 257.613 C 104.856 258.927 104.634 260.395 104.975 261.897 C 105.487 264.081 106.375 266.163 106.528 268.432 C 106.955 270.002 109.259 269.098 110.044 268.228 C 112.484 266.043 114.276 263.433 114.856 260.105 C 117.108 254.456 108.644 255.839 112.16 238.689 Z M 86.375 189.354 C 91.306 188.638 96.05 188.552 100.897 189.815 C 102.74 190.566 111.068 190.788 112.006 188.979 C 111.938 188.194 110.641 188.074 111.085 186.948 C 111.767 186.812 112.518 186.624 113.269 186.504 C 116.067 185.907 121.016 183.126 115.777 181.47 C 108.115 178.313 100.999 183.126 93.559 184.423 C 91.136 184.9 87.791 187.375 86.375 189.354 Z M 119.975 197.955 C 120.846 195.566 119.088 194.184 117.808 192.494 C 118.951 191.931 119.651 192.17 120.743 192.46 C 121.938 192.699 122.842 191.829 122.535 190.651 C 121.767 188.296 119.088 186.607 116.887 186.197 C 115.283 186.76 113.9 187.238 112.552 187.716 C 113.03 189.542 112.876 189.849 111.255 190.395 C 109.378 191.01 107.416 191.231 105.453 191.163 C 105.146 191.163 104.736 191.01 104.634 191.59 C 106.648 192.938 109.702 197.238 107.211 199.269 C 106.87 199.491 106.614 199.798 106.153 200.242 C 107.552 200.31 109.344 201.163 110.197 200.02 C 111.153 197.784 117.569 198.842 119.975 197.955 Z M 124.173 257.818 C 130.402 250.293 128.832 235.617 121.835 229.013 C 121.596 228.757 121.306 228.535 120.846 228.859 C 120.453 230.702 120.282 232.665 119.378 234.457 C 123.047 239.849 119.771 250.003 123.457 249.934 C 123.73 249.252 123.883 248.723 124.003 248.057 C 124.088 247.767 123.917 247.34 124.668 247.204 C 124.924 251.197 122.689 251.999 123.508 254.695 C 123.815 255.617 123.917 256.607 124.173 257.818 Z M 112.211 179.61 C 112.228 179.508 112.262 179.388 112.279 179.286 C 98.542 170.805 84.498 157.972 84.89 140.532 C 83.303 140.788 83.252 140.822 83.201 141.914 C 82.842 157.972 95.351 170.651 107.962 178.842 C 109.207 179.661 110.777 179.491 112.211 179.61 Z M 120.777 224.559 C 124.361 224.73 128.525 225.242 130.504 221.607 C 131.17 220.139 132.16 218.757 131.955 217.067 C 127.842 216.76 123.781 216.709 119.958 215.173 C 119.446 215.429 119.003 215.651 118.576 215.873 C 118.184 216.061 117.637 215.822 117.194 216.3 C 119.463 218.586 119.805 221.607 120.777 224.559 Z M 114.839 234.149 C 115.931 238.125 115.675 242.17 115.607 246.282 C 115.931 251.504 119.224 251.112 118.644 258.552 C 120.146 257.835 120.129 256.026 120.436 254.627 C 120.948 252.46 119.634 253.125 119.873 251.743 C 120.948 245.788 119.805 239.764 117.347 234.303 C 116.528 234.201 115.726 233.945 114.839 234.149 Z M 112.74 233.672 C 113.849 240.003 110.504 246.863 113.678 252.784 C 114.941 254.712 116.102 256.692 117.057 258.791 C 117.074 258.825 117.177 258.842 117.364 258.927 C 119.003 253.962 114.156 249.985 114.685 245.088 C 114.583 243.125 115.812 233.023 112.74 233.672 Z M 106.767 243.637 C 108.303 241.061 110.18 238.996 112.228 237.016 C 112.433 230.532 111.119 232.716 106.528 230.549 C 106.255 233.381 105.931 240.037 106.767 243.637 Z M 64.549 231.982 C 63.781 231.453 63.201 231.197 62.45 231.521 C 59.225 232.904 56.972 235.054 56.528 238.757 C 57.143 239.644 57.74 240.583 58.918 241.129 C 61.409 239.644 63.73 237.972 64.89 235.156 C 64.771 234.081 64.668 233.057 64.549 231.982 Z M 80.573 213.296 C 86.272 211.743 83.235 210.378 82.672 206.368 C 82.006 204.184 77.16 203.45 75.266 204.201 C 74.924 205.719 74.617 206.914 74.139 208.33 C 75.487 208.416 75.487 208.416 76.324 209.32 C 80.027 207.835 81.289 209.61 80.573 213.296 Z M 118.781 233.074 C 121.016 228.143 119.515 217.392 114.02 215.105 C 113.695 215.48 113.44 215.788 113.149 216.146 C 117.655 220.685 116.443 226.607 117.501 232.375 C 117.603 233.04 117.689 233.057 118.781 233.074 Z M 99.344 264.764 C 97.586 266.078 95.999 267.63 94.207 268.859 C 93.781 272.272 96.665 279.661 98.713 272.699 C 99.037 270.156 99.276 267.596 99.532 265.037 C 99.549 264.985 99.463 264.934 99.344 264.764 Z M 63.713 224.695 C 64.293 224.678 64.361 225.19 64.566 225.497 C 65.59 227.119 68.115 227.187 68.798 225.224 C 68.576 223.552 68.286 221.197 66.051 221.385 C 64.805 221.265 64.481 222.426 63.918 223.296 C 62.859 222.801 61.46 221.641 60.607 222.972 C 61.221 224.457 61.221 224.457 62.569 225.293 C 62.672 225.344 62.825 225.327 62.962 225.344 C 63.218 225.122 63.474 224.9 63.713 224.695 Z M 56.801 225.02 C 56.034 229.115 60.436 229.235 63.303 229.218 C 62.092 226.999 61.46 224.61 58.713 224.098 C 58.047 224.422 57.501 224.695 56.801 225.02 Z M 55.266 232.545 C 54.31 232.255 53.61 232.614 52.877 232.835 C 51.443 233.16 51.75 234.781 51.921 235.856 C 52.194 237.067 54.378 237.835 55.385 237.084 C 56.119 236.402 56.238 235.19 56.614 234.337 C 56.136 233.706 55.726 233.143 55.266 232.545 Z M 82.603 236.47 C 85.948 237.375 85.283 236.863 86.989 234.303 C 85.863 233.996 86.75 233.262 86.682 232.648 C 83.457 231.47 80.812 232.784 82.603 236.47 Z M 74.446 229.337 C 74.412 226.624 70.795 227.443 69.173 228.125 C 68.798 228.245 68.713 228.62 68.764 228.979 C 68.952 231.504 74.412 232.153 74.446 229.337 Z M 70.539 232.392 C 67.518 238.723 75.88 237.358 73.935 232.05 C 72.877 232.153 71.784 232.255 70.539 232.392 Z M 64.088 244.32 C 63.047 245.566 61.511 248.706 62.621 249.729 C 63.184 250.02 63.303 249.252 63.696 249.03 C 64.242 249.081 64.771 249.149 65.419 249.218 C 65.999 247.306 66.58 245.907 67.552 244.132 C 66.631 243.945 66.58 244.371 65.948 244.781 C 65.573 244.934 65.146 244.917 64.856 245.293 C 64.685 245.514 64.72 246.061 64.173 245.839 C 64.139 245.429 64.122 245.037 64.088 244.32 Z M 71.051 244.013 C 73.713 246.248 75.829 240.736 73.832 239.183 C 73.218 240.02 73.252 241.044 72.791 242.136 C 72.109 240.839 73.269 239.951 72.979 239.03 C 72.433 238.723 71.921 238.62 71.699 239.235 C 71.17 240.753 70.624 242.272 71.051 244.013 Z M 79.395 240.583 C 79.259 240.105 79.173 239.627 78.952 239.201 C 78.388 238.125 76.426 238.074 76.221 239.491 C 76.221 240.702 75.368 243.313 77.211 243.416 C 78.9 243.62 79.054 241.811 79.395 240.583 Z M 69.071 223.279 C 69.156 223.91 69.191 224.405 69.31 224.866 C 69.6 226.18 71.511 226.538 72.313 225.463 C 72.962 224.644 73.184 223.706 73.098 222.699 C 72.808 221.436 70.965 221.88 70.078 221.982 C 69.72 222.443 69.429 222.835 69.071 223.279 Z M 74.907 237.477 C 79.225 236.829 79.395 235.48 78.406 232.869 C 77.586 232.477 76.716 232.443 75.778 232.989 C 75.556 234.405 74.378 235.685 74.907 237.477 Z M 83.9 241.299 C 82.672 239.9 81.784 239.337 80.044 238.927 C 80.078 239.764 80.044 240.6 80.18 241.402 C 80.453 242.613 82.245 243.996 83.423 243.057 C 83.576 242.494 83.747 241.897 83.9 241.299 Z M 79.344 229.866 C 79.6 227.119 75.436 226.914 75.709 228.945 C 76.068 229.781 76.17 231.231 77.194 231.521 C 78.303 231.811 79.31 231.009 79.344 229.866 Z M 70.965 237.426 C 69.208 238.552 68.474 239.525 67.382 241.078 C 65.863 244.968 70.88 243.245 70.965 237.426 Z M 68.184 235.856 C 65.88 236.248 64.481 237.477 64.122 239.337 C 63.952 241.726 68.303 239.235 68.184 235.856 Z M 82.638 231.914 C 84.327 230.429 84.327 230.088 82.74 228.774 C 82.245 228.996 81.051 230.224 80.726 229.252 C 83.235 227.358 80.59 226.624 80.112 228.006 C 80.231 228.825 80.368 229.644 80.504 230.48 C 81.187 230.941 81.87 231.402 82.638 231.914 Z M 67.006 234.525 C 69.327 234.815 69.924 231.709 67.45 231.521 C 65.112 231.368 64.088 234.542 67.006 234.525 Z M 81.818 251.436 C 82.347 249.388 79.634 246.146 78.406 245.071 C 78.781 246.846 80.368 250.514 81.818 251.436 Z M 64.532 226.214 C 63.115 226.59 65.027 228.467 65.317 229.252 C 64.941 229.542 63.952 229.951 64.361 230.549 C 64.549 230.788 64.958 231.009 65.231 230.975 C 67.074 230.805 69.412 229.815 66.119 229.252 C 65.385 228.228 65.3 227.033 64.532 226.214 Z M 79.122 226.624 C 80.044 223.603 75.675 223.552 75.829 226.624 C 76.904 226.624 77.962 226.624 79.122 226.624 Z M 67.757 220.139 C 67.194 219.201 66.853 218.603 66.477 218.04 C 66.051 217.221 63.713 215.924 63.918 217.665 C 64.839 219.03 65.863 220.378 67.757 220.139 Z M 79.481 212.409 C 80.539 210.429 78.73 208.859 76.972 210.071 C 77.74 211.061 77.74 211.061 78.013 212.699 C 78.525 212.597 79.037 212.494 79.481 212.409 Z M 104.89 232.887 C 103.951 233.313 103.167 233.672 102.33 234.064 C 103.371 235.224 104.31 236.282 105.419 237.511 C 105.095 235.702 104.992 234.695 104.89 232.887 Z M 47.04 251.948 C 48.235 252.869 50.163 251.692 50.368 250.412 C 50.436 250.054 50.163 249.695 49.822 249.678 C 48.286 249.593 47.604 250.139 47.04 251.948 Z M 80.47 243.723 C 81.238 245.31 82.296 246.624 83.679 247.682 C 84.054 247.904 84.498 247.477 84.344 247.102 C 83.508 245.497 82.126 244.491 80.47 243.723 Z M 82.859 248.245 C 82.399 249.269 82.569 250.071 82.808 251.078 C 82.979 251.965 82.979 251.965 84.276 252.05 C 84.924 250.702 84.549 248.825 82.859 248.245 Z M 72.382 218.655 C 73.474 218.33 74.105 217.972 74.293 217.119 C 74.515 216.18 74.754 215.259 73.986 214.235 C 73.662 214.661 73.303 214.934 73.201 215.293 C 72.894 216.334 72.467 217.358 72.382 218.655 Z M 73.713 212.887 C 74.378 212.87 74.395 212.153 74.754 211.812 C 75.59 211.009 75.573 210.156 74.958 209.235 C 72.177 209.166 73.61 211.078 73.713 212.887 Z M 77.569 250.327 C 77.672 248.108 77.33 246.897 76.068 244.73 C 75.812 246.692 75.897 248.979 77.569 250.327 Z M 68.798 219.832 C 70.385 217.972 67.313 214.73 66.58 216.538 C 67.296 217.614 67.996 218.637 68.798 219.832 Z M 74.566 244.849 C 74.378 246.248 73.474 247.904 73.952 249.269 C 74.156 249.678 74.481 249.917 74.941 249.542 C 75.402 246.555 75.334 245.634 74.566 244.849 Z M 94.907 234.559 C 94.924 235.856 95.487 236.709 95.607 237.887 C 95.607 238.774 94.549 238.876 94.122 239.474 C 93.952 239.73 93.44 240.088 94.054 240.446 C 97.109 238.91 96.255 237.033 95.504 234.695 C 95.487 234.627 95.248 234.644 94.907 234.559 Z M 79.873 254.815 C 79.481 256.197 81.801 258.33 82.535 256.453 C 82.177 255.207 81.477 254.422 79.873 254.815 Z M 71.324 219.013 C 71.375 217.989 71.648 215.122 70.829 214.576 C 70.163 215.651 70.061 216.487 70.368 218.16 C 70.436 218.569 70.505 218.996 71.324 219.013 Z M 52.433 251.061 C 54.412 250.48 55.18 249.661 55.214 248.16 C 53.371 248.484 52.791 249.047 52.433 251.061 Z M 73.849 250.293 C 72.859 251.692 72.023 253.723 72.023 254.627 C 72.023 254.832 72.296 255.037 72.535 255.344 C 73.593 253.859 73.781 252.306 73.849 250.293 Z M 58.713 255.378 C 57.279 256.18 56.528 257.067 55.982 258.108 C 55.743 258.706 56.375 258.876 56.767 258.706 C 57.842 258.057 58.389 257.067 58.713 255.378 Z M 91.784 235.31 C 92.552 234.832 93.525 234.593 93.201 233.62 C 92.672 231.709 91.392 232.153 91.051 233.876 C 91.255 234.286 91.46 234.695 91.784 235.31 Z M 90.351 234.644 C 88.952 233.945 85.692 236.044 87.808 236.436 C 88.696 236.214 90.334 235.77 90.351 234.644 Z M 89.685 238.279 C 88.047 237.34 87.706 237.34 85.112 238.177 C 86.597 239.047 87.945 238.723 89.685 238.279 Z M 49.668 241.487 C 50.863 241.743 51.87 241.828 52.604 240.805 C 52.808 240.515 52.979 240.207 52.552 239.866 C 52.04 240.088 51.58 240.446 50.863 240.224 C 50.266 240.037 49.685 240.48 49.668 241.487 Z M 46.17 239.644 C 47.228 240.446 47.928 240.532 48.645 239.985 C 48.952 239.815 48.969 239.303 48.798 239.081 C 47.877 238.381 46.767 238.706 46.17 239.644 Z M 74.464 219.474 C 75.504 218.842 78.115 216.743 76.972 215.924 C 75.47 216.794 75.436 216.829 74.464 219.474 Z M 69.907 250.395 C 69.156 251.163 69.361 252.426 70.283 252.716 C 70.846 252.852 71.682 251.317 71.187 250.412 C 70.726 250.395 70.095 250.173 69.907 250.395 Z M 46.085 242.972 C 47.245 243.45 48.969 243.381 49.139 242.084 C 48.627 240.958 46.528 241.743 46.085 242.972 Z M 79.651 250.361 C 79.412 250.907 79.088 251.299 79.156 251.607 C 79.344 252.46 79.719 253.262 80.76 253.706 C 81.102 252.392 80.709 251.47 79.651 250.361 Z M 74.873 257.238 C 74.276 258.825 74.139 260.002 74.975 261.282 C 75.675 259.712 75.675 259.422 74.873 257.238 Z M 79.276 237.699 C 80.01 237.528 80.624 237.784 80.965 237.255 C 81.255 236.317 81.289 235.429 80.504 234.695 C 80.027 234.764 79.668 236.811 79.276 237.699 Z M 69.481 210.549 C 68.457 212.477 68.559 213.108 70.044 213.723 C 70.351 212.579 70.368 211.539 69.481 210.549 Z M 90.01 242.323 C 89.276 242.323 88.525 242.323 87.569 242.323 C 87.962 242.989 88.252 243.501 88.508 243.962 C 90.351 243.467 90.351 243.467 90.01 242.323 Z M 58.184 222.682 C 58.576 221.863 57.023 220.344 56.29 221.163 C 55.692 222.375 57.245 223.996 58.184 222.682 Z M 78.252 254.661 C 78.32 253.825 77.825 252.153 76.801 252.323 C 75.863 252.733 77.433 256.078 78.252 254.661 Z M 48.371 229.303 C 49.395 230.497 50.18 230.549 51.494 229.576 C 50.59 228.876 49.566 228.808 48.371 229.303 Z M 90.658 232.887 C 90.436 231.931 89.105 231.521 88.525 232.358 C 87.945 233.842 89.975 234.081 90.658 232.887 Z M 74.634 222.904 C 76.341 220.839 76.426 220.6 76.068 219.235 C 75.249 220.242 74.481 221.146 74.634 222.904 Z M 89.173 241.317 C 88.132 240.276 87.911 240.224 85.863 240.515 C 86.938 241.402 87.723 241.59 89.173 241.317 Z M 53.098 231.061 C 54.498 231.061 55.522 231.078 56.546 231.044 C 57.023 231.026 57.433 230.856 57.552 230.156 C 56.068 230.139 54.737 230.276 53.098 231.061 Z M 84.924 239.422 C 84.071 238.603 83.491 238.006 82.859 237.494 C 82.262 237.17 81.545 237.835 82.006 238.45 C 82.74 239.064 83.508 239.644 84.924 239.422 Z M 61.085 250.839 C 60.931 250.617 60.607 250.446 60.402 250.634 C 60.197 251.197 58.662 252.972 59.634 253.262 C 60.692 253.16 60.999 251.726 61.085 250.839 Z M 81.102 233.501 C 82.501 232.665 81.051 231.897 80.078 231.743 C 78.866 232.17 80.112 233.552 81.102 233.501 Z M 68.201 248.074 C 66.75 248.91 66.443 249.388 66.682 250.429 C 68.081 249.832 68.269 249.542 68.201 248.074 Z M 59.31 230.259 C 58.866 230.788 57.757 231.146 58.081 231.914 C 58.184 232.05 58.474 232.187 58.61 232.136 C 59.191 231.829 60.112 231.743 60.283 231.009 C 60.01 230.788 59.703 230.549 59.31 230.259 Z M 75.436 254.917 C 75.487 253.091 75.692 252.34 75.504 250.873 C 74.737 252.562 74.685 253.33 75.436 254.917 Z M 81.853 252.801 C 82.194 253.791 82.706 254.422 83.9 254.542 C 83.9 254.183 84.02 253.774 83.883 253.586 C 83.405 252.989 82.825 252.494 81.853 252.801 Z M 55.488 227.34 C 55.573 227.05 55.709 226.777 55.658 226.726 C 54.839 225.958 53.866 225.719 52.689 225.975 C 53.167 226.658 54.651 226.897 55.488 227.34 Z M 57.842 250.361 C 56.511 250.873 55.846 251.555 55.317 252.579 C 56.87 252.409 57.006 252.289 57.842 250.361 Z M 80.18 267.426 C 80.317 265.907 80.317 264.832 79.088 264.064 C 78.9 265.805 78.9 265.805 80.18 267.426 Z M 61.511 243.091 C 60.112 243.876 59.566 244.815 59.651 246.47 C 60.334 245.19 61.204 244.371 61.511 243.091 Z M 67.143 247.34 C 68.474 246.146 68.474 246.146 68.917 244.183 C 67.808 245.054 67.655 245.31 67.143 247.34 Z M 73.406 245.361 C 71.887 245.634 72.023 246.47 72.638 248.057 C 73.218 247.323 73.286 246.521 73.406 245.361 Z M 58.559 242.033 C 57.604 242.136 56.426 242.119 56.648 243.347 C 57.04 244.149 58.679 243.142 58.559 242.033 Z M 86.187 244.712 C 86.204 245.497 85.965 246.419 86.921 246.419 C 87.501 246.402 87.962 246.078 87.996 245.651 C 87.928 244.764 86.955 245.003 86.187 244.712 Z M 80.829 262.204 C 81.272 261.368 80.726 260.839 80.368 260.293 C 80.129 259.934 80.044 259.32 79.242 259.542 C 79.378 260.668 79.873 261.538 80.829 262.204 Z M 69.941 248.313 C 70.402 247.716 71.477 244.849 70.231 245.497 C 70.061 246.282 69.566 247.067 69.941 248.313 Z M 78.252 221.317 C 77.399 221.812 76.392 222.17 75.88 223.518 C 77.057 222.887 77.842 222.306 78.252 221.317 Z M 85.061 242.375 C 85.948 243.586 85.948 243.586 87.211 243.791 C 86.528 242.648 86.528 242.648 85.061 242.375 Z M 50.385 239.03 C 51.324 239.32 51.989 239.252 52.672 238.484 C 52.194 238.262 51.836 238.091 51.409 237.887 C 51.068 238.262 50.761 238.586 50.385 239.03 Z M 88.866 239.576 C 89.89 240.259 90.266 240.293 90.658 239.695 C 90.76 239.542 90.777 239.269 90.709 239.098 C 90.163 238.654 89.498 239.388 88.866 239.576 Z M 78.457 263.125 C 78.474 261.743 78.286 260.941 77.399 260.258 C 77.228 261.351 77.603 262.084 78.457 263.125 Z M 91.955 242.102 C 92.296 241.624 92.603 241.334 92.689 240.992 C 92.433 239.764 90.197 240.446 91.955 242.102 Z M 97.177 236.453 C 98.986 235.378 97.45 233.808 96.955 234.883 C 96.972 235.344 97.074 235.822 97.177 236.453 Z M 92.211 237.989 C 91.682 238.501 91.648 238.569 91.767 238.774 C 92.109 239.286 92.382 239.371 93.132 239.081 C 92.808 238.706 92.501 238.347 92.211 237.989 Z M 52.996 227.75 C 53.576 228.842 54.191 229.132 55.197 228.808 C 54.703 228.074 54.088 227.852 52.996 227.75 Z M 77.518 258.177 C 77.518 257.409 77.706 256.572 76.699 256.009 C 76.511 256.999 76.784 257.665 77.518 258.177 Z M 72.296 212.358 C 72.296 213.091 72.296 213.825 72.296 214.644 C 72.979 213.945 72.979 213.945 72.296 212.358 Z M 137.774 207.955 C 139.327 208.62 139.327 208.62 140.163 208.399 C 139.463 207.784 138.764 207.733 137.774 207.955 Z M 89.958 236.436 C 89.89 236.573 89.822 236.709 89.771 236.846 C 90.3 237.409 91.17 238.177 91.58 237.067 C 91.614 236.965 91.528 236.829 91.477 236.607 C 90.982 236.555 90.47 236.504 89.958 236.436 Z M 93.405 236.931 C 93.627 236.555 93.883 236.214 94.088 235.822 C 94.105 235.788 93.832 235.48 93.713 235.48 C 92.945 235.549 92.535 236.624 93.405 236.931 Z M 114.941 212.989 C 114.805 213.006 114.651 213.023 114.515 213.023 C 114.31 213.637 114.293 215.054 115.317 214.337 C 115.197 213.893 115.061 213.433 114.941 212.989 Z M 50.692 236.368 C 49.498 236.044 49.498 236.061 48.73 236.624 C 49.122 237.494 50.146 236.794 50.692 236.368 Z M 50.419 246.914 C 51.238 247.238 51.784 247.323 52.279 246.641 C 51.392 246.487 51.392 246.487 50.419 246.914 Z M 55.01 246.743 C 54.31 246.521 53.713 246.538 53.44 247.562 C 54.122 247.204 54.566 246.965 55.01 246.743 Z M 126.784 187.58 C 127.279 187.648 127.586 187.477 127.62 186.931 C 127.399 186.709 127.16 186.487 126.784 186.146 C 126.784 186.726 126.784 187.153 126.784 187.58 Z M 81.477 225.771 C 80.846 225.344 80.112 225.122 80.3 226.009 C 80.675 226.641 80.948 226.163 81.477 225.771 Z M 60.999 241.88 C 61.324 241.573 61.597 241.334 61.955 241.044 C 60.897 240.856 60.897 240.856 60.999 241.88 Z M 63.03 241.743 C 63.115 241.811 63.201 241.88 63.286 241.931 C 63.662 241.658 64.071 241.47 63.849 240.941 C 63.303 240.924 63.184 241.317 63.03 241.743 Z M 53.406 229.678 C 53.303 229.354 52.86 229.474 52.586 229.354 C 52.569 229.61 52.535 229.866 52.518 230.122 C 52.877 230.054 53.286 230.139 53.406 229.678 Z M 69.139 215.327 C 69.139 214.815 68.832 214.764 68.559 214.44 C 68.44 214.576 68.303 214.73 68.167 214.866 C 68.525 215.088 68.644 215.395 69.139 215.327 Z M 76.443 261.931 C 76.853 261.555 76.597 261.419 76.375 261.078 C 75.999 261.47 76.068 261.59 76.443 261.931 Z M 73.883 262.852 C 73.781 262.835 73.679 262.818 73.576 262.801 C 73.61 263.177 73.388 263.637 73.644 263.927 C 73.952 263.706 73.781 263.194 73.883 262.852 Z M 50.607 235.173 C 50.556 234.934 50.539 234.815 50.522 234.695 C 50.232 234.798 49.907 234.798 49.89 235.173 C 50.129 235.173 50.351 235.173 50.607 235.173 Z M 94.532 237.887 C 94.412 237.733 94.344 237.648 94.276 237.545 C 94.139 237.665 94.003 237.784 93.849 237.904 C 94.071 238.33 94.242 238.04 94.532 237.887 Z M 61.767 230.651 C 61.716 230.532 61.682 230.429 61.631 230.31 C 61.392 230.378 61.17 230.446 60.931 230.497 C 60.982 230.634 61.016 230.753 61.051 230.873 C 61.29 230.805 61.528 230.719 61.767 230.651 Z M 76.75 259.183 C 76.716 259.149 76.665 259.098 76.614 259.064 C 76.563 259.235 76.409 259.371 76.614 259.491 C 76.665 259.388 76.716 259.286 76.75 259.183 Z M 78.337 259.627 C 78.576 259.508 78.406 259.354 78.337 259.183 C 78.132 259.303 78.286 259.456 78.337 259.627 Z M 55.607 239.542 C 55.47 239.559 55.453 239.644 55.453 239.764 C 55.522 239.747 55.607 239.73 55.692 239.712 C 55.658 239.661 55.641 239.61 55.607 239.542 Z M 65.317 250.378 L 65.197 250.378 L 65.249 250.497 L 65.317 250.378 Z M 74.702 225.378 C 74.566 225.395 74.498 225.412 74.566 225.566 C 74.685 225.532 74.771 225.515 74.702 225.378 Z M 56.563 229.047 C 56.511 228.928 56.46 228.825 56.409 228.706 C 56.136 228.825 56.341 228.996 56.409 229.166 C 56.46 229.132 56.511 229.081 56.563 229.047 Z M 63.303 243.62 C 63.269 243.569 63.235 243.518 63.184 243.467 C 62.979 243.62 63.115 243.689 63.235 243.808 C 63.269 243.757 63.286 243.689 63.303 243.62 Z M 77.842 217.699 L 77.911 217.852 L 77.962 217.682 L 77.842 217.699 Z M 77.842 217.699" fill-opacity="1" fill-rule="nonzero" style=""/>
  <path fill="#545454" d="M 195.112 130.447 C 205.521 90.361 291.937 129.047 262.517 164.064 C 271.22 162.085 280.265 160.856 289.156 161.914 C 280.879 162.75 272.432 162.528 264.309 164.542 C 251.886 169.098 239.292 171.249 226.545 166.436 C 222.501 174.883 216.681 178.842 207.33 179.798 C 189.122 181.76 165.521 181.487 153.832 165.173 C 153.337 160.566 153.115 155.924 153.371 151.317 C 154.992 133.843 181.443 132.068 195.112 130.447 Z M 265.043 138.996 C 264.992 138.894 264.924 138.791 264.872 138.689 C 265.487 139.32 265.623 140.139 265.76 140.976 C 267.586 145.686 268.251 150.805 264.173 154.61 C 258.49 160.395 239.19 157.085 232.159 154.184 C 226.204 152.494 221.443 148.433 216.425 145.02 C 214.804 143.877 213.422 142.477 212.159 140.959 C 207.432 135.395 201.221 125.754 204.583 118.484 C 203.217 118.433 202.808 122.682 202.774 123.706 C 203.149 141.146 221.084 153.177 236.272 157.802 C 244.565 159.781 263.627 161.539 267.057 151.59 C 268.661 147.477 267.5 142.392 265.043 138.996 Z M 253.302 126.249 C 253.405 126.624 253.644 126.812 254.378 126.709 C 253.814 126.488 253.541 126.385 253.268 126.283 C 253.064 125.703 252.654 125.413 252.04 125.43 C 242.108 117.631 227.961 113.501 215.265 114.593 C 224.855 114.952 234.326 116.778 243.081 120.925 C 245.504 122.017 247.808 123.365 250.163 124.576 C 250.777 124.901 251.272 125.481 252.057 125.395 C 252.262 125.993 252.739 126.18 253.302 126.249 Z M 228.61 151.726 C 238.32 155.72 249.07 158.262 259.514 155.873 C 261.767 155.634 261.715 153.86 261.528 152.034 C 258.217 137.204 236.971 128.774 223.61 125.617 C 218.115 124.32 212.228 124.32 206.733 125.72 C 203.985 126.3 206.357 129.593 206.681 131.163 C 216.152 134.184 229.48 139.849 228.61 151.726 Z M 154.617 153.996 C 154.463 154.201 154.31 154.303 154.31 154.406 C 154.361 157.767 154.412 161.146 154.446 164.508 C 154.463 165.105 154.719 165.6 155.112 165.993 C 167.586 179.354 187.449 180.481 204.565 178.808 C 213.081 178.382 222.381 174.798 225.129 165.976 C 222.927 164.935 220.845 163.945 218.815 162.989 C 197.91 169.883 171.323 170.225 154.617 153.996 Z M 264.872 157.051 C 240.692 168.501 197.398 148.825 202.74 119.133 C 184.548 135.515 211.152 159.644 227.227 165.31 C 237.483 169.218 249.139 168.501 259.395 164.952 C 262.517 163.586 263.456 159.9 264.872 157.051 Z M 262.449 154.832 C 264.019 154.337 264.753 151.214 265.726 149.918 C 267.04 130.72 244.582 121.249 229.019 117.17 C 222.142 115.464 200.504 113.194 205.043 125.583 C 219.907 117.785 264.582 135.617 262.449 154.832 Z M 214.019 159.747 C 209.6 155.447 204.787 151.965 201.357 147.187 C 195.402 146.488 164.941 149.627 162.962 155.174 C 174.275 162.477 201.187 163.74 214.019 159.747 Z M 161.972 154.491 C 164.224 151.641 167.603 150.651 170.999 149.781 C 180.077 147.733 189.241 145.737 198.61 145.771 C 199.224 145.737 199.6 145.873 200.18 145.43 C 199.412 143.74 198.234 142.238 197.535 140.498 C 196.835 138.757 196.255 136.965 195.572 135.105 C 184.463 135.788 168.525 137.546 160.146 145.344 C 159.617 146.829 157.927 149.44 158.832 150.89 C 159.685 152.238 160.641 153.535 161.972 154.491 Z M 195.163 131.761 C 114.992 139.883 171.101 179.115 217.125 162.102 C 216.34 161.249 215.675 160.685 214.531 161.112 C 212.671 161.692 210.726 162.17 208.798 162.443 C 193.746 164.013 177.33 163.689 163.491 156.999 C 157.825 154.354 154.77 146.129 161.084 142.443 C 171.545 136.573 183.49 134.918 195.163 133.518 C 195.163 133.023 195.163 132.546 195.163 131.761 Z M 209.327 135.361 C 216.306 137.324 224.924 142.631 226.374 150.208 C 226.545 150.737 226.886 151.01 227.552 150.805 C 228.115 141.283 215.692 134.764 207.808 132.648 C 208.098 133.791 208.798 134.508 209.327 135.361 Z M 224.821 149.372 C 223.985 144.15 215.316 137.802 210.453 136.829 C 213.985 142.614 219.258 146.112 224.821 149.372 Z M 213.576 115.14 C 213.576 115.105 213.576 115.071 213.576 115.037 C 213.303 115.037 213.013 115.037 212.739 115.037 C 212.739 115.071 212.739 115.105 212.739 115.14 C 213.013 115.14 213.303 115.14 213.576 115.14 Z M 211.238 115.583 L 211.255 115.464 L 211.084 115.498 L 211.238 115.583 Z M 211.238 115.583" fill-opacity="1" fill-rule="nonzero" style=""/>
  <path fill="#545454" d="M 147.347 161.112 C 135.59 158.348 124.02 153.569 111.699 153.535 C 116.904 151.402 129.6 154.969 135.146 156.624 C 138.559 157.648 141.938 158.825 145.317 159.986 C 146.016 160.225 146.801 160.344 147.347 161.112 Z M 147.347 161.112" fill-opacity="1" fill-rule="nonzero" style=""/>
  <path fill="#545454" d="M 122.364 149.03 C 132.637 150.395 142.467 154.764 151.545 159.73 C 150.641 159.781 150.146 159.525 149.651 159.337 C 140.794 155.242 131.613 152.102 122.399 148.979 L 122.364 149.03 Z M 122.364 149.03" fill-opacity="1" fill-rule="nonzero" style=""/>
  <path fill="#545454" d="M 283.848 175.702 C 275.077 172.836 265.521 171.061 257.023 167.989 C 265.811 168.928 274.139 171.88 282.449 174.662 C 283.012 174.9 283.746 174.986 283.814 175.702 L 283.848 175.702 Z M 283.848 175.702" fill-opacity="1" fill-rule="nonzero" style=""/>
  <path fill="#545454" d="M 154.293 171.641 C 153.081 172.136 151.972 171.88 150.726 171.863 C 145.009 171.214 139.497 172.511 133.9 173.279 C 140.692 170.464 147.654 169.781 154.293 171.641 Z M 154.293 171.641" fill-opacity="1" fill-rule="nonzero" style=""/>
  <path fill="#545454" d="M 273.49 178.074 C 272.534 178.057 271.784 177.494 270.982 177.102 C 268.2 175.754 265.453 174.354 262.688 172.989 C 259.855 171.607 256.971 170.344 253.934 169.474 C 253.61 169.371 253.302 169.218 253.029 168.894 C 259.924 169.627 266.05 173.808 272.125 176.931 C 272.637 177.204 273.319 177.375 273.456 178.109 L 273.49 178.074 Z M 273.49 178.074" fill-opacity="1" fill-rule="nonzero" style=""/>
  <path fill="#545454" d="M 137.689 167.358 C 139.276 165.634 146.528 167.819 148.917 168.518 C 148.269 168.877 147.825 168.706 147.415 168.621 C 144.19 167.836 141.05 167.307 137.689 167.358 Z M 137.689 167.358" fill-opacity="1" fill-rule="nonzero" style=""/>
  <path fill="#545454" d="M 136.818 146.744 C 139.856 148.399 142.723 150.327 145.521 152.358 C 145.999 152.716 146.631 152.938 146.733 153.655 L 146.767 153.621 C 143.508 152.102 140.709 149.679 137.654 147.802 C 137.262 147.529 136.733 147.358 136.869 146.709 L 136.818 146.744 Z M 136.818 146.744" fill-opacity="1" fill-rule="nonzero" style=""/>
  <path fill="#545454" d="M 146.733 153.655 C 147.125 153.552 147.398 153.672 147.569 154.371 C 147.177 154.013 146.972 153.808 146.767 153.621 C 146.767 153.621 146.733 153.655 146.733 153.655 Z M 146.733 153.655" fill-opacity="1" fill-rule="nonzero" style=""/>
  <path fill="#545454" d="M 273.456 178.109 C 273.575 178.126 273.712 178.143 273.831 178.16 C 273.61 178.501 273.592 178.143 273.49 178.074 C 273.49 178.074 273.456 178.109 273.456 178.109 Z M 273.456 178.109" fill-opacity="1" fill-rule="nonzero" style=""/>
  <path fill="#545454" d="M 283.814 175.702 C 283.934 175.685 284.053 175.651 284.156 175.617 C 284.036 175.634 283.934 175.685 283.814 175.702 Z M 283.814 175.702" fill-opacity="1" fill-rule="nonzero" style=""/>
  <path fill="#545454" d="M 122.399 148.979 C 122.296 148.945 122.177 148.911 122.057 148.86 C 122.177 148.894 122.313 149.081 122.399 148.979 Z M 122.399 148.979" fill-opacity="1" fill-rule="nonzero" style=""/>
  <path fill="#545454" d="M 136.869 146.709 C 136.733 146.744 136.613 146.778 136.477 146.812 C 136.579 146.726 136.682 146.726 136.818 146.744 C 136.818 146.744 136.869 146.709 136.869 146.709 Z M 136.869 146.709" fill-opacity="1" fill-rule="nonzero" style=""/>
  <path fill="#545454" d="M 45.078 235.327 C 40.897 239.456 34.003 239.951 29.43 237.05 C 37.621 238.433 37.348 238.16 45.078 235.327 Z M 45.078 235.327" fill-opacity="1" fill-rule="nonzero" style=""/>
  <path fill="#545454" d="M 47.501 256.607 C 45.112 258.45 41.051 259.917 38.406 258.245 C 39.924 258.125 41.529 258.108 43.116 257.852 C 44.6 257.63 45.948 256.743 47.501 256.607 Z M 47.501 256.607" fill-opacity="1" fill-rule="nonzero" style=""/>
  <path fill="#545454" d="M 51.597 222.17 C 49.174 222.426 46.784 221.504 44.515 219.542 C 44.737 219.508 44.924 219.388 45.044 219.457 C 47.16 220.515 49.293 221.538 51.597 222.17 Z M 51.597 222.17" fill-opacity="1" fill-rule="nonzero" style=""/>
  <path fill="#545454" d="M 49.447 223.842 C 47.484 224.303 42.74 222.682 41.631 221.248 C 41.802 221.146 41.87 221.061 41.921 221.078 C 44.31 221.948 46.682 222.835 49.447 223.842 Z M 49.447 223.842" fill-opacity="1" fill-rule="nonzero" style=""/>
  <path fill="#545454" d="M 52.962 256.743 C 51.273 256.572 52.075 254.269 53.133 253.723 C 53.576 253.415 54.685 253.671 55.027 254.149 C 55.607 255.207 54.003 256.658 52.962 256.743 Z M 54.003 254.934 C 53.474 254.405 52.45 255.088 52.894 255.736 C 53.457 256.078 53.866 255.378 54.003 254.934 Z M 54.003 254.934" fill-opacity="1" fill-rule="nonzero" style=""/>
  <path fill="#545454" d="M 43.866 249.064 C 43.798 249.252 43.781 249.525 43.662 249.593 C 41.102 250.822 38.508 250.719 35.931 249.61 C 35.556 249.456 35.197 249.166 35.402 248.637 L 35.385 248.62 C 37.706 250.344 41.273 249.815 43.901 249.115 L 43.866 249.064 Z M 43.866 249.064" fill-opacity="1" fill-rule="nonzero" style=""/>
  <path fill="#545454" d="M 35.402 248.637 C 35.3 248.654 35.197 248.671 35.112 248.689 C 35.215 248.757 35.334 248.603 35.402 248.637 Z M 35.402 248.637" fill-opacity="1" fill-rule="nonzero" style=""/>
  <path fill="#545454" d="M 43.901 249.115 C 44.054 249.081 44.259 248.893 44.361 249.098 C 44.191 249.098 44.037 249.081 43.866 249.064 C 43.866 249.064 43.901 249.115 43.901 249.115 Z M 43.901 249.115" fill-opacity="1" fill-rule="nonzero" style=""/>
  <path fill="#545454" d="M 71.119 199.286 C 71.358 199.969 71.477 200.293 71.597 200.651 C 71.733 200.293 71.853 199.986 71.972 199.644 C 72.655 201.027 72.689 201.027 72.689 203.825 C 72.706 205.412 72.945 207.033 72.074 208.586 C 71.204 206.419 70.76 202.392 71.119 199.286 Z M 71.119 199.286" fill-opacity="1" fill-rule="nonzero" style=""/>
  <path fill="#545454" d="M 72.655 181.368 C 72.433 181.112 72.279 181.027 72.262 180.924 C 71.682 176.846 70.266 172.631 69.685 168.706 C 71.972 171.743 72.877 177.187 72.655 181.368 Z M 72.655 181.368" fill-opacity="1" fill-rule="nonzero" style=""/>
  <path fill="#545454" d="M 49.993 210.566 C 48.303 208.33 45.812 206.965 43.901 204.951 C 45.163 203.996 50.982 210.207 51.784 211.3 C 50.931 211.436 50.624 210.463 49.941 210.498 L 49.993 210.566 Z M 49.993 210.566" fill-opacity="1" fill-rule="nonzero" style=""/>
  <path fill="#545454" d="M 49.941 210.498 C 49.515 212.579 45.965 207.87 42.109 208.228 C 41.921 208.228 41.75 208.074 41.392 207.904 C 43.491 206.897 45.846 208.04 47.655 209.218 C 48.389 209.73 49.02 210.446 49.993 210.549 C 49.993 210.566 49.941 210.498 49.941 210.498 Z M 49.941 210.498" fill-opacity="1" fill-rule="nonzero" style=""/>
  <path fill="#545454" d="M 67.399 171.487 C 69.395 171.641 70.778 179.201 71.085 181.095 C 69.958 179.491 69.788 177.375 69.02 175.566 C 68.542 174.184 67.962 172.836 67.433 171.453 L 67.399 171.487 Z M 67.399 171.487" fill-opacity="1" fill-rule="nonzero" style=""/>
  <path fill="#545454" d="M 45.249 194.508 C 46.836 191.777 51.784 190.788 54.139 193.45 C 53.662 193.399 53.406 193.45 53.235 193.347 C 50.385 191.692 47.808 193.16 45.249 194.508 Z M 45.249 194.508" fill-opacity="1" fill-rule="nonzero" style=""/>
  <path fill="#545454" d="M 57.552 192.068 C 55.317 190.515 53.098 188.945 50.846 187.358 C 52.911 187.597 56.307 189.832 57.552 192.068 Z M 57.552 192.068" fill-opacity="1" fill-rule="nonzero" style=""/>
  <path fill="#545454" d="M 53.747 186.846 C 55.283 187.665 55.982 188.279 57.313 189.969 C 56.341 189.73 55.163 188.757 53.662 186.931 L 53.747 186.846 Z M 53.747 186.846" fill-opacity="1" fill-rule="nonzero" style=""/>
  <path fill="#545454" d="M 53.662 186.931 C 53.389 186.778 53.116 186.624 52.638 186.351 C 53.371 186.197 53.593 186.453 53.747 186.846 C 53.747 186.846 53.662 186.931 53.662 186.931 Z M 53.662 186.931" fill-opacity="1" fill-rule="nonzero" style=""/>
  <path fill="#545454" d="M 67.433 171.453 C 67.416 171.334 67.399 171.214 67.382 171.095 C 67.399 171.214 67.399 171.351 67.416 171.487 C 67.399 171.487 67.433 171.453 67.433 171.453 Z M 67.433 171.453" fill-opacity="1" fill-rule="nonzero" style=""/>
  <path fill="#545454" d="M 16.153 220.463 C 13.167 221.231 10.215 220.958 7.587 223.177 C 8.252 221.88 8.559 221.453 9.617 221.078 C 11.716 220.412 13.935 219.747 16.153 220.463 Z M 16.153 220.463" fill-opacity="1" fill-rule="nonzero" style=""/>
  <path fill="#545454" d="M 6.682 210.771 C 9.105 211.317 11.563 211.777 13.372 213.706 C 13.15 213.774 13.082 213.842 13.03 213.825 C 10.983 212.767 8.628 212.033 6.716 210.805 C 6.716 210.805 6.682 210.771 6.682 210.771 Z M 6.682 210.771" fill-opacity="1" fill-rule="nonzero" style=""/>
  <path fill="#545454" d="M 15.965 198.347 C 17.621 198.433 18.901 198.501 20.283 198.569 C 19.873 199.559 16.989 199.184 15.965 198.347 Z M 15.965 198.347" fill-opacity="1" fill-rule="nonzero" style=""/>
  <path fill="#545454" d="M 39.139 184.73 C 37.86 184.542 36.989 183.825 36.238 182.836 C 37.382 183.092 38.167 184.115 39.139 184.73 Z M 39.139 184.73" fill-opacity="1" fill-rule="nonzero" style=""/>
  <path fill="#545454" d="M 39.43 183.467 C 40.044 183.603 40.522 183.911 40.965 184.679 C 40.129 184.457 39.634 184.167 39.293 183.621 C 39.293 183.621 39.43 183.467 39.43 183.467 Z M 39.43 183.467" fill-opacity="1" fill-rule="nonzero" style=""/>
  <path fill="#545454" d="M 37.706 182.238 C 38.457 182.392 39.02 182.818 39.43 183.467 C 39.43 183.467 39.293 183.621 39.293 183.621 C 38.593 183.365 37.945 183.057 37.672 182.289 L 37.706 182.238 Z M 37.706 182.238" fill-opacity="1" fill-rule="nonzero" style=""/>
  <path fill="#545454" d="M 37.672 182.289 C 37.331 182.102 37.006 181.897 36.409 181.556 C 37.279 181.675 37.279 181.675 37.706 182.238 C 37.706 182.238 37.672 182.289 37.672 182.289 Z M 37.672 182.289" fill-opacity="1" fill-rule="nonzero" style=""/>
  <path fill="#545454" d="M 6.716 210.805 C 6.614 210.822 6.512 210.822 6.409 210.839 C 6.614 211.009 6.631 210.702 6.716 210.805 Z M 6.716 210.805" fill-opacity="1" fill-rule="nonzero" style=""/>
  <path fill="#545454" d="M 19.191 271.999 C 21.426 269.439 28.969 270.139 31.972 271.231 C 31.921 271.726 31.068 271.436 30.744 271.436 C 28.935 271.334 27.126 271.18 25.317 271.112 C 23.491 271.043 21.699 271.214 19.959 271.88 C 19.72 271.965 19.413 271.931 19.14 271.948 C 19.14 271.948 19.191 271.999 19.191 271.999 Z M 19.191 271.999" fill-opacity="1" fill-rule="nonzero" style=""/>
  <path fill="#545454" d="M 18.611 268.194 C 20.897 266.538 24.208 267.665 26.46 268.961 C 25.419 269.252 24.634 268.688 23.798 268.586 C 22.075 268.245 20.351 268.091 18.611 268.194 Z M 18.611 268.194" fill-opacity="1" fill-rule="nonzero" style=""/>
  <path fill="#545454" d="M 19.14 271.948 C 19.037 272.067 18.935 272.17 18.832 272.272 C 18.798 272.238 18.764 272.187 18.73 272.136 C 18.884 272.084 19.037 272.05 19.191 271.999 C 19.191 271.999 19.14 271.948 19.14 271.948 Z M 19.14 271.948" fill-opacity="1" fill-rule="nonzero" style=""/>
  <path fill="#545454" d="M 87.945 316.743 C 87.808 316.316 88.081 316.06 88.371 315.89 C 89.583 315.19 90.76 314.371 92.04 313.859 C 104.463 308.262 112.04 301.163 117.16 288.603 C 115.044 302.903 100.334 311.777 87.911 316.709 C 87.911 316.709 87.945 316.743 87.945 316.743 Z M 87.945 316.743" fill-opacity="1" fill-rule="nonzero" style=""/>
  <path fill="#545454" d="M 87.911 316.709 C 87.791 316.743 87.689 316.794 87.569 316.828 C 87.689 316.794 87.825 316.76 87.945 316.743 C 87.945 316.743 87.911 316.709 87.911 316.709 Z M 87.911 316.709" fill-opacity="1" fill-rule="nonzero" style=""/>
  <path fill="#545454" d="M 163.9 246.641 C 164.156 246.317 164.173 246.248 164.224 246.214 C 167.279 245.105 170.487 244.371 173.627 243.501 C 171.818 245.037 166.34 246.965 163.9 246.641 Z M 163.9 246.641" fill-opacity="1" fill-rule="nonzero" style=""/>
  <path fill="#545454" d="M 86.528 275.685 C 85.01 283.347 80.334 290.941 75.658 294.03 C 75.487 293.569 75.897 293.432 76.102 293.193 C 77.433 291.589 78.866 290.037 80.129 288.381 C 83.32 284.508 84.054 280.071 86.528 275.685 Z M 86.528 275.685" fill-opacity="1" fill-rule="nonzero" style=""/>
  <path fill="#545454" d="M 74.89 285.668 C 78.9 283.108 81.307 279.473 83.969 275.566 C 83.747 279.132 79.651 283.552 76.494 285.378 C 76.051 285.634 75.59 286.095 74.89 285.668 Z M 74.89 285.668" fill-opacity="1" fill-rule="nonzero" style=""/>
  <path fill="#545454" d="M 35.436 278.467 C 37.314 273.723 43.389 276.06 47.058 274.354 C 57.979 271.641 64.225 266.368 68.576 256.061 C 68.576 260.787 64.651 264.798 61.699 268.159 C 59.651 270.361 56.887 271.487 54.259 272.818 C 52.757 273.586 51.221 274.252 49.549 274.576 C 46.682 275.531 43.798 276.231 40.726 276.163 C 38.696 276.129 36.972 277.101 35.436 278.467 Z M 35.436 278.467" fill-opacity="1" fill-rule="nonzero" style=""/>
  <path fill="#545454" d="M 41.904 292.187 C 41.153 293.381 39.737 293.842 38.628 294.627 C 35.522 296.385 33.559 299.013 31.699 301.999 C 31.921 297.852 38.235 293.245 41.904 292.187 Z M 41.904 292.187" fill-opacity="1" fill-rule="nonzero" style=""/>
  <path fill="#545454" d="M 39.361 298.074 C 40.078 296.146 41.819 294.934 43.303 293.501 C 43.064 294.593 41.443 296.436 39.378 298.091 L 39.361 298.074 Z M 39.361 298.074" fill-opacity="1" fill-rule="nonzero" style=""/>
  <path fill="#545454" d="M 39.378 298.091 C 39.225 298.415 39.071 298.74 38.781 299.32 C 38.832 298.484 38.832 298.484 39.361 298.074 C 39.361 298.074 39.378 298.091 39.378 298.091 Z M 39.378 298.091" fill-opacity="1" fill-rule="nonzero" style=""/>
  <path fill="#545454" d="M 41.904 292.187 C 41.955 292.084 42.023 291.999 42.075 291.897 C 42.126 291.982 42.177 292.05 42.228 292.118 C 42.126 292.153 42.023 292.17 41.904 292.187 Z M 41.904 292.187" fill-opacity="1" fill-rule="nonzero" style=""/>
  <path fill="#545454" d="M 33.047 200.395 C 31.665 205.549 30.471 211.231 33.798 215.924 C 33.406 216.334 33.235 215.958 33.116 215.805 C 29.993 212.153 30.59 206.863 31.904 202.562 C 32.177 201.812 32.279 200.907 33.081 200.429 C 33.081 200.429 33.047 200.395 33.047 200.395 Z M 33.047 200.395" fill-opacity="1" fill-rule="nonzero" style=""/>
  <path fill="#545454" d="M 33.303 199.269 C 33.286 199.661 33.559 200.122 33.047 200.395 C 33.047 200.395 33.081 200.429 33.081 200.429 C 33.15 200.054 33.235 199.678 33.303 199.286 C 33.303 199.286 33.303 199.269 33.303 199.269 Z M 33.303 199.269" fill-opacity="1" fill-rule="nonzero" style=""/>
  <path fill="#545454" d="M 100.129 204.832 C 101.784 206.146 102.706 207.921 103.405 210.105 C 102.074 209.064 100.385 206.436 100.129 204.832 Z M 100.129 204.832" fill-opacity="1" fill-rule="nonzero" style=""/>
  <path fill="#545454" d="M 97.552 205.788 C 99.344 206.027 100.18 208.723 101.119 210.054 C 100.692 210.532 100.453 210.19 100.283 209.951 C 99.327 208.62 98.371 207.255 97.433 205.907 C 97.433 205.907 97.552 205.788 97.552 205.788 Z M 97.552 205.788" fill-opacity="1" fill-rule="nonzero" style=""/>
  <path fill="#545454" d="M 61.238 206.317 C 63.644 208.723 65.112 212.579 64.754 215.19 C 64.037 214.593 64.191 213.74 63.9 213.074 C 63.61 212.375 63.44 211.607 63.167 210.89 C 62.894 210.173 62.535 209.491 62.245 208.774 C 61.955 208.091 61.409 207.528 61.238 206.317 Z M 61.238 206.317" fill-opacity="1" fill-rule="nonzero" style=""/>
  <path fill="#545454" d="M 89.122 188.211 C 89.225 187.255 92.962 186.419 93.661 186.129 C 97.757 185.941 100.163 186.214 101.289 186.999 C 101.204 187.375 100.88 187.307 100.641 187.307 C 96.733 187.085 92.894 187.068 89.088 188.177 L 89.122 188.211 Z M 89.122 188.211" fill-opacity="1" fill-rule="nonzero" style=""/>
  <path fill="#545454" d="M 93.747 185.634 C 94.532 184.969 95.556 184.917 96.494 184.866 C 98.713 184.764 100.948 184.832 103.184 184.849 C 103.286 184.849 103.371 184.969 103.474 185.02 C 100.317 185.498 96.938 185.344 93.696 185.6 L 93.747 185.634 Z M 93.747 185.634" fill-opacity="1" fill-rule="nonzero" style=""/>
  <path fill="#545454" d="M 93.696 185.6 C 93.713 185.702 93.593 186.197 93.713 186.095 C 93.525 186.01 93.337 185.924 93.149 185.822 C 93.354 185.771 93.542 185.702 93.747 185.634 C 93.747 185.634 93.696 185.6 93.696 185.6 Z M 93.696 185.6" fill-opacity="1" fill-rule="nonzero" style=""/>
  <path fill="#545454" d="M 89.088 188.177 C 88.986 188.279 88.934 188.518 88.747 188.365 C 88.883 188.313 89.003 188.262 89.122 188.211 C 89.122 188.211 89.088 188.177 89.088 188.177 Z M 89.088 188.177" fill-opacity="1" fill-rule="nonzero" style=""/>
  <path fill="#545454" d="M 55.3 181.999 C 54.208 180.668 53.116 179.354 52.006 178.006 C 52.211 177.904 52.382 177.801 52.399 177.818 C 52.928 178.365 53.474 178.894 53.952 179.474 C 54.532 180.225 55.197 180.924 55.3 181.999 Z M 55.3 181.999" fill-opacity="1" fill-rule="nonzero" style=""/>
  <path fill="#545454" d="M 51.119 178.723 C 52.023 179.013 52.348 179.832 52.979 180.31 C 52.04 179.9 52.04 179.9 51.119 178.723 Z M 51.119 178.723" fill-opacity="1" fill-rule="nonzero" style=""/>
  <path fill="#545454" d="M 49.43 177.409 L 49.6 177.375 L 49.566 177.511 L 49.43 177.409 Z M 49.43 177.409" fill-opacity="1" fill-rule="nonzero" style=""/>
  <path fill="#545454" d="M 120.197 218.962 C 121.904 221.146 124.429 220.498 126.716 221.214 C 124.327 221.999 120.88 221.914 120.197 218.962 Z M 120.197 218.962" fill-opacity="1" fill-rule="nonzero" style=""/>
  <path fill="#545454" d="M 60.982 226.999 C 59.651 228.808 57.928 227.409 58.918 226.829 C 59.566 226.863 60.112 226.931 60.982 226.999 Z M 60.982 226.999" fill-opacity="1" fill-rule="nonzero" style=""/>
  <path fill="#545454" d="M 77.689 234.951 C 76.204 237.016 75.88 234.115 77.399 233.45 C 77.945 233.962 77.603 234.508 77.638 235.003 L 77.689 234.951 Z M 77.689 234.951" fill-opacity="1" fill-rule="nonzero" style=""/>
  <path fill="#545454" d="M 77.638 235.003 C 77.825 234.934 77.996 234.849 78.286 234.73 C 78.474 235.259 78.286 235.6 77.911 235.958 C 77.45 235.702 77.757 235.276 77.689 234.951 C 77.689 234.951 77.638 235.003 77.638 235.003 Z M 77.638 235.003" fill-opacity="1" fill-rule="nonzero" style=""/>
</svg>