<?xml version="1.0" encoding="utf-8"?>
<svg xmlns="http://www.w3.org/2000/svg" width="443" zoomAndPan="magnify" viewBox="0 114.464 332.25 346.036" height="614" preserveAspectRatio="xMidYMid meet" version="1.0">
  <defs>
    <clipPath id="c8683c6193">
      <path d="M 323 362.609375 L 331 362.609375 L 331 370 L 323 370 Z M 323 362.609375 " clip-rule="nonzero"/>
    </clipPath>
    <clipPath id="75923e2d31">
      <path d="M 235.441406 363 L 246 363 L 246 373 L 235.441406 373 Z M 235.441406 363 " clip-rule="nonzero"/>
    </clipPath>
  </defs>
  <path fill="#545454" d="M 305.128 402.176 C 302.812 402.106 298.018 402.621 292.813 403.202 C 287.623 403.77 282.01 404.438 275.988 405.089 C 269.967 405.757 263.509 406.378 258.959 406.727 C 254.409 407.086 251.153 407.255 246.615 407.544 C 242.078 407.823 236.275 408.225 229.204 408.724 C 222.12 409.239 213.783 409.863 203.879 410.488 C 193.976 411.109 183.363 411.667 181.986 411.72 C 180.624 411.763 179.506 411.803 178.649 411.846 C 177.804 411.873 177.204 411.886 176.892 411.903 C 176.564 411.903 176.51 411.903 174.249 411.886 C 172.001 411.873 169.657 411.873 167.232 411.903 C 164.793 411.916 162.259 411.943 159.631 411.999 C 157.014 412.039 154.33 412.096 149.725 411.999 C 145.12 411.903 141.266 411.803 138.158 411.72 C 135.066 411.637 132.724 411.567 131.129 411.514 C 129.549 411.458 128.746 411.401 107.603 409.627 C 86.459 407.863 83.788 407.531 81.174 407.225 C 78.57 406.92 76.049 406.644 73.638 406.395 C 71.228 406.142 68.911 405.923 66.717 405.727 C 64.524 405.548 62.291 405.159 59.755 404.757 C 57.237 404.368 54.457 403.993 51.432 403.634 C 48.422 403.272 45.153 402.98 41.637 402.731 C 38.123 402.495 36.746 402.372 35.452 402.219 C 34.158 402.079 32.96 401.913 31.842 401.731 C 30.712 401.564 29.675 401.385 28.914 401.275 C 28.163 401.176 28.163 401.176 28.641 401.329 C 28.641 401.329 29.527 401.87 30.575 402.246 C 31.611 402.621 32.742 402.953 33.981 403.259 C 35.221 403.551 36.556 403.827 39.036 404.189 C 41.528 404.561 44.935 405.019 48.095 405.435 C 51.255 405.853 54.171 406.225 56.842 406.614 C 59.511 406.99 61.936 407.378 64.199 407.671 C 66.473 407.963 68.708 408.169 71.049 408.405 C 73.38 408.627 75.818 408.89 78.352 409.169 C 80.886 409.461 83.528 409.763 95.477 410.82 C 107.411 411.886 128.569 413.65 129.686 413.704 C 130.804 413.76 132.641 413.83 135.258 413.9 C 137.859 413.969 141.212 414.066 145.325 414.162 C 149.426 414.245 154.317 414.358 157.014 414.302 C 159.712 414.245 162.287 414.205 164.779 414.175 C 167.272 414.149 169.67 414.135 171.973 414.135 C 174.275 414.135 176.482 414.162 176.658 414.162 C 176.85 414.162 177.272 414.149 177.968 414.122 C 178.649 414.105 179.589 414.066 180.787 414.022 C 182.001 413.969 183.472 413.913 194.098 413.358 C 204.724 412.803 213.947 412.109 221.862 411.528 C 229.791 410.943 236.439 410.471 241.807 410.112 C 247.174 409.75 251.275 409.501 254.11 409.375 C 256.942 409.239 263.712 408.627 270.035 407.989 C 276.37 407.352 282.269 406.671 287.745 405.867 C 293.208 405.076 298.249 404.146 300.564 403.398 C 305.143 402.259 302.88 402.578 305.128 402.176 Z M 305.128 402.176" fill-opacity="1" fill-rule="nonzero" style=""/>
  <path fill="#545454" d="M 306.409 406.255 C 306.396 407.531 306.477 409.833 306.097 411.916 C 305.728 413.996 304.896 415.87 303.576 417.577 C 302.254 419.281 300.442 420.823 298.098 422.208 C 295.77 423.597 292.895 424.833 289.897 425.789 C 286.9 426.733 284.271 427.44 281.804 428.022 C 279.325 428.603 277.023 429.092 274.871 429.464 C 272.732 429.839 270.757 430.118 268.946 430.324 C 267.147 430.533 265.511 430.673 252.27 431.686 C 239.014 432.683 214.069 434.6 202.38 434.766 C 190.691 434.919 189.48 434.875 188.048 434.849 C 186.619 434.806 184.997 434.779 183.212 434.749 C 181.427 434.736 179.465 434.723 177.326 434.709 C 175.187 434.709 172.859 434.709 170.379 434.709 C 167.9 434.723 143.174 434.071 130.081 433.696 C 116.989 433.321 114.754 433.141 111.402 432.836 C 108.052 432.53 103.583 432.088 97.998 431.49 C 92.413 430.895 85.722 430.118 77.931 429.161 C 70.137 428.201 61.229 427.039 54.267 426.025 C 47.292 425.012 43.355 424.069 39.989 422.819 C 36.624 421.57 33.844 420.016 31.637 418.172 C 29.431 416.328 27.796 414.122 26.747 411.514 C 25.697 408.89 25.221 405.81 25.167 403.216 C 25.125 400.621 25.125 400.621 25.031 402.342 C 25.031 402.342 24.431 405.823 24.798 408.989 C 25.167 412.165 26.325 414.996 28.218 417.424 C 30.099 419.849 32.674 421.876 35.847 423.457 C 39.036 425.052 42.781 426.248 47.032 427.105 C 51.283 427.965 60.943 429.271 69.485 430.367 C 78.027 431.464 85.477 432.364 91.8 433.071 C 98.133 433.779 103.351 434.334 107.465 434.723 C 111.581 435.125 114.578 435.39 116.472 435.527 C 118.379 435.679 143.119 436.334 156.77 436.653 C 170.434 436.972 172.872 436.955 175.12 436.955 C 177.381 436.972 179.452 436.972 181.346 436.998 C 183.254 437.012 184.969 437.041 186.51 437.068 C 188.048 437.095 189.41 437.138 195.922 437.081 C 202.435 437.012 214.207 436.845 239.178 434.945 C 264.149 433.032 265.674 432.919 267.405 432.753 C 269.136 432.586 271.043 432.351 273.114 432.032 C 275.198 431.713 277.433 431.297 279.842 430.783 C 282.241 430.254 284.816 429.633 287.555 428.869 C 290.279 428.092 293.67 426.939 296.531 425.554 C 299.392 424.152 301.708 422.487 303.452 420.6 C 305.198 418.713 306.367 416.634 306.955 414.398 C 307.526 412.152 307.513 409.807 307.144 408.627 C 306.477 406.242 306.708 407.475 306.409 406.255 Z M 306.409 406.255" fill-opacity="1" fill-rule="nonzero" style=""/>
  <path fill="#545454" d="M 273.468 432.739 C 273.413 433.238 273.426 434.321 273.455 435.556 C 273.481 436.789 273.509 438.191 273.509 439.772 C 273.522 441.34 273.509 443.088 273.522 444.337 C 273.535 445.599 273.564 446.167 273.603 446.695 C 273.658 447.21 273.712 447.695 273.767 448.137 C 273.821 448.569 273.889 448.971 274.053 449.788 C 274.216 450.609 274.502 451.788 274.843 452.802 C 275.17 453.828 275.552 454.685 276.001 455.38 C 276.451 456.087 276.984 456.642 277.623 457.074 C 278.262 457.502 279.039 457.904 279.871 458.223 C 280.687 458.529 281.56 458.751 282.472 458.891 C 283.385 459.014 284.338 459.057 286.342 458.848 C 288.345 458.642 291.027 458.266 293.33 457.918 C 295.632 457.559 297.568 457.227 299.107 456.891 C 300.66 456.572 301.845 456.27 302.867 455.908 C 303.888 455.546 304.964 454.964 305.863 454.16 C 306.778 453.356 307.498 452.33 308.044 451.121 C 308.576 449.928 308.943 448.539 309.161 447.071 C 309.392 445.599 309.501 443.726 309.434 441.3 C 309.366 438.859 309.135 435.862 308.698 432.281 C 308.275 428.716 307.622 424.567 306.996 421.182 C 306.367 417.796 306.367 417.796 306.627 420.072 C 306.627 420.072 306.682 424.68 306.872 428.646 C 307.077 432.63 307.227 435.985 307.282 438.746 C 307.321 441.506 307.282 443.659 307.144 445.197 C 306.996 446.722 306.778 448.068 306.422 449.164 C 306.082 450.247 305.619 451.134 305.047 451.841 C 304.475 452.536 303.779 453.064 302.921 453.439 C 302.051 453.828 301.232 454.091 300.006 454.383 C 298.794 454.685 297.16 455.007 295.143 455.34 C 293.127 455.672 290.715 456.034 287.935 456.406 C 285.144 456.781 284.353 456.795 283.563 456.742 C 282.773 456.685 282.023 456.546 281.329 456.336 C 280.619 456.144 279.98 455.865 279.354 455.506 C 278.74 455.144 278.426 454.938 278.127 454.576 C 277.841 454.213 277.514 453.645 277.186 452.885 C 276.846 452.134 276.519 451.177 276.207 450.024 C 275.892 448.875 275.812 448.556 275.742 448.194 C 275.661 447.832 275.593 447.416 275.51 446.958 C 275.443 446.486 275.375 445.975 275.307 445.433 C 275.238 444.892 275.115 443.035 274.98 441.34 C 274.829 439.633 274.666 438.108 274.476 436.762 C 274.271 435.417 274.039 434.238 273.836 433.723 C 273.548 432.726 273.548 433.224 273.468 432.739 Z M 273.468 432.739" fill-opacity="1" fill-rule="nonzero" style=""/>
  <path fill="#545454" d="M 26.624 417.617 C 26.31 419.172 26.256 422.321 26.352 425.554 C 26.461 428.799 26.679 432.115 27.019 435.513 C 27.373 438.925 27.877 442.393 28.368 444.809 C 28.872 447.224 29.389 448.303 30.057 449.277 C 30.725 450.247 31.557 451.081 32.523 451.788 C 33.49 452.479 34.595 453.051 35.834 453.509 C 37.087 453.964 38.518 454.34 40.112 454.632 C 41.705 454.908 43.464 455.117 45.384 455.243 C 47.305 455.366 49.402 455.409 51.31 455.393 C 53.217 455.38 54.758 455.31 56.12 455.144 C 57.481 454.978 58.68 454.715 59.729 454.353 C 60.779 453.994 61.663 453.509 62.835 452.566 C 64.007 451.622 65.423 449.941 66.46 447.848 C 67.481 445.752 68.108 443.284 68.352 440.423 C 68.599 437.58 68.407 434.364 68.066 431.769 C 67.741 429.175 67.741 429.175 67.835 430.909 C 67.835 430.909 67.632 434.377 67.331 437.374 C 67.032 440.357 66.473 442.895 65.67 444.961 C 64.851 447.041 63.775 448.666 62.414 449.928 C 61.037 451.177 60.478 451.592 59.771 451.925 C 59.061 452.26 58.149 452.536 57.032 452.732 C 55.914 452.938 54.607 453.051 53.095 453.091 C 51.569 453.134 49.415 453.147 47.44 453.077 C 45.465 453.021 43.68 452.868 42.061 452.649 C 40.452 452.439 39.023 452.134 37.768 451.772 C 36.515 451.4 35.494 450.998 34.621 450.496 C 33.763 449.984 33.028 449.4 32.414 448.709 C 31.814 448.014 31.325 447.224 30.97 446.363 C 30.603 445.503 30.057 442.048 29.566 438.636 C 29.077 435.221 28.613 431.905 28.204 428.66 C 27.809 425.414 27.456 422.251 27.1 420.71 C 26.705 417.617 26.666 419.158 26.624 417.617 Z M 26.624 417.617" fill-opacity="1" fill-rule="nonzero" style=""/>
  <path fill="#545454" d="M 200.896 409.252 C 201.099 407.71 201.169 404.923 201.455 402.521 C 201.728 400.109 202.245 398.096 202.98 396.445 C 203.716 394.794 204.669 393.492 205.977 392.339 C 207.284 391.173 208.988 390.05 211.153 389.08 C 213.307 388.11 215.909 387.303 218.96 386.678 C 222.011 386.057 225.498 385.598 227.884 385.376 C 230.267 385.153 231.576 385.027 233.442 384.877 C 235.308 384.725 237.746 384.529 240.745 384.319 C 243.741 384.113 247.296 383.891 254.585 383.655 C 261.875 383.419 272.582 383.183 274.081 383.157 C 275.565 383.127 277.119 383.183 278.74 383.293 C 280.375 383.419 282.077 383.615 283.849 383.891 C 285.632 384.17 287.459 384.502 288.821 384.904 C 290.183 385.293 291.368 385.735 292.376 386.206 C 293.384 386.678 294.203 387.193 294.842 387.735 C 295.468 388.276 295.933 388.844 296.601 389.967 C 297.254 391.077 297.825 392.299 298.345 393.601 C 298.849 394.907 299.283 396.309 299.748 397.389 C 300.198 398.458 300.198 398.458 300.047 397.708 C 300.047 397.708 300.224 396.1 299.91 394.628 C 299.598 393.143 299.161 391.758 298.616 390.439 C 298.059 389.12 297.404 387.874 296.778 387.097 C 296.136 386.319 295.333 385.612 294.338 384.974 C 293.345 384.336 292.173 383.765 290.837 383.253 C 289.489 382.755 287.935 382.309 286.056 381.964 C 284.161 381.628 282.35 381.379 280.619 381.2 C 278.876 381.021 277.215 380.921 275.62 380.894 C 274.026 380.881 272.527 380.937 261.82 381.157 C 251.111 381.379 247.148 381.628 243.783 381.851 C 240.404 382.087 237.585 382.283 235.337 382.462 C 233.073 382.628 231.371 382.781 230.241 382.907 C 229.11 383.03 225.267 383.363 221.821 383.878 C 218.375 384.406 215.337 385.127 212.72 386.04 C 210.106 386.957 207.897 388.08 206.127 389.439 C 204.355 390.788 203.089 392.133 202.123 393.851 C 201.154 395.571 200.54 397.611 200.254 399.957 C 199.969 402.285 200.01 404.936 200.337 406.338 C 200.813 409.265 200.745 407.74 200.896 409.252 Z M 200.896 409.252" fill-opacity="1" fill-rule="nonzero" style=""/>
  <path fill="#545454" d="M 33.082 400.804 C 33.259 399.345 33.381 396.794 33.859 394.711 C 34.322 392.631 35.153 390.994 36.338 389.761 C 37.523 388.525 39.09 387.651 40.426 387.193 C 41.775 386.735 42.687 386.525 43.859 386.333 C 45.016 386.153 46.447 386.014 48.121 385.917 C 49.797 385.834 51.718 385.791 55.207 385.834 C 58.695 385.874 63.625 385.957 65.628 385.874 C 67.632 385.791 69.771 385.735 72.086 385.695 C 74.402 385.652 76.881 385.638 79.524 385.638 C 82.18 385.652 85.002 385.681 86.662 385.695 C 88.338 385.721 89.783 385.751 90.994 385.791 C 92.208 385.821 93.203 385.861 93.952 385.887 C 94.713 385.931 95.246 385.97 98.188 386.223 C 101.116 386.472 103.733 386.721 106.023 386.984 C 108.31 387.249 110.272 387.525 111.893 387.804 C 113.528 388.08 114.822 388.359 115.926 388.691 C 117.015 389.01 118.133 389.412 119.263 389.884 C 120.381 390.342 121.511 390.884 122.67 391.479 C 123.813 392.077 124.985 392.728 126.144 393.575 C 127.301 394.422 128.338 395.698 129.276 397.445 C 130.217 399.192 131.048 401.412 131.88 403.285 C 132.696 405.146 132.696 405.146 132.384 403.84 C 132.384 403.84 132.41 401.023 131.648 398.751 C 130.884 396.475 129.905 394.615 128.691 393.199 C 127.465 391.771 126.074 390.854 124.876 390.163 C 123.678 389.455 122.478 388.844 121.28 388.303 C 120.095 387.761 118.897 387.289 117.711 386.901 C 116.54 386.499 115.339 386.166 113.855 385.874 C 112.384 385.568 110.586 385.293 108.489 385.014 C 106.376 384.738 103.951 384.472 101.212 384.223 C 98.474 383.974 95.423 383.725 94.783 383.682 C 94.141 383.642 93.284 383.598 92.208 383.559 C 91.132 383.529 89.822 383.502 88.297 383.476 C 86.771 383.446 85.028 383.419 82.25 383.406 C 79.482 383.379 76.868 383.379 74.43 383.406 C 71.99 383.432 69.716 383.476 67.617 383.545 C 65.506 383.615 63.625 383.711 58.721 383.615 C 53.817 383.529 51.691 383.529 49.797 383.598 C 47.918 383.655 46.27 383.765 44.839 383.934 C 43.422 384.1 42.224 384.336 41.255 384.642 C 40.288 384.944 38.217 385.778 36.541 387.083 C 34.867 388.386 33.695 390.12 33.054 392.216 C 32.401 394.309 32.264 396.751 32.55 398.07 C 33.014 400.817 32.918 399.375 33.082 400.804 Z M 33.082 400.804" fill-opacity="1" fill-rule="nonzero" style=""/>
  <path fill="#545454" d="M 233.034 380.409 C 233.933 379.911 235.594 378.356 237.366 376.303 C 239.136 374.263 241.017 371.752 243.019 368.782 C 245.009 365.799 247.106 362.36 248.401 360.141 C 249.695 357.918 250.526 356.42 251.833 353.842 C 253.141 351.261 254.939 347.57 257.241 342.77 C 259.531 337.956 262.324 332.046 264.149 328.202 C 265.975 324.375 266.547 323.348 267.132 322.349 C 267.719 321.349 268.332 320.392 268.959 319.462 C 269.598 318.518 270.24 317.618 271.438 316.342 C 272.636 315.05 274.448 313.608 276.274 312.638 C 278.099 311.651 279.967 311.126 281.859 311.043 C 283.766 310.944 285.728 311.293 288.127 312.013 C 290.51 312.734 293.005 314.302 295.429 317.242 C 297.867 320.186 300.211 324.515 302.417 330.242 C 304.624 335.959 306.695 343.049 308.249 351.135 C 309.8 359.211 310.632 366.965 310.972 374.001 C 311.3 381.034 311.164 387.372 310.673 393.02 C 310.182 398.668 309.27 403.674 308.371 407.129 C 307.485 410.597 307.485 410.597 308.236 408.335 C 308.236 408.335 310.211 403.936 311.45 398.707 C 312.677 393.465 313.329 387.485 313.342 380.811 C 313.358 374.124 312.84 366.759 311.832 358.669 C 310.809 350.593 308.834 342.464 306.682 335.71 C 304.53 328.953 302.199 323.528 299.678 319.422 C 297.145 315.329 294.379 312.542 291.422 311.18 C 288.454 309.808 286.246 309.1 283.998 308.864 C 281.737 308.641 279.53 308.921 277.379 309.695 C 275.238 310.489 273.182 311.764 271.207 313.512 C 269.232 315.259 268.468 316.272 267.8 317.216 C 267.132 318.173 266.48 319.143 265.851 320.156 C 265.225 321.169 264.627 322.209 264.04 323.305 C 263.455 324.388 260.321 331.062 257.706 336.61 C 255.077 342.158 252.951 346.57 251.329 349.872 C 249.708 353.174 248.577 355.341 247.951 356.394 C 247.325 357.447 245.199 361.207 243.265 364.523 C 241.343 367.855 239.573 370.739 237.951 373.207 C 236.343 375.679 234.872 377.705 234.287 378.688 C 232.993 380.353 233.754 379.728 233.034 380.409 Z M 233.034 380.409" fill-opacity="1" fill-rule="nonzero" style=""/>
  <path fill="#545454" d="M 21.734 403.229 C 21.489 402.189 20.793 399.874 20.25 396.947 C 19.704 394.02 19.309 390.452 19.062 386.236 C 18.805 382.017 18.641 377.147 18.545 373.665 C 18.451 370.17 18.464 368.31 18.722 365.911 C 18.968 363.51 19.457 360.583 20.167 357.158 C 20.889 353.729 21.843 349.789 23.218 344.962 C 24.608 340.135 26.528 335.222 28.831 331.046 C 31.146 326.857 33.844 323.375 36.91 320.614 C 39.976 317.84 43.435 315.774 46.406 314.704 C 49.376 313.621 51.541 313.442 53.599 313.761 C 55.657 314.08 57.617 314.914 59.511 316.259 C 61.405 317.618 63.23 319.531 64.376 321.03 C 65.519 322.545 66.05 323.335 66.608 324.236 C 67.167 325.136 67.754 326.162 68.367 327.289 C 68.981 328.425 69.62 329.674 72.317 335.61 C 75.028 341.537 79.292 350.929 82.863 358.49 C 86.431 366.051 89.388 371.752 91.636 375.609 C 93.897 379.479 95.436 381.506 96.103 382.17 C 96.784 382.838 96.784 382.838 96.376 382.366 C 96.376 382.366 95.682 381.339 94.347 378.466 C 93.011 375.609 90.914 370.961 87.998 364.553 C 85.082 358.141 81.309 349.972 76.785 339.996 C 72.276 330.006 71.595 328.634 70.94 327.398 C 70.301 326.162 69.675 325.039 69.074 324.013 C 68.476 323 67.889 322.086 67.331 321.266 C 66.772 320.448 64.893 318.046 62.85 316.146 C 60.805 314.233 58.625 312.9 56.296 312.123 C 53.966 311.362 51.528 311.18 48.968 311.598 C 46.419 312.013 42.44 313.748 38.872 316.216 C 35.317 318.688 32.183 321.89 29.486 325.79 C 26.775 329.7 24.512 334.308 22.659 339.607 C 20.806 344.906 19.691 349.234 18.805 353.052 C 17.919 356.865 17.279 360.181 16.856 363.011 C 16.435 365.842 16.258 368.2 16.31 370.031 C 16.365 371.861 16.419 377.203 16.692 381.908 C 16.965 386.625 17.482 390.688 18.205 394.086 C 18.927 397.472 19.839 400.206 20.507 401.275 C 21.666 403.272 21.229 402.302 21.734 403.229 Z M 21.734 403.229" fill-opacity="1" fill-rule="nonzero" style=""/>
  <path fill="#545454" d="M 67.523 319.963 C 69.498 317.465 73.653 312.346 79.157 307.558 C 84.661 302.775 91.527 298.346 99.822 294.506 C 108.107 290.649 117.766 287.443 128.733 284.975 C 139.699 282.52 151.934 280.882 161.606 280.244 C 171.279 279.619 177.341 279.619 183.048 279.952 C 188.758 280.284 194.111 280.895 199.098 281.756 C 204.098 282.603 208.729 283.656 213.006 284.878 C 217.284 286.098 221.208 287.43 224.817 288.872 C 228.414 290.3 231.956 291.881 235.527 293.672 C 239.11 295.449 242.707 297.419 246.343 299.582 C 249.967 301.748 253.686 304.037 257.46 306.479 C 261.233 308.934 265.089 311.515 268.047 313.525 C 271.002 315.522 271.002 315.522 269.136 314.053 C 269.136 314.053 265.69 310.708 262.078 307.794 C 258.481 304.881 254.83 302.233 251.166 299.861 C 247.501 297.473 243.837 295.35 240.186 293.41 C 236.535 291.479 232.925 289.732 229.342 288.177 C 225.745 286.639 221.985 285.211 217.871 283.878 C 213.757 282.546 209.274 281.354 204.438 280.354 C 199.602 279.34 194.41 278.55 188.851 278.025 C 183.308 277.497 177.396 277.261 171.115 277.37 C 164.834 277.467 151.687 278.523 139.741 280.467 C 127.805 282.407 117.124 285.167 107.751 288.649 C 98.393 292.147 90.381 296.293 83.817 301.04 C 77.25 305.784 72.289 311.14 70.615 314.123 C 67.453 319.92 69.007 317.146 67.523 319.963 Z M 67.523 319.963" fill-opacity="1" fill-rule="nonzero" style=""/>
  <path fill="#545454" d="M 57.045 313.067 C 57.754 307.226 58.121 295.974 58.625 285.473 C 59.144 274.972 60.028 265.397 61.296 256.976 C 62.549 248.558 64.144 241.468 66.05 235.93 C 67.957 230.382 70.111 226.595 72.141 224.625 C 74.183 222.655 76.104 221.253 78.203 219.934 C 80.288 218.619 82.549 217.37 85.015 216.217 C 87.494 215.067 90.191 213.998 93.133 213.028 C 96.09 212.054 99.318 211.194 105.054 209.988 C 110.791 208.782 118.419 207.476 125.409 206.589 C 132.384 205.702 138.717 205.174 144.413 204.898 C 150.094 204.633 155.12 204.563 159.494 204.619 C 163.867 204.689 167.573 204.799 172.544 204.981 C 177.518 205.147 183.825 205.383 189.574 205.646 C 195.324 205.895 200.514 206.174 205.132 206.506 C 209.75 206.825 213.812 207.201 217.299 207.642 C 220.787 208.088 223.687 208.602 226.166 209.224 C 228.645 209.848 231.072 210.669 233.469 211.665 C 235.88 212.665 238.279 213.845 240.677 215.22 C 243.06 216.579 245.443 218.13 247.829 219.851 C 250.212 221.572 252.597 223.472 255.077 225.791 C 257.543 228.107 259.939 231.479 262.093 235.987 C 264.245 240.495 266.124 246.156 267.732 253.009 C 269.341 259.849 270.648 267.896 271.669 277.164 C 272.704 286.43 273.699 296.918 274.502 305.436 C 275.292 313.94 275.292 313.94 275.035 308.253 C 275.035 308.253 275.321 296.835 274.64 286.666 C 273.972 276.51 272.841 267.577 271.41 259.836 C 269.98 252.092 268.25 245.505 266.22 240.066 C 264.177 234.615 261.82 230.273 259.136 227.04 C 256.451 223.791 253.985 221.712 251.548 219.825 C 249.11 217.951 246.67 216.247 244.219 214.718 C 241.753 213.194 239.287 211.835 236.808 210.682 C 234.313 209.516 231.808 208.546 229.287 207.755 C 226.753 206.978 224.123 206.38 220.935 205.882 C 217.762 205.383 214.028 204.951 209.75 204.593 C 205.473 204.231 200.636 203.925 195.241 203.649 C 189.86 203.383 183.921 203.134 177.409 202.898 C 170.91 202.663 167.641 202.553 163.69 202.44 C 159.738 202.344 155.107 202.317 149.821 202.44 C 144.522 202.566 138.569 202.928 131.96 203.579 C 125.339 204.231 118.078 205.244 110.191 206.715 C 102.288 208.184 98.788 209.004 95.573 209.918 C 92.372 210.848 89.427 211.875 86.73 213.014 C 84.019 214.137 81.54 215.37 79.251 216.675 C 76.977 217.994 74.864 219.396 72.876 220.908 C 70.873 222.406 68.297 225.289 66.091 229.95 C 63.872 234.628 62.003 240.884 60.493 248.558 C 58.981 256.228 57.835 265.148 57.058 275.111 C 56.283 285.071 55.914 295.921 56.392 301.579 C 56.977 313.067 56.964 307.226 57.045 313.067 Z M 57.045 313.067" fill-opacity="1" fill-rule="nonzero" style=""/>
  <path fill="#545454" d="M 97.385 253.647 C 98.024 252.345 99.196 249.803 100.804 247.461 C 102.398 245.129 104.497 242.98 107.07 240.996 C 109.658 239.01 112.751 237.153 116.103 235.528 C 119.455 233.89 122.982 232.545 126.921 231.422 C 130.871 230.299 135.23 229.396 140.027 228.718 C 144.821 228.037 150.026 227.595 159.78 227.608 C 169.535 227.608 182.095 228.592 192.435 230.592 C 202.775 232.575 210.881 235.542 216.821 239.385 C 222.775 243.216 226.712 247.96 228.728 252.122 C 230.745 256.285 230.745 256.285 229.56 253.411 C 229.56 253.411 227.707 247.378 223.183 242.355 C 218.661 237.332 211.767 233.488 202.679 230.758 C 193.594 228.037 182.341 226.346 168.909 225.691 C 155.476 225.04 149.876 225.346 144.725 225.874 C 139.577 226.399 134.85 227.176 130.516 228.176 C 126.184 229.176 122.262 230.409 118.746 231.881 C 115.245 233.366 111.69 235.183 108.665 237.249 C 105.641 239.315 103.188 241.621 101.309 244.116 C 99.427 246.627 98.161 249.318 97.889 250.777 C 97.304 253.621 97.699 252.245 97.385 253.647 Z M 97.385 253.647" fill-opacity="1" fill-rule="nonzero" style=""/>
  <path fill="#545454" d="M 99.809 256.006 C 99.986 256.311 100.477 256.826 101.036 257.295 C 101.607 257.767 102.234 258.198 102.93 258.6 C 103.624 259.002 104.388 259.364 105.191 259.71 C 105.994 260.059 106.867 260.391 107.712 260.68 C 108.569 260.972 109.455 261.222 110.49 261.457 C 111.511 261.693 112.683 261.916 113.99 262.112 C 115.3 262.305 116.742 262.444 118.338 262.527 C 119.931 262.623 121.662 262.667 123.2 262.68 C 124.741 262.68 125.939 262.65 127.043 262.623 C 128.146 262.597 129.154 262.54 130.081 262.501 C 131.007 262.444 131.838 262.401 132.587 262.348 C 133.322 262.291 133.977 262.248 134.944 262.165 C 135.926 262.095 137.314 261.972 138.746 261.846 C 140.175 261.707 141.648 261.557 143.158 261.404 C 144.686 261.235 146.238 261.069 147.846 260.889 C 149.452 260.71 151.102 260.531 152.709 260.348 C 154.33 260.168 155.746 260.029 156.986 259.919 C 158.228 259.806 159.275 259.737 160.148 259.683 C 161.006 259.627 161.687 259.587 162.178 259.57 C 162.669 259.557 162.968 259.544 163.35 259.544 C 163.717 259.544 164.33 259.544 164.971 259.557 C 165.611 259.557 166.279 259.557 167.001 259.557 C 167.708 259.57 168.459 259.57 169.249 259.587 C 170.039 259.587 170.855 259.587 171.7 259.587 C 172.544 259.6 173.363 259.587 174.14 259.57 C 174.901 259.57 175.624 259.557 176.318 259.544 C 177.001 259.531 177.64 259.531 178.225 259.531 C 178.825 259.517 179.384 259.531 179.943 259.544 C 180.501 259.57 181.141 259.6 181.837 259.627 C 182.531 259.64 183.28 259.67 184.085 259.697 C 184.875 259.71 185.733 259.737 186.632 259.753 C 187.544 259.766 188.498 259.78 192.843 260.016 C 197.203 260.251 204.968 260.71 205.841 260.736 C 206.712 260.766 207.476 260.78 208.157 260.793 C 208.838 260.793 209.41 260.806 209.901 260.793 C 210.392 260.793 210.787 260.78 211.099 260.78 C 211.4 260.766 211.631 260.75 213.17 260.57 C 214.724 260.378 216.249 260.112 217.733 259.78 C 219.233 259.434 220.691 259.002 222.12 258.504 C 223.552 258.002 224.942 257.408 225.909 256.783 C 226.875 256.159 226.875 256.159 226.181 256.438 C 226.181 256.438 224.641 256.574 223.224 256.992 C 221.795 257.394 220.363 257.74 218.905 258.019 C 217.461 258.308 215.99 258.531 214.506 258.697 C 213.006 258.85 211.494 258.962 211.276 258.976 C 211.06 258.976 210.745 258.989 210.337 259.002 C 209.927 259.002 209.41 259.002 208.812 259.002 C 208.212 259.002 207.518 258.989 206.725 258.976 C 205.935 258.946 205.064 258.919 197.299 258.461 C 189.534 258.002 188.511 257.989 187.586 257.976 C 186.645 257.963 185.774 257.949 184.943 257.919 C 184.111 257.906 183.334 257.879 182.612 257.853 C 181.892 257.823 181.209 257.796 180.582 257.783 C 179.969 257.753 179.41 257.74 178.825 257.727 C 178.241 257.727 177.627 257.727 176.959 257.74 C 176.305 257.753 175.598 257.767 174.862 257.767 C 174.125 257.783 173.35 257.796 172.531 257.796 C 171.715 257.796 170.868 257.796 170.065 257.796 C 169.249 257.783 168.472 257.783 167.737 257.783 C 167.001 257.767 166.292 257.767 165.624 257.767 C 164.971 257.753 164.33 257.753 163.745 257.753 C 163.145 257.753 162.94 257.753 162.56 257.767 C 162.178 257.767 161.606 257.796 160.855 257.836 C 160.094 257.879 159.153 257.949 158.023 258.032 C 156.905 258.129 155.585 258.238 154.086 258.391 C 152.586 258.561 150.91 258.74 149.276 258.919 C 147.641 259.099 146.048 259.281 144.507 259.448 C 142.968 259.614 141.469 259.78 140.011 259.919 C 138.569 260.059 137.152 260.195 135.788 260.308 C 134.427 260.418 133.842 260.461 133.174 260.501 C 132.493 260.557 131.729 260.614 130.871 260.653 C 130.027 260.71 129.086 260.75 128.052 260.793 C 127.015 260.833 125.898 260.863 124.7 260.876 C 123.486 260.889 121.688 260.876 120.04 260.82 C 118.392 260.75 116.893 260.653 115.518 260.531 C 114.154 260.404 112.93 260.265 111.826 260.099 C 110.737 259.946 109.783 259.766 108.964 259.57 C 108.146 259.391 107.247 259.142 106.418 258.893 C 105.573 258.644 104.783 258.365 104.047 258.089 C 103.31 257.796 102.616 257.491 101.976 257.159 C 101.335 256.826 100.75 256.478 100.422 256.325 C 99.851 255.949 100.054 256.228 99.809 256.006 Z M 99.809 256.006" fill-opacity="1" fill-rule="nonzero" style=""/>
  <path fill="#545454" d="M 102.275 250.86 C 103.583 250.056 105.75 248.209 107.766 246.531 C 109.768 244.837 111.662 243.355 113.419 242.063 C 115.191 240.787 116.825 239.704 117.914 239.01 C 119.006 238.332 119.754 237.943 120.612 237.541 C 121.456 237.139 122.397 236.721 123.447 236.292 C 124.481 235.86 125.612 235.419 126.308 235.156 C 127.015 234.877 127.371 234.767 128.036 234.628 C 128.704 234.488 129.658 234.309 130.871 234.073 C 132.098 233.851 133.582 233.545 134.835 233.309 C 136.103 233.086 136.103 233.086 135.258 233.17 C 135.258 233.17 133.54 233.1 132.111 233.13 C 130.679 233.143 129.523 233.199 128.637 233.269 C 127.751 233.352 127.111 233.419 126.742 233.518 C 126.363 233.601 125.136 233.947 123.977 234.309 C 122.834 234.668 121.771 235.03 120.789 235.389 C 119.822 235.751 118.936 236.126 118.133 236.515 C 117.316 236.89 115.667 237.874 113.977 239.149 C 112.288 240.425 110.531 241.923 108.692 243.657 C 106.852 245.378 104.947 247.335 104.115 248.541 C 102.221 250.803 103.338 249.79 102.275 250.86 Z M 102.275 250.86" fill-opacity="1" fill-rule="nonzero" style=""/>
  <path fill="#545454" d="M 224.165 254.215 C 223.715 254.285 222.842 254.521 221.93 254.743 C 221.018 254.966 220.051 255.175 219.028 255.341 C 218.006 255.507 216.93 255.66 216.291 255.73 C 215.649 255.797 215.405 255.826 214.968 255.853 C 214.532 255.866 213.934 255.909 213.17 256.006 C 212.393 256.089 211.468 256.228 210.854 256.325 C 210.241 256.421 210.051 256.451 209.805 256.478 C 209.547 256.521 209.246 256.561 208.906 256.604 C 208.552 256.657 208.157 256.7 207.611 256.77 C 207.053 256.84 206.359 256.893 205.678 256.963 C 204.982 257.032 204.301 257.089 203.62 257.159 C 202.952 257.228 202.271 257.295 201.78 257.281 C 201.278 257.255 201.278 257.255 201.618 257.281 C 201.618 257.281 202.271 257.381 202.939 257.517 C 203.607 257.67 204.274 257.783 204.968 257.879 C 205.665 257.963 206.359 258.032 207.081 258.072 C 207.803 258.115 208.253 258.129 208.633 258.129 C 209.028 258.129 209.355 258.129 209.656 258.129 C 209.942 258.115 210.187 258.115 210.376 258.102 C 210.569 258.102 211.631 258.072 212.515 258.046 C 213.414 258.019 214.124 257.919 214.682 257.823 C 215.241 257.74 215.623 257.67 215.854 257.63 C 216.086 257.587 217.216 257.325 218.292 257.019 C 219.368 256.713 220.376 256.368 221.304 255.979 C 222.229 255.577 223.089 255.132 223.456 254.826 C 224.219 254.328 223.77 254.411 224.165 254.215 Z M 224.165 254.215" fill-opacity="1" fill-rule="nonzero" style=""/>
  <path fill="#545454" d="M 282.446 366.327 C 281.996 366.257 281.097 366.161 280.157 365.951 C 279.203 365.732 278.195 365.383 277.119 364.898 C 276.043 364.4 274.897 363.762 273.985 363.138 C 273.073 362.526 272.488 361.971 272.01 361.334 C 271.534 360.696 271.139 359.958 270.838 359.128 C 270.539 358.307 270.321 357.364 270.212 356.38 C 270.115 355.394 270.131 354.467 270.279 353.576 C 270.417 352.703 270.661 351.859 271.043 351.052 C 271.425 350.248 271.942 349.457 272.569 348.749 C 273.195 348.042 273.904 347.431 274.694 346.906 C 275.484 346.377 276.342 345.949 277.269 345.6 C 278.208 345.255 279.216 345.005 280.17 344.892 C 281.137 344.77 282.051 344.796 282.95 344.906 C 283.849 345.032 284.733 345.241 285.619 345.56 C 286.505 345.879 287.376 346.281 288.168 346.793 C 288.971 347.294 289.652 347.862 290.224 348.457 C 290.811 349.068 291.287 349.706 291.669 350.387 C 292.051 351.082 292.337 351.816 292.514 353.078 C 292.703 354.341 292.623 356.061 292.186 357.656 C 291.75 359.237 290.947 360.696 289.748 362.068 C 288.548 363.443 286.968 364.745 285.552 365.676 C 284.122 366.606 284.122 366.606 285.115 366.064 C 285.115 366.064 287.241 365.23 288.971 364.081 C 290.702 362.928 292.022 361.513 292.95 359.862 C 293.875 358.211 294.366 356.354 294.447 354.301 C 294.515 352.244 294.283 351.191 293.93 350.274 C 293.563 349.361 293.085 348.5 292.472 347.696 C 291.859 346.889 291.123 346.168 290.253 345.504 C 289.393 344.836 288.371 344.268 287.363 343.839 C 286.355 343.394 285.32 343.062 284.284 342.853 C 283.236 342.647 282.173 342.534 281.082 342.564 C 279.993 342.577 278.753 342.8 277.623 343.118 C 276.492 343.451 275.43 343.892 274.434 344.434 C 273.455 344.989 272.54 345.657 271.711 346.421 C 270.879 347.195 270.157 348.125 269.572 349.095 C 268.998 350.068 268.577 351.095 268.317 352.161 C 268.06 353.244 267.964 354.354 268.047 355.507 C 268.114 356.643 268.332 357.809 268.673 358.849 C 269.013 359.905 269.476 360.849 270.048 361.679 C 270.62 362.513 271.316 363.221 272.106 363.802 C 272.909 364.383 274.231 365.064 275.471 365.563 C 276.711 366.078 277.883 366.41 278.985 366.589 C 280.076 366.759 281.082 366.742 281.547 366.606 C 282.446 366.41 282.01 366.397 282.446 366.327 Z M 282.446 366.327" fill-opacity="1" fill-rule="nonzero" style=""/>
  <path fill="#545454" d="M 50.369 361.623 C 49.935 361.556 49.049 361.457 48.082 361.194 C 47.115 360.945 46.065 360.5 44.906 359.888 C 43.75 359.281 42.495 358.473 41.487 357.699 C 40.465 356.909 39.813 356.241 39.28 355.546 C 38.75 354.855 38.34 354.161 38.054 353.44 C 37.768 352.716 37.591 351.982 37.536 351.135 C 37.482 350.304 37.565 349.374 37.768 348.444 C 37.973 347.5 38.326 346.557 38.831 345.6 C 39.322 344.643 39.976 343.673 40.657 342.866 C 41.338 342.062 42.032 341.467 42.822 340.952 C 43.612 340.424 44.511 339.969 45.52 339.594 C 46.528 339.218 47.645 338.913 48.734 338.72 C 49.812 338.537 50.764 338.497 51.691 338.594 C 52.632 338.677 53.557 338.899 54.47 339.261 C 55.384 339.607 56.309 340.105 57.167 340.73 C 58.04 341.368 58.804 342.105 59.456 342.909 C 60.111 343.7 60.655 344.574 61.104 345.49 C 61.554 346.421 61.896 347.417 62.099 348.361 C 62.318 349.304 62.372 350.125 62.305 350.942 C 62.237 351.773 62.019 352.606 61.663 353.467 C 61.309 354.327 60.805 355.214 60.247 356.035 C 59.675 356.852 59.09 357.533 58.407 358.141 C 57.726 358.752 56.936 359.307 56.037 359.822 C 55.138 360.32 54.129 360.805 53.313 361.098 C 52.482 361.387 52.482 361.387 53.053 361.237 C 53.053 361.237 54.212 361.084 55.301 360.819 C 56.392 360.543 57.372 360.141 58.271 359.613 C 59.158 359.098 59.961 358.473 60.655 357.752 C 61.338 357.018 62.073 356.101 62.671 355.145 C 63.258 354.188 63.695 353.204 63.952 352.191 C 64.225 351.178 64.321 350.151 64.238 349.112 C 64.157 348.068 63.898 346.849 63.503 345.683 C 63.108 344.534 62.577 343.437 61.896 342.437 C 61.2 341.437 60.384 340.524 59.443 339.69 C 58.49 338.843 57.414 338.152 56.338 337.624 C 55.26 337.109 54.158 336.737 53.027 336.514 C 51.91 336.305 50.764 336.235 49.62 336.348 C 48.477 336.444 47.141 336.72 45.928 337.082 C 44.717 337.458 43.599 337.916 42.591 338.471 C 41.569 339.039 40.657 339.69 39.867 340.454 C 39.062 341.215 38.204 342.328 37.51 343.437 C 36.814 344.547 36.284 345.683 35.93 346.823 C 35.561 347.959 35.385 349.112 35.398 350.274 C 35.398 351.427 35.574 352.414 35.889 353.341 C 36.201 354.258 36.65 355.131 37.237 355.935 C 37.835 356.756 38.545 357.503 39.402 358.211 C 40.262 358.918 41.733 359.779 43.082 360.43 C 44.444 361.084 45.683 361.526 46.842 361.762 C 47.986 362.011 49.02 362.041 49.485 361.902 C 50.384 361.692 49.948 361.692 50.369 361.623 Z M 50.369 361.623" fill-opacity="1" fill-rule="nonzero" style=""/>
  <path fill="#545454" d="M 37.768 363.593 C 38.259 363.955 39.254 364.427 40.179 364.789 C 41.107 365.161 41.965 365.466 42.726 365.702 C 43.503 365.938 44.199 366.104 44.893 366.257 C 45.587 366.423 46.393 366.576 47.209 366.702 C 48.04 366.842 48.898 366.925 49.784 366.978 C 50.657 367.048 51.569 367.008 52.401 366.938 C 53.245 366.882 54.02 366.772 54.797 366.632 C 55.574 366.493 56.364 366.3 57.154 366.064 C 57.944 365.842 58.734 365.563 59.402 365.287 C 60.07 365.024 60.587 364.759 61.091 364.453 C 61.595 364.134 62.086 363.789 62.549 363.373 C 62.999 362.971 63.435 362.513 63.775 362.181 C 64.116 361.845 64.116 361.845 63.885 362.055 C 63.885 362.055 63.367 362.413 62.822 362.706 C 62.291 362.998 61.772 363.274 61.255 363.496 C 60.738 363.732 60.233 363.928 59.716 364.081 C 59.212 364.247 58.407 364.44 57.632 364.619 C 56.842 364.789 56.078 364.912 55.33 365.008 C 54.579 365.108 53.843 365.177 53.136 365.191 C 52.414 365.217 51.541 365.217 50.683 365.204 C 49.826 365.191 48.994 365.191 48.191 365.147 C 47.386 365.108 46.596 365.051 45.821 364.955 C 45.057 364.855 44.431 364.789 43.734 364.676 C 43.027 364.553 42.237 364.4 41.338 364.204 C 40.452 364.011 39.457 363.789 38.898 363.745 C 37.796 363.526 38.313 363.789 37.768 363.593 Z M 37.768 363.593" fill-opacity="1" fill-rule="nonzero" style=""/>
  <path fill="#545454" d="M 270.185 369.184 C 270.716 369.519 271.778 369.935 272.758 370.267 C 273.74 370.616 274.627 370.878 275.43 371.101 C 276.246 371.323 276.955 371.489 277.813 371.655 C 278.657 371.808 279.639 371.961 280.539 372.071 C 281.425 372.18 282.228 372.263 282.95 372.263 C 283.657 372.28 284.299 372.224 285.237 372.071 C 286.165 371.918 287.459 371.572 288.686 371.044 C 289.912 370.516 291.097 369.808 292.199 368.935 C 293.304 368.048 294.325 366.965 295.073 366.104 C 295.824 365.23 295.824 365.23 295.279 365.759 C 295.279 365.759 294.065 366.676 292.895 367.45 C 291.71 368.214 290.552 368.838 289.393 369.323 C 288.236 369.795 287.064 370.114 285.866 370.28 C 284.679 370.463 284.19 370.476 283.59 370.476 C 283.005 370.463 282.295 370.463 281.505 370.433 C 280.702 370.42 279.803 370.363 278.808 370.28 C 277.813 370.197 277.186 370.127 276.451 370.031 C 275.716 369.921 274.871 369.782 273.93 369.616 C 272.99 369.45 271.942 369.283 271.37 369.267 C 270.212 369.117 270.77 369.353 270.185 369.184 Z M 270.185 369.184" fill-opacity="1" fill-rule="nonzero" style=""/>
  <path fill="#545454" d="M 163.158 318.741 L 162.545 318.824 C 157.041 319.893 153.104 321.96 150.762 325.026 C 148.241 327.883 146.497 332.697 145.531 339.454 C 144.25 337.497 142.982 335.737 141.729 334.169 C 138.663 330.644 136.838 328.774 136.279 328.564 C 133.922 326.677 131.633 325.608 129.44 325.372 C 125.531 325.235 122.22 325.777 119.549 327.023 L 117.642 328.079 C 116.443 328.87 115.381 329.827 114.482 330.963 C 113.582 332.089 112.834 333.391 112.221 334.876 C 111.035 338.707 110.843 342.617 111.649 346.627 C 112.057 348.623 112.712 350.65 113.624 352.703 C 114.523 354.756 115.682 356.826 117.083 358.918 L 119.385 362.081 C 121.989 365.357 125.053 368.021 128.556 370.044 C 130.3 371.057 132.166 371.918 134.128 372.612 C 136.103 373.32 138.187 373.861 140.38 374.25 L 143.745 374.722 C 136.88 372.167 132.207 370.074 129.754 368.45 C 125.885 365.951 122.711 362.985 120.258 359.556 C 119.876 359.224 118.897 357.683 117.301 354.895 L 115.734 351.773 C 114.822 349.719 114.169 347.766 113.759 345.879 C 112.943 342.105 113.146 338.663 114.359 335.541 C 116.742 329.674 121.976 327.093 130.066 327.787 C 132.179 328.355 133.951 329.328 135.38 330.687 C 137.464 332.242 140.38 335.75 144.127 341.215 C 144.795 341.896 145.57 342.118 146.456 341.883 C 147.002 341.59 147.342 341.188 147.493 340.677 L 149.166 332.949 C 149.876 330.644 150.692 328.883 151.633 327.661 C 152.438 326.332 153.839 324.97 155.816 323.598 C 158.88 322.056 161.237 321.212 162.9 321.016 C 162.885 320.435 162.981 319.671 163.158 318.741 Z M 163.158 318.741" fill-opacity="1" fill-rule="nonzero" style=""/>
  <path fill="#545454" d="M 173.363 346.53 L 173.077 347.155 C 170.46 352.663 166.728 358.018 161.864 363.191 C 160.842 364.676 155.12 368.576 144.725 374.888 C 148.8 373.263 152.314 371.669 155.284 370.101 C 158.732 368.157 160.637 366.995 160.993 366.619 C 162.056 365.868 162.981 365.108 163.771 364.37 C 167.531 360.5 170.829 356.035 173.636 350.955 C 174.111 350.068 174.574 349.112 175.052 348.085 C 174.589 347.793 174.031 347.264 173.363 346.53 Z M 173.363 346.53" fill-opacity="1" fill-rule="nonzero" style=""/>
  <path fill="#545454" d="M 186.115 356.546 C 185.447 356.075 184.044 355.284 182.666 354.384 C 181.292 353.48 179.943 352.427 178.62 351.218 C 177.3 350.012 176.006 348.64 174.712 347.168 C 173.404 345.696 172.204 344.228 171.115 342.687 C 170.011 341.148 169.002 339.537 168.103 337.846 C 167.204 336.152 166.427 334.378 165.762 332.518 C 165.107 330.674 164.59 328.857 164.208 327.149 C 163.839 325.428 163.594 323.847 163.485 322.362 C 163.376 320.877 163.405 319.518 163.636 318.146 C 163.854 316.771 164.288 315.342 164.862 314.08 C 165.434 312.817 166.157 311.694 167.014 310.724 C 167.872 309.751 168.88 308.904 170.011 308.239 C 171.141 307.558 172.326 307.087 173.553 306.798 C 174.766 306.519 176.032 306.422 177.341 306.519 C 178.649 306.615 180.01 306.921 180.897 307.24 C 181.796 307.545 182.287 307.811 182.749 308.113 C 183.225 308.406 183.675 308.738 184.124 309.1 C 184.574 309.459 184.997 309.864 185.418 310.293 C 185.842 310.724 186.278 311.223 186.782 311.847 C 187.271 312.472 187.817 313.219 188.417 314.08 C 189.002 314.953 189.657 315.94 190.119 316.634 C 190.595 317.325 190.746 317.478 190.909 317.618 C 191.06 317.757 191.224 317.88 191.414 317.993 C 191.603 318.103 191.837 318.186 192.162 318.216 C 192.489 318.229 192.884 318.103 193.157 317.897 C 193.417 317.674 193.594 317.452 193.729 317.203 C 193.867 316.953 193.976 316.688 194.179 315.967 C 194.371 315.246 194.615 314.276 194.846 313.429 C 195.078 312.568 195.296 311.847 195.486 311.236 C 195.691 310.625 195.868 310.153 196.018 309.781 C 196.169 309.419 196.304 309.113 196.455 308.837 C 196.603 308.545 196.767 308.266 196.931 307.99 C 197.107 307.725 197.284 307.462 197.666 307.017 C 198.061 306.562 198.687 305.951 199.384 305.422 C 200.065 304.897 200.813 304.439 201.618 304.077 C 202.422 303.701 203.279 303.412 204.779 303.19 C 206.276 302.967 208.292 302.994 210.091 303.426 C 211.904 303.854 213.523 304.662 214.981 305.867 C 216.439 307.073 217.762 308.698 218.661 310.708 C 219.573 312.734 219.914 315.219 219.724 318.033 C 219.532 320.837 218.809 323.973 217.53 327.425 C 216.249 330.88 214.423 334.654 212.271 338.012 C 210.119 341.368 207.858 343.936 205.459 346.142 C 203.061 348.361 200.486 350.234 197.721 351.746 C 194.969 353.271 191.998 354.493 189.657 355.257 C 187.313 356.005 187.313 356.005 188.906 355.63 C 188.906 355.63 192.204 355.241 195.324 354.231 C 198.443 353.231 201.385 351.746 204.137 349.819 C 206.889 347.876 209.438 345.504 211.767 342.66 C 214.097 339.83 216.372 335.71 218.089 331.923 C 219.791 328.119 220.935 324.598 221.522 321.335 C 222.107 318.076 222.12 315.08 221.522 312.319 C 220.935 309.572 219.547 307.366 217.993 305.671 C 216.426 303.981 214.641 302.718 212.653 301.914 C 210.665 301.094 208.484 300.748 206.14 300.858 C 203.797 300.957 202.666 301.246 201.673 301.622 C 200.678 301.997 199.75 302.456 198.893 303.024 C 198.022 303.592 197.217 304.256 196.494 305.02 C 195.774 305.771 195.514 306.117 195.296 306.436 C 195.078 306.768 194.875 307.087 194.683 307.436 C 194.493 307.781 194.316 308.143 194.152 308.502 C 194.002 308.851 193.812 309.323 193.607 309.904 C 193.389 310.489 193.17 311.18 192.952 311.987 C 192.721 312.778 192.476 313.691 192.217 314.718 C 191.972 315.731 191.918 315.857 191.863 315.98 C 191.795 316.12 191.754 316.176 191.782 316.163 C 191.795 316.146 191.918 316.076 192.108 316.037 C 192.313 315.993 192.435 316.023 192.476 316.037 C 192.503 316.05 192.489 316.037 192.435 315.98 C 192.38 315.94 192.3 315.857 192.232 315.814 C 192.177 315.757 191.51 314.704 190.855 313.721 C 190.215 312.748 189.602 311.887 189.043 311.14 C 188.485 310.389 187.952 309.751 187.476 309.223 C 186.999 308.711 186.523 308.226 186.019 307.781 C 185.514 307.339 184.997 306.921 184.465 306.549 C 183.921 306.173 183.363 305.841 182.749 305.535 C 182.136 305.216 180.556 304.728 179.031 304.466 C 177.49 304.203 175.977 304.16 174.52 304.356 C 173.049 304.535 171.619 304.937 170.242 305.575 C 168.867 306.213 167.573 307.087 166.442 308.13 C 165.312 309.17 164.358 310.376 163.581 311.721 C 162.804 313.08 162.204 314.578 161.77 316.246 C 161.333 317.91 161.196 319.395 161.211 320.933 C 161.237 322.488 161.401 324.126 161.7 325.86 C 162.001 327.607 162.451 329.438 163.036 331.381 C 163.636 333.322 164.384 335.252 165.257 337.095 C 166.115 338.943 167.11 340.703 168.212 342.368 C 169.317 344.032 170.569 345.6 171.931 347.058 C 173.295 348.514 174.698 349.955 176.169 351.218 C 177.627 352.497 179.111 353.576 180.637 354.467 C 182.149 355.354 183.69 356.048 184.506 356.201 C 186.086 356.629 185.364 356.284 186.115 356.546 Z M 186.115 356.546" fill-opacity="1" fill-rule="nonzero" style=""/>
  <path fill="#545454" d="M 304.216 435.985 C 304.148 436.387 304.161 437.221 304.161 438.095 C 304.174 438.982 304.189 439.938 304.189 440.965 C 304.189 441.978 304.174 443.074 304.148 443.852 C 304.12 444.642 304.052 445.101 303.971 445.529 C 303.888 445.961 303.794 446.35 303.711 446.739 C 303.615 447.111 303.506 447.46 303.207 448.041 C 302.908 448.639 302.363 449.443 301.708 450.151 C 301.042 450.845 300.292 451.453 299.421 451.968 C 298.548 452.496 297.555 452.938 296.736 453.187 C 295.918 453.439 295.918 453.439 296.477 453.326 C 296.477 453.326 297.623 453.217 298.698 452.951 C 299.774 452.702 300.756 452.26 301.656 451.649 C 302.539 451.051 303.33 450.29 303.997 449.386 C 304.678 448.499 304.896 448.041 305.06 447.612 C 305.224 447.194 305.374 446.739 305.442 446.25 C 305.51 445.765 305.564 445.267 305.577 444.725 C 305.593 444.184 305.497 443.018 305.388 441.952 C 305.278 440.868 305.156 439.869 304.993 438.942 C 304.842 438.011 304.665 437.151 304.501 436.762 C 304.283 435.985 304.27 436.374 304.216 435.985 Z M 304.216 435.985" fill-opacity="1" fill-rule="nonzero" style=""/>
  <path fill="#545454" d="M 32.578 433.626 C 32.565 433.683 32.565 433.792 32.55 433.905 C 32.55 434.015 32.537 434.141 32.523 434.251 C 32.51 434.377 32.495 434.5 32.44 434.932 C 32.388 435.347 32.318 436.012 32.264 436.583 C 32.224 437.151 32.183 437.636 32.17 438.025 C 32.141 438.413 32.141 438.706 32.141 438.955 C 32.128 439.217 32.128 439.496 32.128 439.759 C 32.141 440.038 32.141 440.3 32.155 440.563 C 32.17 440.829 32.196 441.091 32.251 441.672 C 32.292 442.257 32.401 443.101 32.523 443.852 C 32.646 444.616 32.838 445.267 33.041 445.835 C 33.259 446.39 33.49 446.862 33.831 447.39 C 34.171 447.901 34.771 448.499 35.548 448.984 C 36.31 449.456 37.251 449.832 38.368 450.081 C 39.485 450.33 40.766 450.443 41.814 450.526 C 42.851 450.596 42.851 450.596 42.17 450.483 C 42.17 450.483 40.834 450.094 39.688 449.705 C 38.558 449.303 37.619 448.888 36.897 448.443 C 36.161 448.001 35.642 447.543 35.289 447.028 C 34.948 446.516 34.784 446.197 34.649 445.779 C 34.498 445.35 34.348 444.822 34.199 444.197 C 34.036 443.559 33.872 442.839 33.708 441.991 C 33.545 441.161 33.503 440.925 33.464 440.676 C 33.423 440.44 33.381 440.187 33.355 439.938 C 33.313 439.676 33.285 439.427 33.259 439.148 C 33.233 438.885 33.204 438.663 33.178 438.357 C 33.15 438.038 33.124 437.636 33.082 437.124 C 33.054 436.623 32.999 436.028 32.945 435.334 C 32.877 434.64 32.864 434.5 32.838 434.364 C 32.809 434.238 32.796 434.111 32.768 434.002 C 32.742 433.892 32.713 433.779 32.687 433.723 C 32.659 433.626 32.591 433.683 32.578 433.626 Z M 32.578 433.626" fill-opacity="1" fill-rule="nonzero" style=""/>
  <path fill="#545454" d="M 131.212 429.59 C 131.456 429.783 132.056 430.062 132.737 430.311 C 133.418 430.56 134.167 430.769 134.998 430.962 C 135.83 431.158 136.729 431.324 137.288 431.42 C 137.859 431.503 138.065 431.533 138.268 431.56 C 138.473 431.603 138.691 431.63 138.909 431.643 C 139.127 431.67 139.346 431.699 139.536 431.726 C 139.725 431.739 139.931 431.753 140.203 431.782 C 140.461 431.796 140.804 431.822 141.199 431.852 C 141.594 431.879 142.056 431.905 142.368 431.935 C 142.669 431.949 142.792 431.962 142.914 431.975 C 143.023 431.975 143.145 431.988 143.267 432.005 C 143.392 432.018 143.514 432.018 143.636 432.032 C 143.772 432.045 143.951 432.058 144.25 432.088 C 144.535 432.115 144.93 432.158 145.435 432.198 C 145.926 432.254 146.524 432.307 146.934 432.351 C 147.355 432.394 147.519 432.407 147.696 432.42 C 147.888 432.434 148.077 432.447 148.283 432.46 C 148.486 432.477 148.717 432.49 148.964 432.503 C 149.208 432.517 149.452 432.53 149.712 432.543 C 149.972 432.56 150.229 432.573 150.476 432.573 C 150.733 432.586 150.993 432.6 151.211 432.6 C 151.43 432.6 151.687 432.613 152.041 432.613 C 152.396 432.613 152.846 432.63 153.389 432.613 C 153.948 432.613 154.59 432.613 155.026 432.6 C 155.447 432.6 155.611 432.6 155.775 432.6 C 155.952 432.6 156.141 432.613 156.347 432.613 C 156.552 432.613 156.783 432.63 156.973 432.63 C 157.178 432.643 157.355 432.643 157.519 432.656 C 157.695 432.656 157.859 432.67 158.036 432.683 C 158.199 432.683 158.376 432.696 158.677 432.713 C 158.99 432.739 159.467 432.766 159.998 432.796 C 160.53 432.836 161.128 432.879 161.77 432.919 C 162.422 432.962 163.132 433.015 163.649 433.058 C 164.166 433.085 164.439 433.101 164.683 433.115 C 164.917 433.128 165.133 433.141 165.312 433.155 C 165.502 433.168 165.652 433.168 165.775 433.184 C 165.884 433.184 165.964 433.184 166.061 433.198 C 166.141 433.198 166.224 433.198 166.32 433.198 C 166.401 433.198 166.497 433.211 166.7 433.211 C 166.918 433.211 167.219 433.211 167.505 433.211 C 167.791 433.224 168.049 433.224 168.28 433.224 C 168.514 433.224 168.716 433.224 169.031 433.224 C 169.343 433.224 169.834 433.238 170.406 433.238 C 170.977 433.251 171.632 433.267 172.368 433.281 C 173.103 433.294 173.908 433.307 174.465 433.321 C 175.011 433.321 175.242 433.321 175.473 433.321 C 175.707 433.321 175.938 433.321 176.169 433.307 C 176.401 433.307 176.632 433.307 176.892 433.294 C 177.162 433.294 177.477 433.281 177.817 433.251 C 178.144 433.238 178.498 433.211 178.867 433.184 C 179.234 433.155 179.629 433.115 180.665 433.002 C 181.713 432.892 183.24 432.713 184.561 432.543 C 185.883 432.364 186.985 432.198 187.858 432.018 C 188.744 431.852 189.397 431.686 189.792 431.616 C 190.187 431.547 190.187 431.547 189.914 431.573 C 189.914 431.573 189.397 431.586 188.648 431.547 C 187.898 431.503 186.931 431.477 185.746 431.477 C 184.561 431.477 183.171 431.477 181.551 431.503 C 179.93 431.533 179.535 431.547 179.166 431.547 C 178.799 431.547 178.443 431.547 178.103 431.547 C 177.763 431.547 177.45 431.533 177.162 431.533 C 176.863 431.517 176.645 431.503 176.414 431.503 C 176.196 431.49 175.977 431.477 175.746 431.464 C 175.528 431.45 175.296 431.434 175.078 431.42 C 174.862 431.407 174.002 431.337 173.212 431.281 C 172.422 431.228 171.715 431.185 171.087 431.145 C 170.46 431.101 169.917 431.075 169.439 431.045 C 168.963 431.018 168.771 431.018 168.553 431.005 C 168.335 430.992 168.09 430.979 167.817 430.979 C 167.545 430.962 167.259 430.962 166.931 430.949 C 166.619 430.949 166.552 430.949 166.469 430.949 C 166.388 430.949 166.305 430.935 166.224 430.935 C 166.141 430.935 166.061 430.935 165.978 430.935 C 165.897 430.922 165.762 430.922 165.611 430.909 C 165.447 430.909 165.257 430.895 165.039 430.879 C 164.821 430.866 164.574 430.852 164.304 430.839 C 164.031 430.826 163.28 430.769 162.599 430.713 C 161.905 430.673 161.266 430.616 160.692 430.59 C 160.12 430.547 159.603 430.507 159.14 430.477 C 158.677 430.45 158.498 430.45 158.322 430.437 C 158.145 430.424 157.968 430.424 157.791 430.407 C 157.615 430.394 157.436 430.394 157.259 430.381 C 157.082 430.381 156.838 430.367 156.619 430.367 C 156.401 430.354 156.183 430.354 155.993 430.354 C 155.801 430.354 155.624 430.354 155.447 430.354 C 155.284 430.354 154.577 430.354 153.963 430.354 C 153.337 430.367 152.833 430.367 152.41 430.381 C 152.001 430.394 151.687 430.394 151.469 430.394 C 151.266 430.394 151.006 430.407 150.762 430.407 C 150.515 430.407 150.271 430.407 150.011 430.407 C 149.767 430.407 149.522 430.407 149.276 430.407 C 149.018 430.394 148.8 430.394 148.582 430.394 C 148.363 430.394 148.174 430.394 147.981 430.381 C 147.805 430.381 147.628 430.381 147.477 430.367 C 147.329 430.367 146.661 430.337 146.089 430.311 C 145.531 430.284 145.053 430.271 144.699 430.254 C 144.33 430.241 144.057 430.241 143.896 430.241 C 143.717 430.228 143.595 430.228 143.473 430.228 C 143.35 430.228 143.228 430.228 143.104 430.228 C 142.982 430.228 142.859 430.228 142.737 430.228 C 142.615 430.228 142.098 430.228 141.661 430.228 C 141.225 430.228 140.843 430.241 140.544 430.241 C 140.23 430.241 139.998 430.241 139.835 430.241 C 139.658 430.241 139.44 430.228 139.221 430.228 C 139.005 430.228 138.8 430.228 138.595 430.214 C 138.392 430.214 138.187 430.201 137.997 430.188 C 137.805 430.188 136.864 430.131 135.993 430.062 C 135.121 429.992 134.33 429.909 133.595 429.826 C 132.86 429.729 132.179 429.633 131.851 429.616 C 131.238 429.52 131.498 429.686 131.212 429.59 Z M 131.212 429.59" fill-opacity="1" fill-rule="nonzero" style=""/>
  <path fill="#545454" d="M 277.09 386.499 C 277.145 386.525 277.269 386.568 277.433 386.595 C 277.595 386.638 277.787 386.678 278.018 386.721 C 278.236 386.761 278.494 386.804 280.224 386.97 C 281.955 387.137 285.128 387.359 285.333 387.372 C 285.539 387.402 285.742 387.416 285.934 387.442 C 286.123 387.455 286.315 387.485 286.477 387.512 C 286.656 387.539 286.833 387.568 287.199 387.638 C 287.568 387.721 287.95 387.831 288.33 387.97 C 288.712 388.11 289.107 388.289 289.53 388.482 C 289.951 388.665 290.388 388.884 291.246 389.399 C 292.119 389.927 292.88 390.648 293.603 391.578 C 294.325 392.505 294.98 393.671 295.606 394.601 C 296.232 395.532 296.232 395.532 295.96 394.837 C 295.96 394.837 295.864 393.269 295.266 392.007 C 294.665 390.758 293.93 389.705 293.044 388.857 C 292.173 388.01 291.206 387.402 290.728 387.137 C 290.266 386.874 289.788 386.651 289.312 386.485 C 288.834 386.333 288.371 386.206 287.909 386.123 C 287.446 386.04 287.023 386 286.833 385.987 C 286.641 385.97 286.451 385.957 286.246 385.957 C 286.043 385.944 285.824 385.944 285.606 385.944 C 285.388 385.931 285.144 385.944 281.968 386.11 C 278.782 386.276 278.509 386.306 278.262 386.319 C 278.018 386.346 277.8 386.359 277.623 386.376 C 277.446 386.389 277.296 386.402 277.228 386.416 C 277.106 386.416 277.145 386.499 277.09 386.499 Z M 277.09 386.499" fill-opacity="1" fill-rule="nonzero" style=""/>
  <path fill="#545454" d="M 35.302 399.485 C 35.481 398.777 35.657 397.472 35.902 396.349 C 36.161 395.226 36.502 394.269 36.952 393.505 C 37.401 392.728 37.945 392.116 38.394 391.744 C 38.859 391.369 39.13 391.146 39.457 390.924 C 39.784 390.688 40.179 390.482 40.616 390.259 C 41.065 390.05 41.569 389.827 42.074 389.661 C 42.578 389.495 43.15 389.372 43.817 389.233 C 44.485 389.107 45.234 388.967 46.065 388.831 C 46.897 388.678 47.822 388.495 48.544 388.412 C 49.28 388.316 49.28 388.316 48.789 388.346 C 48.789 388.346 47.809 388.259 46.897 388.206 C 45.982 388.15 45.153 388.15 44.402 388.176 C 43.654 388.206 42.986 388.259 42.373 388.346 C 41.775 388.429 41.161 388.595 40.616 388.774 C 40.057 388.954 39.566 389.15 39.103 389.372 C 38.654 389.592 38.246 389.844 37.905 390.12 C 37.565 390.399 36.882 391.09 36.325 391.967 C 35.766 392.841 35.385 393.851 35.166 394.99 C 34.961 396.139 34.907 397.418 35.057 398.096 C 35.221 399.485 35.275 398.777 35.302 399.485 Z M 35.302 399.485" fill-opacity="1" fill-rule="nonzero" style=""/>
  <path fill="#545454" d="M 27.401 340.869 C 27.646 340.524 28.054 339.733 28.519 338.859 C 28.981 337.969 29.527 337.012 30.14 335.973 C 30.751 334.933 31.447 333.807 32.17 332.727 C 32.877 331.644 33.641 330.631 34.472 329.591 C 35.317 328.538 36.242 327.468 37.251 326.372 C 38.259 325.275 39.309 324.109 40.561 322.847 C 41.814 321.584 43.285 320.405 44.813 319.435 C 46.351 318.478 47.944 317.757 49.607 317.229 C 51.283 316.701 53.04 316.355 54.402 316.246 C 55.779 316.12 55.779 316.12 54.865 316.12 C 54.865 316.12 53.012 315.884 51.174 315.993 C 49.334 316.106 47.536 316.535 45.779 317.242 C 44.023 317.95 42.318 318.95 40.683 320.199 C 39.036 321.462 37.822 322.654 36.759 323.82 C 35.684 324.983 34.73 326.162 33.872 327.315 C 32.999 328.468 32.238 329.591 31.557 330.7 C 30.876 331.823 30.208 333.086 29.636 334.265 C 29.077 335.444 28.599 336.541 28.204 337.567 C 27.823 338.58 27.537 339.524 27.495 339.982 C 27.318 340.843 27.524 340.481 27.401 340.869 Z M 27.401 340.869" fill-opacity="1" fill-rule="nonzero" style=""/>
  <path fill="#545454" d="M 278.044 315.757 C 278.644 315.884 279.775 315.91 280.825 315.94 C 281.887 315.98 282.854 316.037 283.766 316.133 C 284.666 316.229 285.497 316.355 286.178 316.535 C 286.859 316.701 287.485 316.953 288.099 317.272 C 288.725 317.575 289.338 317.963 289.967 318.422 C 290.593 318.894 291.219 319.422 291.817 320.046 C 292.417 320.671 293.005 321.392 293.603 322.169 C 294.19 322.947 294.774 323.777 295.333 324.681 C 295.892 325.581 296.422 326.538 296.859 327.385 C 297.282 328.232 297.636 329.063 298.031 330.119 C 298.413 331.172 298.862 332.461 299.353 333.959 C 299.842 335.458 300.429 337.178 300.879 338.58 C 301.328 339.969 301.328 339.969 301.097 339.026 C 301.097 339.026 300.905 337.056 300.619 335.335 C 300.346 333.614 300.034 332.129 299.707 330.853 C 299.392 329.577 299.093 328.521 298.779 327.677 C 298.48 326.843 298.004 325.734 297.485 324.707 C 296.968 323.667 296.422 322.694 295.824 321.78 C 295.237 320.877 294.585 320.06 293.875 319.296 C 293.181 318.548 292.431 317.937 291.695 317.409 C 290.973 316.884 290.253 316.438 289.517 316.076 C 288.779 315.718 288.044 315.439 287.295 315.246 C 286.547 315.037 285.674 314.953 284.762 314.914 C 283.849 314.884 282.88 314.897 281.846 314.983 C 280.825 315.066 279.733 315.233 279.177 315.425 C 278.044 315.691 278.631 315.704 278.044 315.757 Z M 278.044 315.757" fill-opacity="1" fill-rule="nonzero" style=""/>
  <path fill="#545454" d="M 231.576 214.732 C 232.98 215.579 235.854 216.994 238.645 218.575 C 241.426 220.157 244.149 221.921 246.753 223.904 C 249.354 225.901 251.847 228.133 253.767 230.203 C 255.69 232.283 257.023 234.226 258.224 236.432 C 259.435 238.638 260.511 241.106 261.519 243.81 C 262.527 246.531 263.455 249.484 264.136 251.843 C 264.817 254.202 264.817 254.202 264.463 252.607 C 264.463 252.607 264.068 249.348 263.333 246.352 C 262.597 243.368 261.656 240.634 260.511 238.179 C 259.38 235.724 258.086 233.532 256.628 231.588 C 255.186 229.631 252.706 227.19 250.118 225 C 247.543 222.808 244.845 220.851 242.026 219.173 C 239.204 217.492 236.249 216.12 234.682 215.689 C 231.589 214.692 233.089 215.287 231.576 214.732 Z M 231.576 214.732" fill-opacity="1" fill-rule="nonzero" style=""/>
  <path fill="#545454" d="M 64.947 257.753 C 64.947 257.6 64.961 257.159 65.043 256.534 C 65.111 255.896 65.246 255.049 65.438 253.996 C 65.628 252.926 65.873 251.664 66.187 250.209 C 66.499 248.75 66.826 247.378 67.099 246.225 C 67.372 245.073 67.603 244.146 67.78 243.452 C 67.957 242.757 68.094 242.312 68.352 241.412 C 68.625 240.508 69.074 239.109 69.592 237.747 C 70.096 236.389 70.654 235.057 71.283 233.781 C 71.909 232.505 72.59 231.256 73.516 229.867 C 74.443 228.482 75.779 226.97 77.413 225.555 C 79.048 224.14 80.995 222.834 83.258 221.615 C 85.532 220.393 88.107 219.227 90.191 218.396 C 92.289 217.562 92.289 217.562 90.859 218.007 C 90.859 218.007 87.876 218.549 85.22 219.423 C 82.575 220.31 80.22 221.406 78.162 222.695 C 76.119 224 74.36 225.472 72.931 227.137 C 71.499 228.801 70.683 230.103 69.974 231.435 C 69.266 232.768 68.64 234.143 68.081 235.558 C 67.536 236.973 67.073 238.442 66.691 239.94 C 66.309 241.438 66.213 241.757 66.091 242.355 C 65.969 242.937 65.805 243.741 65.628 244.77 C 65.452 245.81 65.246 247.059 65.028 248.541 C 64.81 250.039 64.675 251.498 64.594 252.717 C 64.511 253.953 64.485 254.979 64.524 255.783 C 64.552 256.59 64.648 257.185 64.729 257.408 C 64.864 257.767 64.893 257.6 64.947 257.753 Z M 64.947 257.753" fill-opacity="1" fill-rule="nonzero" style=""/>
  <path fill="#545454" d="M 123.119 332.78 C 122.779 332.614 122.098 332.478 121.43 332.461 C 120.762 332.461 120.123 332.574 119.523 332.81 C 118.91 333.032 118.351 333.391 117.834 333.85 C 117.301 334.321 116.852 334.89 116.457 335.527 C 116.077 336.182 115.763 336.916 115.518 337.72 C 115.272 338.537 115.095 339.428 115.014 340.218 C 114.918 341.022 114.905 341.743 115.014 342.507 C 115.136 343.255 115.326 344.045 115.586 344.853 C 115.859 345.67 116.212 346.53 116.594 347.361 C 116.989 348.208 117.41 349.012 117.888 349.819 C 118.379 350.61 118.923 351.4 119.523 352.148 C 120.136 352.912 120.817 353.633 121.321 354.188 C 121.838 354.743 121.838 354.743 121.526 354.354 C 121.526 354.354 121.007 353.493 120.544 352.633 C 120.068 351.773 119.632 350.942 119.237 350.125 C 118.842 349.291 118.486 348.487 118.174 347.666 C 117.86 346.849 117.561 345.989 117.33 345.185 C 117.098 344.394 116.935 343.643 116.839 342.966 C 116.742 342.285 116.716 341.66 116.703 341.079 C 116.703 340.494 116.758 339.634 116.867 338.873 C 116.976 338.095 117.153 337.401 117.384 336.79 C 117.615 336.165 117.901 335.61 118.255 335.139 C 118.611 334.654 119.006 334.252 119.44 333.933 C 119.89 333.614 120.381 333.378 120.926 333.212 C 121.472 333.059 122.083 332.963 122.41 332.893 C 123.106 332.863 122.766 332.727 123.119 332.78 Z M 123.119 332.78" fill-opacity="1" fill-rule="nonzero" style=""/>
  <path fill="#545454" d="M 206.631 306.671 C 207.585 306.921 209.274 307.253 210.678 307.851 C 212.066 308.432 213.183 309.309 214.056 310.459 C 214.927 311.611 215.581 313.067 215.896 314.276 C 216.221 315.482 216.33 316.216 216.426 316.967 C 216.509 317.714 216.535 318.492 216.494 319.296 C 216.468 320.116 216.358 320.947 216.086 322.086 C 215.826 323.222 215.392 324.598 214.955 325.843 C 214.519 327.093 214.056 328.219 213.606 329.215 C 213.144 330.229 212.679 331.129 212.284 331.714 C 211.876 332.308 211.876 332.308 212.175 331.936 C 212.175 331.936 212.858 331.255 213.539 330.438 C 214.22 329.617 214.859 328.634 215.459 327.495 C 216.073 326.358 216.644 325.083 217.203 323.654 C 217.762 322.222 217.993 321.266 218.144 320.352 C 218.292 319.435 218.375 318.548 218.375 317.661 C 218.375 316.784 218.307 315.91 218.102 315.066 C 217.897 314.219 217.229 312.372 216.276 310.861 C 215.322 309.336 214.082 308.183 212.611 307.436 C 211.127 306.698 209.438 306.353 208.524 306.462 C 206.631 306.588 207.598 306.645 206.631 306.671 Z M 206.631 306.671" fill-opacity="1" fill-rule="nonzero" style=""/>
  <path fill="#545454" d="M 138.377 405.338 C 138.54 405.505 139.031 405.797 139.699 406.076 C 140.367 406.352 141.225 406.644 142.274 406.92 C 143.322 407.199 144.535 407.491 145.312 407.641 C 146.074 407.81 146.43 407.863 147.002 407.933 C 147.573 408.003 148.376 408.086 149.413 408.182 C 150.448 408.282 151.729 408.391 152.545 408.461 C 153.376 408.518 153.732 408.544 154.249 408.571 C 154.753 408.614 155.421 408.641 156.251 408.684 C 157.069 408.724 158.064 408.767 158.732 408.78 C 159.413 408.807 159.631 408.807 159.862 408.807 C 160.094 408.807 160.325 408.807 160.556 408.793 C 160.775 408.793 161.006 408.78 162.436 408.71 C 163.867 408.627 166.469 408.488 167.859 408.448 C 169.234 408.405 170.652 408.335 172.069 408.239 C 173.498 408.156 174.943 408.046 176.388 407.933 C 177.846 407.823 179.343 407.684 181.876 407.352 C 184.425 407.003 186.468 406.684 188.035 406.395 C 189.615 406.089 190.691 405.823 191.263 405.644 C 191.837 405.465 191.837 405.465 191.455 405.521 C 191.455 405.521 190.65 405.465 189.384 405.491 C 188.116 405.521 186.359 405.574 184.14 405.687 C 181.905 405.784 179.207 405.923 177.749 405.95 C 176.292 405.99 174.847 406.019 173.417 406.046 C 171.986 406.076 170.569 406.103 169.166 406.142 C 167.776 406.186 166.373 406.242 163.745 406.378 C 161.128 406.518 160.925 406.531 160.707 406.531 C 160.489 406.548 160.271 406.548 160.052 406.561 C 159.834 406.561 159.616 406.561 159.413 406.574 C 159.195 406.574 158.103 406.574 157.178 406.574 C 156.237 406.574 155.476 406.574 154.863 406.574 C 154.262 406.574 153.813 406.561 153.527 406.561 C 153.241 406.561 151.809 406.518 150.624 406.504 C 149.426 406.478 148.472 406.461 147.75 406.448 C 147.028 406.421 146.552 406.408 146.334 406.395 C 146.102 406.365 144.741 406.225 143.569 406.089 C 142.397 405.95 141.415 405.81 140.598 405.687 C 139.78 405.548 139.154 405.421 138.881 405.395 C 138.418 405.269 138.569 405.451 138.377 405.338 Z M 138.377 405.338" fill-opacity="1" fill-rule="nonzero" style=""/>
  <path fill="#545454" d="M 82.413 312.694 C 82.616 312.498 83.133 312.013 83.923 311.402 C 84.7 310.807 85.776 310.07 87.112 309.196 C 88.461 308.336 90.082 307.352 91.226 306.645 C 92.372 305.951 93.052 305.562 94.128 305.007 C 95.204 304.439 96.662 303.718 98.474 302.814 C 100.3 301.927 102.48 300.831 104.905 299.678 C 107.343 298.529 109.578 297.542 111.444 296.738 C 113.325 295.934 114.822 295.31 115.939 294.865 C 117.057 294.423 117.792 294.187 118.868 293.825 C 119.944 293.463 121.511 292.925 123.146 292.436 C 124.767 291.938 126.456 291.493 128.2 291.091 C 129.959 290.675 131.771 290.26 133.174 289.994 C 134.562 289.732 134.562 289.732 133.623 289.828 C 133.623 289.828 131.716 289.775 129.863 289.885 C 128.01 289.994 126.212 290.217 124.468 290.536 C 122.738 290.855 121.048 291.244 119.44 291.702 C 117.834 292.16 117.316 292.257 116.347 292.536 C 115.368 292.825 114.06 293.297 112.397 293.951 C 110.721 294.602 108.705 295.476 106.321 296.529 C 103.938 297.585 101.485 298.818 99.443 299.888 C 97.398 300.971 95.722 301.884 94.414 302.648 C 93.107 303.399 92.153 303.994 91.566 304.396 C 90.981 304.811 89.251 306.034 87.793 307.143 C 86.335 308.253 85.15 309.239 84.279 310.1 C 83.393 310.974 82.793 311.708 82.629 312.053 C 82.343 312.651 82.549 312.442 82.413 312.694 Z M 82.413 312.694" fill-opacity="1" fill-rule="nonzero" style=""/>
  <path fill="#545454" d="M 279.666 160.156 L 279.666 160.169 C 277.61 167.245 276.084 173.75 275.076 179.703 C 274.203 185.281 273.74 190.842 273.673 196.407 C 273.577 199.805 273.904 204.549 274.666 210.639 C 275.539 217.509 276.097 221.599 276.342 222.931 C 276.833 226.123 278.005 233.073 279.871 243.784 C 280.035 244.77 280.183 245.767 280.307 246.754 C 281.11 252.996 281.615 258.697 281.82 263.873 C 282.16 270.766 282.106 276.802 281.641 281.991 C 281.492 284.224 281.178 287.014 280.729 290.357 L 278.998 301.067 L 278.631 302.828 C 278.577 303.216 278.548 303.496 278.548 303.662 L 278.291 304.535 L 278.522 304.12 C 282.023 296.28 283.862 286.167 284.052 273.792 C 284.107 266.397 283.699 258.561 282.787 250.249 C 282.459 247.475 282.199 245.435 281.981 244.129 C 279.502 229.841 278.099 221.393 277.774 218.785 C 276.506 209.642 275.838 203.4 275.742 200.041 C 275.606 195.879 275.783 191.231 276.3 186.098 C 276.519 183.866 276.778 181.66 277.064 179.481 C 278.564 168.966 279.434 162.528 279.666 160.156" fill-opacity="1" fill-rule="nonzero" style=""/>
  <path fill="#545454" d="M 309.746 140.482 L 309.746 140.496 C 303.74 146.117 299.488 156.116 296.981 170.504 C 295.728 175.667 294.665 187.693 293.808 206.589 C 293.467 213.941 293.249 221.738 293.181 229.98 C 293.14 231.95 293.194 241.133 293.358 257.517 L 293.304 261.942 C 293.249 265.856 292.989 269.879 292.5 273.998 C 291.926 278.995 290.565 284.35 288.426 290.064 C 287.594 292.16 286.669 294.13 285.632 295.974 C 282.527 301.15 280.648 303.937 279.967 304.356 L 280.715 303.854 C 287.431 298.403 291.872 289.622 294.039 277.51 C 294.733 273.444 295.156 268.646 295.307 263.138 L 295.375 257.919 C 295.224 241.01 295.17 231.798 295.211 230.256 C 295.266 223.668 295.414 217.243 295.661 210.974 C 296.165 197.709 296.846 187.251 297.69 179.62 C 300.198 160.781 304.216 147.738 309.746 140.482" fill-opacity="1" fill-rule="nonzero" style=""/>
  <path fill="#545454" d="M 313.534 212.084 L 313.521 212.097 C 310.564 215.287 308.03 220.117 305.933 226.552 C 304.896 229.911 303.917 233.671 302.976 237.817 C 300.497 250.943 299.174 257.63 299.039 257.866 C 298.004 262.178 296.926 265.829 295.783 268.839 C 294.884 271.268 293.616 274.085 291.955 277.274 L 279.107 300.22 C 277.883 303.203 277.392 305.436 277.664 306.921 C 278.454 304.466 279.19 302.635 279.871 301.429 C 285.796 291.815 290.307 284.307 293.413 278.899 C 295.143 275.623 296.547 272.6 297.594 269.822 C 298.834 266.55 299.993 262.637 301.082 258.072 C 301.354 257.115 302.622 250.664 304.855 238.708 C 305.442 236.043 306.136 233.253 306.941 230.356 C 308.303 225.569 309.08 222.987 309.283 222.599 C 309.61 221.572 310.754 218.825 312.716 214.4 C 313.358 212.709 313.63 211.945 313.534 212.084" fill-opacity="1" fill-rule="nonzero" style=""/>
  <path fill="#545454" d="M 312.308 190.55 L 312.227 190.55 C 310.632 190.676 309.283 191.55 308.181 193.188 C 307.144 194.686 306.614 196.752 306.573 199.374 C 306.518 201.802 307.009 204.3 308.03 206.868 C 309.312 209.905 310.66 212.028 312.048 213.233 L 310.25 209.141 C 309.909 208.337 309.624 207.519 309.366 206.729 C 308.779 204.829 308.452 203.108 308.384 201.526 C 308.181 197.543 309.039 194.726 311.001 193.091 C 311.627 192.633 312.186 192.48 312.703 192.62 C 313.342 192.786 313.971 193.284 314.584 194.118 C 314.979 194.643 315.265 195.311 315.483 196.141 C 315.59 196.573 315.673 197.002 315.754 197.433 L 316.258 200.706 C 316.437 201.178 316.723 201.483 317.118 201.623 C 317.539 201.749 317.976 201.663 318.397 201.33 C 319.979 199.5 321.273 198.251 322.295 197.626 C 323.329 197.002 324.283 196.643 325.14 196.573 C 326.19 196.447 327.022 196.713 327.661 197.337 C 328.397 198.168 328.792 199.224 328.833 200.513 C 328.916 203.078 327.812 205.231 325.536 206.951 C 324.61 207.725 323.384 208.49 321.871 209.28 L 319.787 210.267 C 317.24 211.28 315.686 211.918 315.128 212.18 C 314.392 212.513 313.534 212.971 312.568 213.569 C 312.703 213.499 312.934 213.4 313.262 213.317 C 314.883 212.928 316.926 212.403 319.392 211.735 C 319.746 211.639 320.346 211.446 321.203 211.127 C 323.438 210.307 325.21 209.406 326.531 208.45 C 329.446 206.519 330.891 203.829 330.863 200.387 C 330.795 198.835 330.332 197.49 329.488 196.364 C 328.82 195.434 327.799 194.826 326.45 194.576 C 325.169 194.324 323.711 194.603 322.063 195.394 C 320.741 196.045 319.392 197.168 317.989 198.752 C 317.703 196.032 317.131 194.105 316.286 192.992 C 315.211 191.454 313.875 190.65 312.308 190.55" fill-opacity="1" fill-rule="nonzero" style=""/>
  <g clip-path="url(#c8683c6193)" style="" transform="matrix(3.487604, 0, 0, 3.551583, -823.056775, -1171.161272)">
    <path fill="#545454" d="M 325.789062 362.621094 L 325.722656 362.621094 C 324.53125 362.730469 323.746094 363.507812 323.371094 364.960938 C 323.144531 366.285156 323.496094 367.660156 324.429688 369.09375 C 324.085938 367.882812 323.902344 367.160156 323.871094 366.917969 C 323.785156 366.496094 323.765625 366.023438 323.808594 365.492188 C 323.949219 364.472656 324.414062 363.75 325.199219 363.328125 C 325.476562 363.210938 325.746094 363.167969 326 363.210938 C 326.148438 363.214844 326.277344 363.316406 326.394531 363.507812 C 326.496094 363.6875 326.558594 363.863281 326.578125 364.039062 C 326.621094 364.289062 326.601562 364.757812 326.519531 365.449219 C 326.527344 365.566406 326.578125 365.660156 326.664062 365.730469 C 326.78125 365.8125 326.902344 365.824219 327.03125 365.773438 C 327.632812 365.355469 328.097656 365.09375 328.429688 364.996094 C 328.691406 364.917969 328.90625 364.910156 329.078125 364.964844 C 329.78125 365.183594 330.066406 365.742188 329.9375 366.640625 C 329.816406 367.296875 329.382812 367.855469 328.640625 368.3125 C 328.421875 368.429688 328.210938 368.511719 328.007812 368.566406 C 326.335938 368.863281 325.480469 369.035156 325.445312 369.078125 C 325.117188 369.1875 324.816406 369.367188 324.539062 369.613281 C 324.734375 369.488281 325.054688 369.378906 325.5 369.289062 L 328.019531 369.042969 C 328.308594 368.996094 328.601562 368.902344 328.902344 368.757812 C 329.855469 368.207031 330.390625 367.535156 330.507812 366.738281 C 330.617188 365.863281 330.4375 365.222656 329.976562 364.816406 C 329.625 364.511719 329.210938 364.355469 328.726562 364.351562 C 328.300781 364.371094 327.773438 364.589844 327.144531 365.003906 C 327.234375 364.1875 327.15625 363.597656 326.910156 363.238281 C 326.789062 363.023438 326.628906 362.859375 326.429688 362.746094 C 326.226562 362.660156 326.011719 362.617188 325.789062 362.621094 " fill-opacity="1" fill-rule="nonzero"/>
  </g>
  <path fill="#545454" d="M 273.208 137.389 L 273.169 137.389 C 271.506 137.529 270.375 138.526 269.762 140.356 C 269.162 141.954 269.203 144.13 269.884 146.891 C 270.347 149.113 271.602 151.638 273.618 154.495 C 275.539 157.199 277.363 158.947 279.135 159.754 L 279.775 159.973 C 278.044 158.448 276.519 156.605 275.198 154.439 C 274.135 152.748 273.223 150.93 272.472 149 C 271.139 144.894 270.988 141.981 272.023 140.22 C 272.691 139.137 273.577 139.15 274.694 140.233 C 275.006 140.565 275.43 141.19 275.96 142.107 L 278.169 147.017 C 278.454 147.446 278.753 147.681 279.094 147.725 C 279.557 147.851 279.952 147.738 280.307 147.363 C 280.388 147.296 280.471 147.143 280.565 146.934 C 280.988 145.811 281.3 145.034 281.519 144.602 C 281.804 144.034 282.064 143.605 282.295 143.313 C 283.072 142.326 283.943 141.675 284.897 141.369 C 287.241 140.662 288.875 141.648 289.829 144.313 C 290.375 146.087 289.993 148.127 288.686 150.429 C 288.33 151 287.935 151.512 287.501 151.957 C 283.385 155.827 281.383 157.754 281.479 157.741 C 280.484 159.003 279.912 159.973 279.749 160.668 C 281.124 159.226 281.981 158.379 282.35 158.116 L 288.548 153.206 C 289.148 152.678 289.694 152.067 290.17 151.386 C 291.859 148.821 292.391 146.283 291.778 143.771 C 290.619 140.526 288.657 138.984 285.879 139.137 C 282.963 139.346 280.77 141.15 279.299 144.575 C 278.535 142.785 278.018 141.635 277.745 141.12 C 277.228 140.22 276.765 139.526 276.37 139.041 C 275.253 137.918 274.203 137.36 273.208 137.389" fill-opacity="1" fill-rule="nonzero" style=""/>
  <path fill="#545454" d="M 26.952 150.223 L 26.952 150.236 C 35.371 172.435 40.275 188.221 41.679 197.573 C 42.768 203.815 43.573 211.363 44.09 220.24 C 44.212 220.336 44.797 236.279 45.847 268.062 C 46.242 274.985 46.733 280.952 47.331 285.945 C 48.599 296.267 51.46 304.064 55.888 309.336 C 52.427 302.343 50.166 293.785 49.116 283.656 C 48.558 278.314 48.163 273.155 47.905 268.188 L 46.596 230.924 C 46.393 225.319 46.216 221.432 46.065 219.296 C 45.533 210.503 44.703 202.995 43.586 196.796 C 40.07 179.119 34.54 163.594 26.952 150.223" fill-opacity="1" fill-rule="nonzero" style=""/>
  <path fill="#545454" d="M 75.314 173.003 L 71.608 184.919 C 67.019 197.696 62.645 210.682 58.503 223.874 C 55.179 235.03 53.23 242.91 52.645 247.531 C 50.725 263.677 50.057 277.703 50.616 289.566 C 51.255 298.599 53.354 305.605 56.881 310.572 C 54.184 303.356 52.741 295.615 52.562 287.36 C 52.154 276.221 52.863 263.039 54.662 247.807 C 55.098 244.033 56.772 237.07 59.703 226.941 C 60.506 223.917 64.225 212.526 70.833 192.756 C 72.018 189.052 72.808 186.431 73.217 184.892 C 74.415 180.341 75.111 176.375 75.314 173.003" fill-opacity="1" fill-rule="nonzero" style=""/>
  <path fill="#545454" d="M 65.969 135.031 L 65.86 135.031 C 64.443 135.044 63.095 135.529 61.842 136.473 C 60.901 137.277 60.111 138.403 59.456 139.845 C 58.082 142.688 57.835 146.406 58.749 150.984 C 59.36 154.216 61.405 158.615 64.893 164.192 C 68.053 168.896 71.049 172.059 73.897 173.667 L 69.701 168.355 C 68.679 166.98 67.686 165.468 66.717 163.86 C 63.952 159.046 62.112 155.16 61.213 152.233 C 59.498 146.502 59.989 141.941 62.671 138.526 C 64.919 136.363 67.671 136.612 70.914 139.29 C 71.678 140.011 72.385 141.08 73.053 142.479 C 73.679 143.658 74.537 146.323 75.654 150.485 C 75.886 151.04 76.228 151.402 76.678 151.538 C 77.317 151.691 77.889 151.512 78.393 151.014 C 81.145 146.99 82.972 144.685 83.856 144.09 C 84.919 143.203 86.187 142.648 87.671 142.439 C 92.343 142.273 95.233 144.562 96.35 149.293 C 97.179 152.788 96.171 156.216 93.351 159.588 C 92.276 160.877 90.994 162.07 89.524 163.192 L 80.737 168.797 C 79.061 169.88 78.23 170.448 78.243 170.491 C 76.717 171.933 75.779 173.112 75.451 174.029 C 77.985 171.963 79.266 170.963 79.305 171.072 L 90.464 164.97 C 91.758 164.083 92.956 163.056 94.061 161.877 C 97.969 157.548 99.388 153.233 98.338 148.944 C 97.057 143.466 93.72 140.592 88.352 140.33 C 86.171 140.426 84.292 141.107 82.712 142.396 C 81.431 143.339 79.633 145.575 77.33 149.083 C 76.078 143.881 74.646 140.399 73.053 138.595 C 71.036 136.39 68.666 135.197 65.969 135.031" fill-opacity="1" fill-rule="nonzero" style=""/>
  <g clip-path="url(#75923e2d31)" style="" transform="matrix(3.487604, 0, 0, 3.551583, -823.056775, -1171.161272)">
    <path fill="#545454" d="M 242.832031 363.035156 L 242.800781 363.035156 C 242.441406 363.042969 242.117188 363.128906 241.835938 363.292969 C 241.488281 363.484375 241.199219 363.761719 240.976562 364.128906 C 240.597656 364.585938 240.371094 365.523438 240.300781 366.9375 C 239.394531 365.976562 238.796875 365.421875 238.503906 365.277344 C 237.980469 364.957031 237.519531 364.847656 237.109375 364.945312 C 236.566406 365.035156 236.15625 365.324219 235.882812 365.808594 C 235.589844 366.28125 235.476562 366.871094 235.550781 367.585938 C 235.648438 368.824219 236.324219 369.820312 237.574219 370.570312 C 238.609375 371.1875 239.730469 371.699219 240.941406 372.109375 C 242.113281 372.472656 242.976562 372.59375 243.53125 372.472656 C 241.605469 372.0625 239.566406 371.160156 237.417969 369.761719 C 236.515625 369.121094 236.082031 368.210938 236.117188 367.027344 C 236.261719 365.9375 236.734375 365.425781 237.53125 365.503906 C 237.789062 365.535156 238.101562 365.6875 238.46875 365.960938 C 238.601562 366.042969 239.136719 366.558594 240.074219 367.507812 C 240.222656 367.613281 240.375 367.636719 240.535156 367.582031 C 240.679688 367.519531 240.777344 367.410156 240.828125 367.246094 C 240.949219 365.984375 241.0625 365.253906 241.164062 365.054688 C 241.316406 364.648438 241.511719 364.320312 241.753906 364.074219 C 242.296875 363.496094 243.066406 363.460938 244.0625 363.972656 C 244.933594 364.546875 245.375 365.332031 245.382812 366.320312 C 245.375 366.652344 245.320312 366.988281 245.214844 367.335938 C 244.40625 369.25 243.988281 370.304688 243.960938 370.511719 C 243.78125 371.253906 243.730469 371.917969 243.8125 372.5 C 243.867188 371.960938 244.035156 371.296875 244.316406 370.515625 C 244.265625 370.570312 244.695312 369.6875 245.601562 367.855469 C 245.683594 367.679688 245.746094 367.527344 245.789062 367.390625 C 245.949219 366.894531 246 366.394531 245.9375 365.890625 C 245.855469 365.125 245.480469 364.417969 244.804688 363.777344 C 244.222656 363.308594 243.566406 363.0625 242.832031 363.035156 " fill-opacity="1" fill-rule="nonzero"/>
  </g>
</svg>