<?xml version="1.0" encoding="utf-8"?>
<svg xmlns="http://www.w3.org/2000/svg" viewBox="226.226 238.925 273.774 236.411">
  <path fill="#545454" d="M -72.263 449.167 C -85.587 449.167 -99.01 455.691 -102.5 469.828 C -105.06 480.338 -100.23 492.685 -87.648 507.599 C -80.651 515.883 -47.037 547.433 -41.255 552.841 C -31.99 547.909 -21.135 541.519 -10.281 533.711 C -18.356 533.468 -25.255 533.399 -26.305 533.434 C -26.918 533.538 -27.524 533.338 -27.93 532.791 C -28.304 532.282 -28.337 531.605 -28.034 531.035 C -27.827 530.698 -27.688 530.465 -27.257 530.324 C -24.208 528.396 12.548 504.993 18.974 483.723 C 22.454 472.298 20.8 462.08 14.238 455.018 C 7.678 447.91 -2.972 445.173 -14.269 447.639 C -29.35 450.992 -37.299 463.336 -38.173 464.756 C -38.613 465.499 -39.592 465.77 -40.336 465.326 C -40.544 465.223 -40.676 465.092 -40.847 464.921 C -42.474 463.093 -55.112 451.365 -65.933 449.641 C -68.004 449.303 -70.134 449.167 -72.263 449.167 Z M -610.29 749.079 C -610.79 749.079 -610.96 748.917 -611.24 748.613 C -611.8 748 -611.8 747.02 -611.24 746.414 C -601.49 736.068 -577.36 709.75 -563.07 688.144 C -542.1 656.357 -529.22 628.532 -523.71 603.026 C -516.13 568.131 -523.03 538.401 -544.18 514.631 C -558.38 498.64 -580.09 493.638 -595.81 492.217 C -610.82 490.892 -632.47 491.706 -650.39 503.273 C -670.31 516.154 -682.29 532.557 -685.97 552.071 C -690.1 573.713 -684.52 599.243 -668.89 630.184 C -655.43 656.725 -636.76 682.8 -621.76 703.771 C -618.81 707.863 -616 711.819 -613.33 715.536 C -607.91 709.147 -586.78 683.614 -574.78 663.428 C -561.59 641.239 -553.26 619.363 -550.73 600.222 C -547.77 577.8 -552.59 559.776 -565.11 546.625 C -576.02 535.094 -597.74 528.975 -615.6 532.352 C -632.13 535.503 -646.33 548.861 -650.09 564.886 C -653.98 581.288 -646.64 599.583 -632.67 608.376 C -618.6 617.233 -598.34 615.337 -586.58 604.048 C -585.94 603.399 -584.92 603.435 -584.28 604.076 C -583.67 604.724 -583.7 605.771 -584.35 606.378 C -597.33 618.853 -618.88 620.922 -634.4 611.114 C -649.51 601.606 -657.42 581.859 -653.26 564.139 C -649.21 546.894 -633.96 532.525 -616.21 529.175 C -597.33 525.625 -574.38 532.152 -562.74 544.392 C -549.52 558.286 -544.41 577.229 -547.52 600.63 C -550.12 620.246 -558.58 642.527 -572 665.081 C -579.18 677.228 -589.72 691.296 -597.29 700.965 C -601.66 706.503 -605.45 711.179 -607.88 714.08 C -609.24 715.709 -610.32 716.988 -611.06 717.871 C -612.55 719.628 -613.09 720.305 -614.27 719.596 C -614.52 719.465 -614.71 719.257 -614.86 719.057 C -617.79 714.826 -621 710.366 -624.39 705.667 C -639.46 684.594 -658.24 658.426 -671.77 631.639 C -687.73 600.058 -693.4 573.844 -689.18 551.457 C -685.29 531.035 -672.85 513.921 -652.15 500.56 C -633.45 488.496 -611.03 487.609 -595.54 488.996 C -579.21 490.449 -556.69 495.698 -541.73 512.501 C -519.9 537.051 -512.76 567.758 -520.54 603.702 C -526.15 629.613 -539.17 657.809 -560.37 689.937 C -573.16 709.283 -593.71 732.346 -605.05 744.554 C -595.54 742.017 -574.4 736.302 -550.87 729.94 C -521.55 722.001 -488.37 713.033 -465.62 706.948 L -461.42 705.831 C -428.55 697.079 -391.25 687.131 -366.09 662.546 C -359.4 655.993 -353.99 648.441 -348.74 641.109 C -336.78 624.368 -325.48 608.578 -300.76 605.971 C -270.09 602.792 -239.11 607.528 -209.12 612.09 C -198.13 613.787 -186.73 615.546 -175.64 616.828 C -173.13 617.129 -170.29 617.502 -167.26 617.909 C -146.42 620.749 -114.97 625.007 -101.45 612.87 C -98.096 609.858 -96.512 606.984 -96.581 604.048 C -96.713 597.919 -104.08 591.97 -111.18 586.189 C -118.62 580.14 -125.66 574.46 -125.58 567.897 C -125.55 564.512 -123.7 561.439 -119.87 558.427 C -109.76 550.58 -91.23 552.747 -78.956 554.168 C -77.872 554.297 -76.862 554.401 -75.918 554.504 C -75.881 554.504 -75.849 554.541 -75.812 554.541 L -72.973 555.041 C -75.209 553.457 -78.721 550.954 -82.781 548.045 C -90.452 542.534 -100.56 535.19 -105.1 531.371 C -120.75 518.247 -131.47 506.855 -138.91 495.557 C -147.78 482.105 -152.07 468.376 -152.1 453.659 C -152.13 436.751 -144.96 421.564 -131.98 410.919 C -118.08 399.524 -99.05 394.918 -81.085 398.537 C -65.841 401.654 -54.31 410.615 -50.447 413.956 C -47.537 410.649 -39.228 401.993 -28.674 397.898 C -9.873 390.627 10.455 392.313 25.701 402.424 C 39.604 411.663 47.619 426.943 48.189 445.546 C 49.343 481.396 25.336 510.171 -0.945 530.767 C 4.498 530.932 10.722 531.198 14.819 531.51 C 34.121 533.025 53.975 533.025 71.055 532.931 C 97.9 532.791 133.205 532.081 168.074 528.162 L 169.425 527.989 C 178.452 526.975 202.496 524.308 206.728 518.654 C 208.009 516.967 208.382 515.478 207.941 514.095 C 206.354 509.219 195.093 505.772 190.834 504.459 C 180.516 501.27 172.534 499.653 160.499 497.187 C 157.384 496.572 154.007 495.861 150.216 495.09 C 142.033 493.395 123.033 488.659 123.067 481.457 C 123.067 477.741 127.661 475.031 137.567 473.005 C 180.212 464.313 224.241 463.607 266.781 462.93 C 312.57 462.22 359.916 461.477 405.369 450.689 C 422.541 446.593 428.503 441.52 430.452 437.972 C 431.607 435.944 431.782 433.805 431.04 431.478 C 427.152 419.738 393.023 412.91 376.656 409.626 L 374.83 409.29 C 366.816 407.669 361.938 404.461 361.907 400.667 C 361.814 396.175 368.064 392.485 380.987 389.38 C 390.383 387.11 439.074 382.48 444.767 381.934 C 446.387 380.618 454.369 373.556 470.263 350.854 C 485.579 328.978 507.289 287.822 480.546 257.729 C 472.996 249.238 461.434 246.571 453.049 245.827 C 444.994 245.118 433.464 245.549 423.923 251.704 C 413.311 258.57 406.926 267.298 404.956 277.677 C 399.954 303.952 422.882 335.983 439.662 359.348 C 441.044 361.277 442.364 363.131 443.654 364.922 C 455.143 351.097 460.96 342.405 463.868 337.533 C 471.346 324.955 486.827 293.64 469.211 275.079 C 462.889 268.415 450.677 266.051 442.529 267.564 C 433.804 269.228 426.368 276.257 424.367 284.645 C 422.376 293.233 426.192 302.842 433.505 307.441 C 440.879 312.07 451.461 311.094 457.577 305.17 C 458.216 304.565 459.279 304.565 459.877 305.241 C 460.486 305.848 460.486 306.895 459.846 307.511 C 452.544 314.504 440.508 315.656 431.782 310.174 C 423.325 304.867 418.89 293.813 421.221 283.901 C 423.49 274.3 431.978 266.248 441.921 264.388 C 452.379 262.432 465.116 266.051 471.573 272.846 C 478.916 280.549 481.721 291.033 480.03 303.952 C 478.576 314.676 473.986 326.883 466.643 339.194 C 462.28 346.528 455.174 356.135 445.51 367.737 C 445.17 368.143 444.932 368.446 444.86 368.541 C 444.561 368.947 444.128 369.19 443.654 369.227 C 443.066 369.251 442.529 368.983 442.199 368.541 C 440.601 366.247 438.847 363.814 437.011 361.244 C 419.911 337.403 396.509 304.731 401.749 277.07 C 403.915 265.771 410.773 256.336 422.17 248.972 C 432.453 242.303 444.798 241.836 453.317 242.616 C 462.28 243.385 474.729 246.295 482.98 255.601 C 495.047 269.157 499.069 286.1 494.913 305.848 C 491.086 324.114 480.845 341.427 472.903 352.717 C 454.596 378.862 446.624 384.61 446.314 384.844 C 446.077 384.98 445.819 385.083 445.541 385.11 C 444.994 385.144 391.301 390.219 381.73 392.523 C 365.867 396.339 365.125 399.925 365.125 400.606 C 365.156 402.261 368.807 404.764 375.469 406.113 L 377.264 406.451 C 402.595 411.523 429.988 417.982 434.113 430.466 C 435.155 433.641 434.887 436.716 433.299 439.563 C 429.957 445.546 420.819 450.353 406.112 453.831 C 360.319 464.722 312.778 465.465 266.817 466.176 C 224.415 466.854 180.582 467.562 138.217 476.184 C 126.652 478.548 126.311 481.188 126.311 481.491 C 126.311 483.526 132.971 488.193 150.864 491.906 C 154.647 492.685 158.033 493.395 161.139 494.009 C 173.277 496.511 181.293 498.131 191.777 501.341 C 200.269 503.947 209.161 507.393 211.023 513.082 C 211.828 515.515 211.257 518.05 209.325 520.619 C 204.869 526.568 186.841 529.311 169.761 531.235 L 168.447 531.371 C 133.447 535.326 98.036 536.004 71.088 536.177 C 53.938 536.27 33.994 536.238 14.542 534.757 C 9.877 534.384 2.334 534.074 -4.998 533.841 C -17.516 543.205 -30.223 550.678 -40.743 556.227 C -41.357 556.563 -42.1 556.46 -42.604 555.994 C -44.23 554.47 -82.373 518.863 -90.15 509.696 C -103.43 493.938 -108.51 480.65 -105.63 469.049 C -101.11 450.75 -82.003 443.823 -65.433 446.42 C -59.988 447.303 -53.798 450.315 -47.005 455.355 C -45.002 456.843 -41.791 459.475 -39.799 461.371 C -36.855 457.277 -28.608 447.503 -14.979 444.5 C -2.565 441.754 9.269 444.87 16.645 452.819 C 23.884 460.627 25.874 472.262 22.09 484.666 C 16.402 503.436 -10.209 522.89 -21.135 530.222 C -18.019 530.254 -14.13 530.358 -10.107 530.465 C -9.023 530.488 -7.637 530.525 -6.046 530.595 C 20.765 510.335 46.129 481.593 44.979 445.649 C 44.407 428.129 36.927 413.76 23.907 405.134 C 9.536 395.595 -9.665 394.045 -27.491 400.945 C -39.626 405.647 -48.657 416.804 -49.027 417.272 C -49.574 417.949 -50.549 418.085 -51.226 417.576 C -51.296 417.548 -51.365 417.515 -51.436 417.444 C -51.938 416.934 -64.515 405.204 -81.734 401.715 C -98.744 398.271 -116.77 402.667 -129.91 413.455 C -142.16 423.461 -148.88 437.738 -148.86 453.659 C -148.79 486.026 -126.81 508.952 -103 528.871 C -94.616 535.934 -66.68 555.517 -65.201 556.494 C -64.724 556.773 -64.42 557.241 -64.387 557.82 C -64.318 558.563 -64.828 559.24 -65.537 559.473 C -65.807 559.543 -65.971 559.576 -66.28 559.473 L -66.28 559.509 L -76.326 557.751 C -77.269 557.613 -78.282 557.516 -79.329 557.38 C -91.066 556.026 -108.85 553.957 -117.85 560.996 C -120.85 563.326 -122.34 565.595 -122.38 567.897 C -122.41 572.934 -115.65 578.38 -109.12 583.69 C -101.45 589.911 -93.536 596.336 -93.336 603.946 C -93.233 607.901 -95.188 611.623 -99.28 615.303 C -113.92 628.427 -146.28 624.029 -167.68 621.156 C -170.7 620.713 -173.54 620.342 -176.01 620.039 C -187.17 618.755 -198.56 616.999 -209.59 615.303 C -239.39 610.774 -270.19 606.041 -300.42 609.218 C -323.69 611.623 -334.58 626.868 -346.11 643.005 C -351.41 650.443 -356.93 658.122 -363.83 664.881 C -389.59 690.04 -427.34 700.082 -460.57 708.98 L -464.77 710.1 C -487.53 716.185 -520.71 725.143 -550.02 733.056 C -566.29 737.454 -581.17 741.481 -591.99 744.381 C -597.44 745.834 -601.83 747.02 -604.87 747.833 C -608.18 748.743 -609.57 749.079 -610.29 749.079" fill-opacity="1" fill-rule="nonzero" style="stroke-width: 1;"/>
</svg>